<?xml version="1.0" standalone="no"?>
<!DOCTYPE svg PUBLIC "-//W3C//DTD SVG 20010904//EN"
 "http://www.w3.org/TR/2001/REC-SVG-20010904/DTD/svg10.dtd">
<svg version="1.0" xmlns="http://www.w3.org/2000/svg"
 width="602.000000pt" height="415.000000pt" viewBox="0 0 602.000000 415.000000"
 preserveAspectRatio="xMidYMid meet">
<metadata>
Created by potrace 1.16, written by Peter Selinger 2001-2019
</metadata>
<g transform="translate(0.000000,415.000000) scale(0.100000,-0.100000)"
fill="#000000" stroke="none">
<path d="M2802 3992 c-27 -27 -59 -67 -71 -90 -12 -23 -25 -42 -29 -42 -4 0
-8 -8 -9 -17 -1 -10 -11 -52 -23 -93 -18 -62 -21 -91 -16 -170 5 -94 43 -306
72 -407 9 -29 12 -62 9 -74 -5 -15 -4 -19 4 -15 18 11 13 -6 -6 -20 -17 -12
-16 -13 5 -9 12 2 20 0 17 -6 -4 -5 -15 -9 -26 -9 -10 0 -19 -4 -19 -10 0 -5
9 -10 20 -10 11 0 20 -5 20 -11 0 -5 -4 -8 -9 -5 -5 3 -8 -2 -7 -12 1 -12 -6
-17 -26 -17 -16 1 -28 -3 -28 -7 0 -15 58 -8 64 7 5 15 28 22 24 8 -1 -5 2
-23 6 -40 11 -46 -1 -75 -27 -71 -12 2 -22 9 -22 17 0 18 -73 21 -80 4 -2 -7
0 -13 6 -13 6 0 8 -4 4 -9 -3 -5 0 -13 6 -17 8 -4 9 -3 5 4 -4 7 -1 12 8 12
20 0 20 -14 1 -30 -21 -17 -50 -8 -47 15 1 11 -9 33 -22 50 l-23 29 32 47 c90
131 24 375 -120 440 -24 11 -64 19 -98 19 -51 0 -62 -4 -88 -29 -29 -29 -40
-83 -20 -95 5 -4 7 3 4 14 -3 13 5 29 24 49 27 27 35 29 79 25 71 -6 74 -7 69
-15 -3 -4 9 -17 25 -30 16 -13 30 -29 30 -35 0 -6 11 -20 25 -30 24 -18 36
-42 15 -29 -12 8 -13 11 4 -52 8 -28 12 -54 10 -56 -3 -2 -7 -22 -9 -43 -6
-43 -25 -77 -65 -114 -15 -14 -30 -32 -33 -40 -4 -12 -6 -12 -6 2 -1 12 -15
18 -53 23 -104 14 -162 52 -150 97 3 14 1 19 -6 14 -22 -13 -13 -54 18 -80 17
-14 63 -35 103 -47 40 -12 66 -24 58 -27 -7 -2 -21 -12 -31 -22 -10 -10 -24
-20 -31 -22 -8 -3 -11 -8 -8 -12 3 -4 19 -2 34 4 25 9 27 9 15 -5 -7 -9 -23
-15 -34 -14 -31 4 -66 -22 -66 -49 0 -13 -4 -21 -10 -17 -11 7 -35 -29 -44
-65 -3 -14 -3 -19 0 -12 9 19 24 14 18 -5 -5 -15 -4 -15 6 1 10 14 10 20 0 26
-8 5 -7 11 5 24 20 20 39 20 55 1 7 -8 17 -15 23 -15 6 0 1 9 -12 21 -12 12
-20 23 -18 25 2 2 30 6 61 9 48 4 55 3 44 -9 -7 -7 -23 -12 -35 -10 -17 3 -21
0 -17 -11 3 -8 11 -12 16 -9 6 4 14 0 19 -7 6 -10 9 -11 9 -1 0 6 9 12 20 12
11 0 20 6 20 13 0 20 60 97 75 97 8 0 12 -9 11 -25 -2 -13 1 -22 5 -19 15 9
10 -8 -8 -29 -10 -11 -12 -17 -5 -13 6 4 19 0 27 -8 14 -13 13 -16 -6 -27 -18
-9 -19 -13 -8 -21 10 -7 6 -8 -13 -4 -16 4 -28 2 -28 -4 0 -5 5 -10 12 -10 6
0 8 -3 5 -6 -4 -4 -12 -2 -20 4 -10 8 -13 7 -13 -7 0 -11 6 -17 13 -14 22 8
15 -4 -12 -21 -16 -10 -24 -12 -23 -5 2 7 -15 19 -37 28 -22 8 -43 20 -47 25
-5 8 -8 7 -8 0 0 -15 -50 -25 -50 -10 0 8 -2 8 -8 0 -8 -14 -108 -45 -116 -37
-3 4 -6 23 -6 44 0 40 -40 97 -84 121 -12 7 -4 -8 22 -37 23 -26 39 -51 36
-56 -3 -5 0 -9 5 -9 14 0 10 -52 -5 -67 -9 -9 -14 -9 -24 0 -10 9 -11 9 -6 -1
8 -13 -19 -13 -41 1 -7 5 -13 5 -13 2 0 -10 -63 36 -88 64 -17 19 -21 21 -14
6 27 -56 85 -95 143 -95 30 0 42 -20 12 -20 -16 -1 -16 -2 1 -15 11 -8 16 -15
10 -15 -5 0 -15 -12 -21 -28 -12 -26 -12 -27 5 -6 9 11 24 31 33 44 18 28 39
20 39 -16 0 -13 4 -24 9 -24 5 0 8 11 5 24 -3 17 1 25 16 29 12 3 23 -1 28
-10 7 -12 10 -12 21 1 8 9 10 16 5 16 -4 0 1 6 12 14 10 8 15 18 11 22 -4 5
-12 2 -16 -5 -5 -7 -14 -10 -20 -7 -6 4 -11 2 -11 -5 0 -10 -3 -10 -12 -1 -16
16 -4 25 37 26 19 1 35 4 35 9 0 4 4 7 10 7 5 0 2 -13 -8 -29 -14 -25 -14 -31
-2 -46 7 -9 22 -14 32 -12 11 3 23 -2 30 -13 13 -20 58 -14 66 9 3 8 0 11 -6
7 -5 -3 -13 2 -16 11 -4 9 -1 20 6 24 10 7 10 11 0 21 -6 6 -12 17 -12 23 0 6
3 7 8 0 27 -38 42 -39 82 -6 22 18 46 31 52 30 28 -3 49 1 44 10 -4 5 0 12 6
14 7 3 3 6 -9 6 -12 1 -24 5 -27 10 -8 12 4 41 16 41 5 0 6 -5 3 -10 -4 -6 5
-5 19 2 14 6 26 14 26 18 0 4 9 10 19 13 16 4 19 0 17 -22 -2 -14 -7 -34 -11
-44 -10 -23 2 -35 18 -17 10 10 9 11 -2 5 -9 -5 -12 -3 -9 6 3 8 12 13 22 11
20 -4 22 26 2 34 -8 3 -12 12 -9 20 3 8 10 11 16 7 6 -4 7 -1 2 7 -6 10 -4 12
11 6 15 -6 16 -5 7 5 -10 9 -15 10 -27 0 -9 -7 -17 -8 -20 -2 -3 5 0 12 6 15
11 5 11 7 0 12 -6 3 -10 10 -7 15 4 5 19 -1 36 -13 29 -22 38 -51 19 -63 -5
-3 -10 -19 -10 -35 0 -16 -6 -35 -14 -43 -13 -12 -12 -16 9 -25 23 -11 25 -9
36 30 6 23 9 54 7 69 -3 15 -1 26 4 23 4 -3 8 1 9 8 2 29 17 -40 18 -84 1 -49
9 -56 45 -42 13 5 12 9 -6 23 -20 16 -18 48 2 36 5 -3 12 0 16 6 4 7 3 9 -3 6
-6 -4 -13 0 -17 8 -7 19 4 19 34 -2 14 -9 19 -10 13 -3 -10 11 -9 17 4 32 17
19 5 26 -14 7 -17 -17 -46 -6 -50 19 -1 13 0 21 4 19 5 -3 17 -1 28 4 l20 9
-20 -1 c-34 -2 -41 1 -25 11 13 8 12 11 -5 24 -11 9 -16 16 -12 16 4 0 3 9 -3
20 -7 14 -7 20 0 20 5 0 10 -4 10 -10 0 -5 7 -10 15 -10 13 0 21 25 16 53 -1
9 7 9 48 -3 40 -11 44 -9 35 14 -5 12 -10 14 -20 6 -9 -8 -18 -8 -33 0 -23 12
-29 40 -8 40 6 1 1 10 -12 21 -13 11 -26 17 -30 14 -3 -3 -1 -9 5 -13 6 -4 11
-21 12 -39 1 -30 0 -31 -18 -15 -13 10 -16 20 -10 27 6 8 1 11 -18 11 -22 -1
-28 4 -30 24 -2 14 -7 34 -12 45 -16 37 -18 76 -4 82 8 3 11 9 8 14 -3 5 -1 9
4 9 19 0 23 -34 6 -47 -17 -12 -17 -13 2 -14 18 0 18 -1 -1 -10 -19 -9 -19 -9
2 -5 13 2 29 -4 39 -15 19 -21 40 -26 28 -7 -5 8 -2 9 10 5 9 -4 15 -3 12 2
-3 5 -19 11 -36 14 -21 5 -30 12 -30 27 0 22 28 28 47 9 6 -6 13 -7 16 -2 14
22 29 195 25 287 -4 86 -9 112 -37 178 -18 42 -45 91 -61 109 l-27 33 1 -29
c1 -18 6 -29 13 -28 7 2 10 -4 7 -12 -4 -8 -1 -15 5 -15 6 0 11 -7 11 -16 0
-8 4 -13 8 -10 5 3 8 -8 7 -24 -1 -17 2 -30 7 -30 4 0 8 -8 7 -17 0 -11 -3
-13 -6 -5 -2 6 -9 12 -15 12 -7 0 -6 -5 1 -14 6 -7 9 -22 5 -32 -5 -18 -5 -18
10 0 14 17 16 17 16 4 0 -9 -4 -20 -10 -23 -5 -3 -10 -11 -10 -16 0 -6 4 -8 9
-4 5 3 12 1 16 -5 3 -5 2 -10 -4 -10 -6 0 -10 -15 -9 -34 1 -24 5 -33 15 -29
7 3 13 -2 13 -11 0 -9 -7 -16 -15 -16 -8 0 -15 -7 -15 -16 0 -14 3 -14 15 -4
12 10 15 10 15 -4 0 -9 -5 -16 -11 -16 -6 0 -17 -7 -26 -15 -14 -14 -13 -15
11 -9 32 8 34 -8 3 -29 -14 -9 -35 -13 -51 -10 -20 4 -31 1 -38 -11 -11 -20
-34 -21 -42 0 -8 22 3 37 24 31 12 -3 17 0 14 7 -3 7 -15 12 -27 12 -12 -1
-23 6 -25 15 -2 12 7 19 35 24 23 5 31 10 21 12 -19 5 -25 29 -8 35 5 2 6 14
3 28 -7 25 -7 25 -13 -5 -4 -18 -11 -29 -20 -27 -11 3 -11 0 0 -12 10 -13 10
-16 -4 -16 -19 0 -22 36 -3 43 7 3 5 6 -5 6 -10 1 -18 8 -18 16 0 13 4 14 22
4 18 -10 20 -9 15 6 -4 9 -7 19 -7 21 0 2 -7 4 -15 4 -8 0 -15 7 -15 16 0 10
6 13 18 10 12 -4 19 -1 19 8 0 8 -6 12 -15 9 -15 -6 -34 16 -25 30 3 5 9 3 14
-4 4 -7 12 -10 16 -5 4 4 0 13 -10 20 -20 15 -23 38 -4 31 13 -6 18 48 5 61
-5 4 -8 12 -8 18 0 6 4 5 9 -3 6 -9 11 -10 15 -2 4 6 0 14 -8 17 -17 7 -22 34
-6 34 5 0 14 -8 19 -17 9 -16 10 -16 11 -1 0 9 5 18 12 20 6 2 13 14 15 27 2
18 0 22 -13 17 -8 -3 -18 -6 -21 -6 -3 0 0 -6 6 -14 8 -10 9 -16 1 -21 -5 -3
-10 1 -10 10 0 9 -5 13 -11 9 -8 -5 -8 -1 0 14 6 11 11 30 11 41 0 12 5 21 10
21 6 0 10 7 10 15 0 8 4 15 9 15 5 0 14 14 20 31 7 21 15 28 23 23 10 -6 10
-4 0 8 -11 14 -10 17 5 22 20 7 58 54 50 62 -2 3 -27 -17 -55 -44z"/>
<path d="M3365 3234 c0 -41 -40 -63 -165 -90 -131 -28 -137 -31 -180 -80 -30
-35 -32 -41 -28 -95 3 -44 11 -65 34 -94 16 -20 34 -45 39 -54 14 -23 49 -57
67 -63 24 -10 50 -77 52 -134 1 -58 -6 -73 -27 -55 -20 16 -50 128 -42 158 5
22 3 24 -25 20 -17 -3 -28 -1 -24 4 3 5 12 9 20 9 20 0 17 13 -6 28 -17 10
-20 9 -26 -13 -7 -29 -24 -34 -24 -7 -1 16 -1 16 -11 0 -13 -24 -54 -23 -79 2
-17 17 -20 17 -20 4 0 -9 9 -18 20 -21 11 -3 20 -12 20 -19 0 -13 4 -13 27 0
25 13 28 12 40 -11 18 -36 16 -50 -8 -56 -37 -10 -118 40 -104 63 4 7 -2 6
-14 -2 -20 -12 -20 -13 -1 -20 10 -4 28 -16 39 -27 27 -27 82 -55 79 -40 -2 6
3 14 11 17 9 3 11 0 6 -8 -5 -8 -1 -11 11 -8 11 2 18 10 16 16 -1 7 2 12 8 12
5 0 10 -9 10 -20 0 -11 5 -20 11 -20 5 0 8 -4 5 -8 -3 -5 8 -22 24 -37 17 -16
30 -34 30 -41 0 -21 31 -25 56 -5 13 10 20 22 16 26 -4 4 5 0 21 -10 23 -15
26 -15 21 -2 -3 9 -20 21 -37 27 -31 11 -31 12 -12 26 11 8 28 13 37 11 11 -3
15 0 11 9 -3 8 -13 14 -22 14 -28 0 -42 20 -25 37 18 18 18 29 0 36 -11 4 -13
1 -9 -11 3 -9 -5 -2 -17 17 -24 38 -20 61 10 61 11 0 20 5 20 11 0 6 10 8 23
5 22 -6 22 -6 -1 6 -17 8 -28 9 -41 1 -12 -7 -27 -7 -51 1 -29 9 -35 16 -36
41 0 24 4 30 23 31 29 2 31 -22 2 -29 -21 -6 -18 -27 4 -27 7 0 6 4 -3 10 -12
8 -10 10 9 10 16 0 22 -4 17 -15 -4 -10 1 -15 14 -15 23 0 27 15 5 24 -8 3
-15 10 -15 16 0 6 5 8 10 5 6 -3 10 -2 10 4 0 14 83 51 116 51 57 0 110 -63
82 -98 -11 -13 -10 -14 2 -10 19 6 25 60 10 87 -16 31 -66 52 -124 54 -41 1
-63 -5 -100 -27 -27 -16 -51 -24 -55 -19 -10 16 -39 22 -45 10 -2 -7 -5 -4 -5
6 -1 9 4 17 11 17 6 0 3 10 -8 22 -10 12 -13 18 -6 14 6 -4 12 -2 12 4 0 6 -7
13 -15 16 -8 4 -15 10 -15 16 0 5 4 7 9 4 5 -3 8 11 7 32 -1 26 3 36 12 34 7
-1 25 4 40 12 38 20 109 46 128 46 8 0 40 12 70 26 61 29 86 66 62 91 -12 11
-14 9 -13 -13z"/>
<path d="M3446 2745 c-40 -27 -71 -32 -79 -12 -4 10 -6 10 -6 0 -1 -7 -8 -13
-16 -13 -8 0 -15 -5 -15 -11 0 -5 5 -7 11 -4 5 4 21 4 34 1 22 -6 23 -9 13
-31 -12 -26 -43 -34 -51 -12 -4 13 -2 -9 4 -33 3 -10 -4 -15 -21 -15 -17 0
-26 -5 -26 -16 0 -14 5 -15 24 -8 13 5 21 5 18 1 -2 -4 4 -14 15 -20 18 -12
19 -10 13 14 -5 20 -4 25 5 19 8 -4 11 -21 9 -41 -2 -19 1 -35 7 -38 6 -2 6
-8 -2 -16 -9 -10 -13 -8 -18 12 -5 20 -12 25 -35 24 -22 -1 -26 -4 -18 -14 6
-7 13 -10 16 -7 7 6 32 -15 32 -27 0 -5 -9 -12 -19 -16 -18 -7 -17 -8 5 -25
l25 -19 -7 26 c-4 15 -2 26 4 26 16 0 20 -22 9 -53 -7 -22 -12 -25 -23 -16
-15 12 -19 6 -27 -43 -3 -19 0 -28 9 -28 7 0 18 -8 24 -17 11 -17 11 -17 6 0
-3 10 0 17 8 17 9 0 13 -8 10 -22 -3 -17 -1 -16 7 5 16 40 33 34 26 -10 -5
-27 -3 -33 5 -25 15 15 19 123 5 139 -5 7 -7 21 -5 31 3 10 -2 24 -10 32 -10
9 -11 15 -4 18 12 4 4 33 -12 44 -8 5 -7 14 2 28 7 11 8 20 3 20 -26 0 17 97
57 130 44 36 38 39 -12 5z"/>
<path d="M1891 2691 c-53 -15 -89 -104 -70 -176 6 -22 23 -56 37 -75 33 -43
37 -63 12 -55 -20 6 -37 -21 -17 -28 9 -3 8 -8 -2 -18 -9 -9 -11 -9 -7 -1 5 7
1 12 -9 12 -10 0 -13 5 -9 12 4 7 3 8 -5 4 -8 -5 -9 -12 -2 -20 6 -7 6 -17 1
-26 -8 -13 -10 -12 -10 3 0 9 -5 17 -11 17 -5 0 -7 5 -4 10 3 6 2 10 -3 10 -6
0 -13 -7 -16 -16 -5 -12 -10 -14 -20 -5 -7 6 -16 8 -19 4 -4 -3 -7 -1 -7 6 0
7 -4 10 -9 7 -5 -4 -12 0 -14 6 -4 9 -6 8 -6 -2 -1 -9 5 -22 12 -30 6 -8 2 -6
-11 5 -12 10 -21 23 -19 29 3 6 -2 24 -10 40 -8 15 -21 54 -29 85 -33 126 -78
190 -124 176 -28 -9 -25 -23 3 -18 41 8 66 -34 92 -157 27 -125 46 -165 95
-197 59 -41 136 -26 207 39 19 18 26 19 57 8 40 -13 48 -30 14 -31 l-23 0 23
-9 c38 -16 22 -90 -20 -90 -12 0 -19 -3 -15 -6 12 -13 55 6 60 27 3 12 10 18
16 14 7 -4 11 4 12 19 3 47 4 51 23 54 41 8 49 -56 11 -86 -14 -11 -25 -25
-25 -31 0 -6 -8 -8 -17 -5 -14 5 -15 4 -4 -4 8 -6 12 -21 9 -41 -4 -28 -2 -31
21 -30 19 0 21 2 10 7 -14 6 -14 10 -1 42 9 19 17 41 18 48 4 21 25 42 36 36
5 -4 2 8 -7 26 -19 36 -19 35 15 44 21 6 22 5 8 -4 -10 -6 -18 -15 -18 -20 0
-6 8 -3 19 6 11 10 16 24 14 35 -4 14 0 19 13 19 12 0 15 3 8 8 -6 4 -9 18 -7
32 2 14 3 36 3 49 0 17 4 22 16 17 9 -3 18 -6 20 -6 3 0 -5 -13 -17 -29 -12
-16 -18 -34 -14 -40 8 -14 26 -4 24 12 -3 28 3 36 31 42 22 5 32 14 36 33 3
15 7 33 10 40 2 6 -1 12 -6 12 -12 0 -23 -37 -15 -50 4 -6 -4 -6 -19 1 -29 14
-41 36 -27 53 7 8 4 12 -9 12 -10 0 -16 -4 -14 -8 8 -12 -6 -48 -17 -48 -12 0
-40 26 -39 35 1 4 -1 9 -4 13 -3 3 -6 -4 -6 -15 0 -11 -6 -25 -12 -30 -18 -14
-59 -23 -52 -12 3 5 12 9 20 9 8 0 14 4 14 8 0 18 -32 8 -47 -14 -8 -13 -29
-28 -46 -33 -18 -6 -37 -21 -42 -33 -6 -12 -17 -24 -25 -26 -13 -5 -13 -3 -2
11 12 14 10 22 -15 54 -15 21 -31 40 -35 43 -4 3 -12 26 -19 51 -10 37 -10 53
0 77 14 33 60 58 88 48 15 -5 15 -4 -1 9 -11 8 -22 15 -25 14 -3 -1 -17 -4
-30 -8z"/>
<path d="M3410 2655 c0 -4 11 -18 25 -31 31 -28 31 -38 3 -64 -12 -11 -16 -20
-9 -20 7 0 19 7 28 15 8 9 18 14 20 11 9 -8 -8 -27 -33 -36 -13 -5 -24 -14
-24 -19 0 -6 8 -7 17 -4 13 5 15 2 10 -11 -4 -11 -3 -15 4 -11 6 4 8 13 5 20
-5 15 27 30 43 21 5 -3 11 -15 14 -26 3 -11 1 -18 -3 -15 -5 3 -11 1 -15 -5
-3 -5 -15 -10 -26 -10 -14 0 -18 -4 -12 -12 4 -7 8 -17 8 -23 0 -5 15 -9 33
-7 21 2 32 -1 33 -10 0 -7 4 -4 9 7 7 17 9 17 9 3 1 -20 16 -24 26 -8 16 26
106 3 178 -47 44 -31 51 -66 12 -59 -14 3 -23 1 -20 -5 4 -5 -3 -9 -14 -9 -11
0 -23 5 -27 12 -5 8 -2 9 10 5 11 -4 15 -3 11 4 -4 6 -13 8 -20 5 -7 -2 -18 1
-25 7 -7 7 -10 8 -8 2 3 -5 -1 -16 -10 -24 -13 -13 -14 -12 -9 11 5 19 1 30
-15 44 -15 14 -22 16 -25 7 -8 -24 -25 -13 -21 12 3 14 1 28 -3 31 -8 4 -14
-25 -10 -48 3 -18 -17 -6 -37 22 -21 28 -50 39 -65 23 -4 -3 11 -22 34 -41 40
-35 47 -52 12 -34 -12 7 -25 7 -34 1 -12 -7 -12 -9 1 -10 8 -1 22 -2 30 -3 8
0 14 -7 12 -15 -2 -8 3 -11 12 -8 10 4 15 -4 19 -26 8 -51 13 -66 22 -74 4 -5
5 -2 0 6 -6 11 -4 13 11 7 16 -6 16 -4 -3 14 -25 22 -30 64 -11 76 6 4 14 2
16 -4 2 -7 8 -10 13 -6 5 3 9 2 8 -3 -1 -4 -1 -19 0 -33 2 -25 2 -25 11 -2 13
30 15 28 16 -13 1 -40 1 -40 32 -50 22 -6 22 -6 -3 19 -24 24 -35 53 -16 41 5
-3 13 0 17 6 4 8 3 9 -4 5 -7 -4 -12 -2 -12 3 0 6 5 11 11 11 6 0 8 7 5 16 -4
10 -1 14 6 11 7 -2 13 -16 12 -30 -1 -14 4 -25 9 -24 12 2 28 -60 20 -78 -2
-7 3 -15 13 -19 15 -6 15 -4 3 10 -12 15 -12 17 1 12 8 -2 16 -15 18 -27 3
-18 6 -20 18 -10 10 8 18 9 27 0 8 -6 17 -8 20 -4 4 3 7 -3 7 -15 0 -17 -6
-22 -26 -22 -16 0 -23 4 -18 11 5 8 -3 10 -24 7 -27 -4 -30 -2 -19 10 10 13 9
14 -10 4 -32 -17 -36 -15 -31 16 3 22 0 28 -14 28 -20 0 -24 -16 -8 -32 14
-14 -30 -16 -47 -2 -15 12 -18 42 -4 33 5 -3 13 0 17 6 4 7 3 9 -4 5 -5 -3
-12 0 -15 6 -2 7 -8 1 -12 -14 -6 -24 -13 -28 -41 -28 -38 0 -43 11 -29 55 6
18 4 17 -14 -4 -12 -12 -18 -28 -14 -34 3 -5 1 -7 -4 -4 -6 4 -8 19 -5 34 2
16 2 26 -1 23 -3 -3 -7 -19 -10 -35 -3 -22 -9 -30 -23 -30 -23 0 -32 48 -13
71 7 9 8 14 1 14 -6 0 -14 -9 -17 -20 -4 -11 -10 -18 -15 -15 -5 3 -12 0 -16
-6 -4 -7 -3 -9 3 -6 6 4 13 0 16 -7 3 -8 1 -16 -4 -18 -5 -2 -1 -13 11 -26 16
-17 32 -22 73 -22 29 0 79 -7 112 -15 33 -8 72 -14 87 -15 15 0 30 -5 34 -11
5 -8 -37 -10 -155 -7 -155 4 -161 3 -168 -17 -10 -29 -9 -94 1 -88 4 3 6 21 3
39 -4 20 -2 34 5 34 6 0 9 -18 7 -44 -2 -24 -2 -43 0 -41 2 3 13 -1 25 -7 21
-11 21 -10 3 10 -11 12 -17 31 -15 49 3 25 7 28 41 28 26 1 36 -3 33 -12 -3
-7 -1 -15 3 -18 5 -2 11 4 14 16 4 14 -1 22 -16 28 -13 5 12 6 58 3 85 -5 97
-8 76 -21 -10 -7 -10 -9 2 -14 8 -3 20 0 27 6 9 9 11 9 7 1 -4 -7 2 -23 14
-35 17 -21 18 -21 8 -3 -19 33 -5 54 35 54 28 0 35 -4 40 -25 4 -16 11 -22 21
-19 8 4 12 10 9 15 -3 5 -10 7 -15 4 -13 -9 -11 19 3 33 15 15 62 16 53 2 -4
-6 -11 -8 -16 -5 -5 4 -5 -5 1 -20 8 -20 6 -27 -5 -31 -7 -3 -17 -19 -20 -36
-5 -23 -9 -27 -16 -17 -7 11 -9 10 -10 -3 -2 -27 -4 -32 -12 -45 -6 -9 -3 -11
7 -7 9 3 16 10 16 15 0 5 6 8 13 7 7 -2 11 6 9 19 -4 29 15 63 35 63 13 0 14
2 2 17 -12 14 -12 16 1 11 35 -13 80 28 51 46 -5 4 -7 -2 -4 -13 3 -12 -2 -20
-16 -24 -17 -4 -21 -1 -21 20 0 13 4 22 9 19 5 -4 11 -1 13 5 5 14 38 0 38
-17 0 -8 4 -14 9 -14 5 0 7 8 4 18 -5 22 19 45 40 36 17 -6 31 -44 16 -44 -5
0 -9 8 -10 18 0 11 -2 12 -6 4 -3 -7 3 -22 12 -32 10 -11 15 -26 12 -34 -4 -9
0 -13 11 -11 9 2 20 4 24 4 3 1 4 9 2 19 -7 27 11 48 29 34 11 -9 13 -8 12 6
-2 31 -15 44 -31 31 -7 -6 -12 -15 -9 -19 3 -5 1 -11 -5 -15 -5 -3 -10 -18
-11 -33 0 -24 -1 -25 -8 -7 -5 11 -8 35 -7 54 1 31 5 35 44 46 39 12 42 12 42
-7 0 -11 4 -16 11 -13 6 4 8 14 5 22 -3 8 -1 11 4 8 17 -10 11 -32 -12 -47
-17 -12 -19 -18 -10 -34 11 -18 11 -18 12 4 0 13 4 20 10 17 6 -4 7 -12 3 -18
-4 -7 0 -6 10 2 18 14 23 26 8 16 -5 -3 -12 -1 -15 4 -9 15 14 25 27 12 9 -9
8 -16 -1 -31 -14 -23 -5 -25 22 -5 11 8 14 15 8 15 -7 0 -12 9 -12 20 0 11 -6
19 -12 17 -7 -1 -13 6 -13 16 0 9 5 17 10 16 6 -1 9 -6 7 -12 -2 -7 9 0 25 16
16 15 34 27 41 27 12 0 13 -3 16 -39 0 -11 5 -23 9 -28 5 -4 8 -3 7 2 -5 21 1
29 10 15 8 -12 10 -12 10 -1 0 8 -7 19 -17 26 -20 15 -9 35 20 35 19 0 19 -1
4 -12 -16 -12 -15 -13 9 -15 15 0 30 -7 35 -15 6 -9 9 -3 9 17 0 22 -3 26 -10
15 -5 -8 -12 -11 -15 -8 -10 10 4 28 21 28 8 0 14 -7 14 -15 0 -8 7 -15 15
-15 8 0 15 -8 15 -17 0 -11 7 -4 18 17 23 41 43 51 37 17 -3 -16 0 -24 10 -24
7 0 14 3 13 6 -2 25 5 41 18 41 12 0 14 -3 6 -13 -16 -18 -1 -39 16 -21 7 7
12 17 12 21 -1 5 7 10 16 12 12 2 15 -2 11 -13 -5 -12 0 -16 23 -16 17 0 30 4
30 9 0 4 12 6 26 3 19 -3 24 -9 21 -23 -5 -18 -4 -18 24 -2 24 14 31 15 38 5
4 -7 12 -12 17 -11 5 1 18 1 29 0 14 -1 16 -4 7 -9 -8 -6 -2 -9 18 -9 17 0 36
-6 43 -13 9 -10 9 -11 0 -6 -9 5 -11 2 -7 -8 3 -8 12 -12 19 -10 8 3 34 -13
59 -36 25 -24 46 -38 46 -32 0 16 -88 101 -124 119 -17 8 -38 21 -46 28 -31
25 -164 55 -245 55 -92 0 -296 -31 -405 -62 -41 -11 -87 -20 -102 -20 -16 0
-28 -4 -28 -11 0 -6 -7 -2 -16 9 -11 13 -14 14 -11 3 3 -9 -1 -16 -9 -16 -8 0
-14 8 -14 18 0 10 -4 20 -9 23 -5 4 -7 -3 -4 -14 3 -12 0 -20 -6 -20 -7 0 -9
6 -5 13 5 9 4 9 -6 0 -11 -10 -17 -10 -31 3 -17 15 -18 15 -16 -4 0 -11 4 -19
8 -16 4 2 15 1 25 -3 16 -6 16 -7 -2 -14 -38 -15 -54 -10 -54 16 0 19 -5 25
-17 23 -15 -2 -18 4 -18 34 0 20 -6 43 -12 49 -11 11 -13 10 -13 0 0 -7 -5 -9
-12 -5 -7 4 -8 3 -4 -5 4 -6 12 -8 18 -5 7 5 9 -2 6 -20 -3 -15 -1 -26 6 -26
6 0 4 -5 -4 -10 -10 -6 -17 -4 -24 8 -5 9 -13 19 -17 22 -5 3 -10 17 -11 30
-2 20 1 25 17 23 11 -1 35 10 53 23 l32 25 30 -24 c45 -38 93 -50 185 -45 100
5 173 37 233 102 79 85 79 218 1 260 -24 13 -42 17 -55 11 -19 -8 -19 -8 1
-13 31 -7 64 -32 71 -55 13 -39 13 -70 1 -91 -6 -12 -10 -24 -9 -28 1 -5 -4
-8 -12 -8 -8 0 -16 -7 -19 -14 -3 -8 -21 -23 -39 -32 -18 -9 -39 -25 -46 -36
-11 -15 -17 -16 -34 -7 -14 8 -23 8 -27 1 -3 -6 -23 -9 -44 -8 -42 4 -43 3
-21 -19 14 -13 14 -19 4 -28 -10 -9 -11 -9 -6 1 8 14 -12 16 -33 3 -11 -7 -10
-11 5 -20 17 -9 17 -10 2 -11 -25 0 -34 21 -15 35 19 14 22 40 7 50 -5 3 -10
1 -10 -5 0 -14 -48 14 -96 56 l-36 33 12 68 c7 37 18 82 25 100 14 34 48 58
71 49 8 -3 14 -1 14 3 0 14 -23 19 -47 10 -29 -11 -52 -48 -78 -126 l-21 -65
-55 64 c-31 37 -62 64 -71 62 -9 -1 -18 6 -21 15 -6 26 -138 72 -224 78 -40 3
-73 2 -73 -2z"/>
<path d="M2913 2329 c-10 -10 -6 -18 17 -41 38 -36 48 -74 26 -96 -16 -16 -18
-15 -34 6 -16 21 -152 72 -192 72 -8 0 -25 -17 -37 -38 l-21 -38 48 24 49 24
46 -32 c41 -28 45 -29 35 -10 -6 12 -9 24 -6 27 9 9 74 -37 96 -66 17 -25 18
-35 10 -85 -5 -31 -12 -61 -15 -66 -15 -25 -25 -5 -25 48 0 63 -18 92 -55 92
-11 0 -39 7 -62 16 -24 9 -45 15 -47 13 -2 -2 -6 -18 -9 -35 -5 -28 -4 -31 13
-27 11 3 20 0 20 -6 0 -6 -9 -11 -20 -11 -31 0 -23 -28 10 -35 16 -4 32 -11
35 -16 8 -12 -7 -12 -39 1 -24 9 -26 7 -27 -18 0 -24 -1 -24 -8 -7 -31 76 -31
88 -9 112 27 29 22 34 -24 20 -32 -10 -37 -15 -40 -50 -3 -34 1 -43 37 -76 22
-20 56 -43 75 -50 76 -28 77 -30 23 -30 -71 -1 -94 10 -127 59 -17 27 -31 39
-37 33 -13 -13 0 -44 44 -113 51 -79 53 -80 102 -80 35 0 45 -4 50 -21 l7 -21
24 23 c35 32 17 44 -69 44 -56 0 -72 3 -75 15 -2 12 13 18 64 27 36 6 90 24
120 38 31 15 58 24 61 21 4 -3 1 -17 -5 -32 -7 -14 -8 -23 -3 -20 4 3 14 20
22 38 7 18 20 39 29 48 12 12 16 34 16 84 -1 61 1 66 19 64 11 -2 25 -14 32
-28 l13 -25 0 26 c0 22 -8 31 -45 48 -28 13 -45 28 -45 39 0 35 -21 92 -35 92
-7 0 -15 7 -17 16 -2 12 -6 13 -15 3z"/>
<path d="M1844 2259 c-15 -8 -19 -18 -16 -38 2 -17 -3 -34 -13 -44 -9 -9 -13
-21 -10 -27 3 -5 0 -10 -8 -10 -10 0 -13 -8 -9 -26 3 -19 1 -25 -7 -20 -6 4
-11 2 -11 -4 0 -7 -12 -9 -29 -7 -20 3 -31 0 -35 -9 -6 -16 -46 -19 -46 -3 0
5 6 7 13 4 6 -4 3 1 -7 9 -18 14 -15 21 7 17 5 -1 6 3 2 9 -9 14 7 13 30 -3
17 -11 23 -10 41 9 12 13 20 25 17 27 -2 3 0 22 6 43 12 42 9 49 -15 40 -12
-5 -13 -10 -6 -19 14 -17 4 -57 -14 -57 -8 0 -14 -4 -14 -10 0 -5 8 -6 18 -3
14 6 15 4 4 -9 -7 -9 -21 -14 -32 -11 -22 6 -26 18 -10 28 6 3 10 11 10 16 0
6 -11 -2 -24 -18 -21 -25 -25 -26 -42 -13 -18 14 -18 14 -4 -4 14 -18 13 -19
-4 -13 -10 4 -25 2 -32 -4 -7 -6 -17 -8 -22 -5 -5 3 -8 -5 -7 -17 4 -32 4 -33
20 -11 15 19 15 19 9 -1 -5 -16 -4 -17 4 -5 6 8 9 17 6 21 -2 4 0 10 5 14 12
7 34 -31 27 -44 -3 -5 -18 -11 -33 -14 -16 -3 -36 -9 -45 -12 -14 -6 -16 -2
-13 22 2 15 4 38 4 51 1 13 5 21 9 18 4 -2 8 4 9 14 3 41 -303 61 -407 26 -99
-34 -220 -104 -220 -127 0 -5 10 -9 23 -9 16 0 18 3 8 9 -10 7 -5 11 17 16 18
3 30 10 29 15 -1 4 3 9 8 9 6 1 21 9 34 17 12 9 32 14 42 11 10 -3 19 -1 19 5
0 10 17 8 53 -7 14 -6 16 -4 10 11 -5 14 -3 16 11 11 10 -4 15 -3 11 3 -8 14
18 13 32 -1 6 -6 17 -8 23 -4 9 6 9 10 -1 16 -11 7 -11 9 -1 9 7 0 15 -7 18
-15 4 -8 10 -15 15 -15 4 0 6 7 3 15 -9 22 22 19 32 -2 4 -10 6 -21 6 -25 -1
-5 2 -8 8 -8 5 0 10 9 10 20 0 11 -5 20 -11 20 -5 0 -8 4 -4 10 9 15 30 1 43
-28 l12 -27 -5 27 c-5 25 -3 27 31 25 19 -2 39 -9 44 -17 7 -10 10 -11 10 -2
0 16 31 15 54 -1 15 -11 17 -17 7 -35 -6 -12 -19 -22 -28 -22 -12 0 -14 7 -9
30 3 18 1 30 -5 30 -6 0 -7 -4 -4 -10 3 -5 -1 -10 -9 -10 -9 0 -16 -4 -16 -10
0 -5 5 -10 10 -10 6 0 10 -6 10 -14 0 -8 7 -16 15 -20 22 -8 18 -29 -5 -23
-10 3 -21 0 -24 -7 -2 -6 -5 -3 -5 7 -1 9 -8 17 -16 17 -16 0 -20 21 -7 34 17
17 2 46 -23 46 -5 0 -4 -4 4 -9 12 -8 13 -14 3 -36 -7 -14 -16 -24 -21 -21 -5
3 -12 -2 -15 -11 -6 -15 -8 -15 -16 -3 -6 8 -10 10 -10 4 0 -6 7 -17 15 -24
21 -18 19 -40 -5 -40 -11 0 -20 6 -20 13 0 6 -11 17 -25 23 -18 9 -24 9 -22 0
1 -6 10 -14 20 -18 10 -4 15 -12 12 -18 -10 -16 -43 -11 -48 8 -4 13 -5 11 -6
-5 -1 -26 -16 -31 -25 -8 -3 8 -1 15 4 15 6 0 10 7 10 15 0 8 -5 15 -10 15 -6
0 -9 -3 -8 -7 4 -13 -26 -53 -40 -53 -10 0 -10 5 -2 20 10 19 9 20 -14 14 -17
-4 -26 -2 -26 6 0 7 -5 6 -15 -4 -8 -8 -15 -19 -15 -25 0 -6 -7 -11 -16 -11
-11 0 -14 5 -10 16 4 10 1 14 -6 11 -7 -2 -26 0 -41 4 -25 7 -27 6 -17 -7 11
-12 9 -14 -11 -10 -13 3 -28 5 -33 5 -4 1 -5 8 -2 17 5 12 2 15 -11 9 -37 -15
-53 -17 -53 -6 0 5 -6 8 -14 5 -7 -3 -16 1 -19 9 -3 8 -17 12 -36 11 -17 -1
-34 2 -37 7 -3 5 0 9 7 9 20 0 1 14 -24 17 -12 2 -36 20 -54 41 -17 20 -35 34
-39 29 -11 -10 61 -83 121 -121 51 -33 158 -70 231 -81 60 -9 229 12 384 47
175 39 220 47 220 36 0 -5 5 -6 10 -3 6 4 7 11 4 17 -4 6 -1 9 7 6 8 -3 14
-14 13 -26 0 -12 3 -19 8 -16 4 3 8 12 8 20 0 8 5 14 11 14 5 0 7 -5 3 -12 -4
-7 -3 -8 4 -4 7 4 18 4 25 -1 16 -11 57 -11 57 0 0 4 4 6 9 3 5 -3 8 -22 7
-42 -1 -19 3 -39 9 -43 15 -12 42 -9 42 5 0 7 -8 11 -18 9 -13 -3 -18 3 -17
23 0 15 -7 41 -16 57 -15 27 -15 30 0 33 9 2 21 -1 27 -7 6 -6 20 -11 30 -11
17 0 18 -2 6 -17 -13 -15 -11 -15 13 1 25 17 27 16 33 -3 3 -12 3 -25 0 -31
-9 -15 4 -12 21 4 11 11 11 16 1 20 -6 3 2 4 18 3 27 -2 30 -6 30 -34 0 -17 3
-29 7 -26 5 2 8 15 8 29 0 27 9 30 29 12 11 -10 13 -10 7 0 -9 16 26 16 42 0
9 -9 12 -6 12 15 0 21 -5 27 -22 27 -12 0 -61 8 -110 17 -107 20 -94 31 37 32
62 1 85 4 75 11 -8 5 -37 10 -65 10 -55 1 -73 11 -94 53 -8 15 -19 27 -24 27
-5 0 -4 -7 3 -14 6 -8 10 -25 8 -38 -3 -19 -9 -23 -45 -23 -23 0 -45 -4 -49
-8 -11 -11 -56 -8 -49 3 4 6 11 8 16 5 5 -4 6 3 1 17 -7 17 -3 31 14 56 14 20
24 28 27 20 3 -7 6 1 6 19 1 17 7 34 14 36 8 4 7 5 -3 6 -8 0 -24 -5 -36 -10z"/>
<path d="M2360 2140 c0 -5 5 -30 12 -54 8 -32 9 -51 1 -68 -10 -22 -9 -23 36
-20 43 2 47 0 68 -32 11 -19 28 -59 37 -89 15 -52 40 -87 53 -74 3 4 -2 18
-11 31 -23 36 -13 53 32 48 l37 -3 -35 28 c-63 51 -78 72 -88 130 -5 31 -7 65
-5 77 5 21 5 21 -10 1 -25 -34 -29 -62 -12 -79 15 -15 14 -16 -13 -16 -36 0
-44 10 -66 78 -10 28 -22 52 -27 52 -5 0 -9 -4 -9 -10z"/>
<path d="M4225 2130 c-4 -6 -11 -8 -16 -5 -5 4 -9 1 -9 -4 0 -6 5 -11 11 -11
7 0 9 -12 5 -34 -4 -20 -2 -37 4 -41 15 -9 12 -25 -5 -25 -8 0 -15 7 -15 15 0
8 -4 15 -10 15 -5 0 -10 -7 -10 -15 0 -16 -12 -20 -24 -7 -13 12 -73 9 -73 -4
0 -17 97 -34 227 -41 83 -4 118 -2 165 12 112 32 260 119 233 136 -7 5 -20 9
-28 9 -12 0 -13 -2 -1 -9 10 -7 8 -10 -10 -16 -13 -4 -34 -16 -46 -27 -12 -12
-27 -17 -34 -13 -8 5 -10 4 -5 -3 7 -11 -11 -17 -41 -13 -7 1 -13 -3 -13 -9 0
-5 -4 -10 -10 -10 -5 0 -10 6 -10 13 0 6 -11 12 -25 12 -30 0 -29 1 -9 -19 14
-15 14 -16 0 -16 -9 0 -16 5 -16 10 0 6 -5 10 -11 10 -5 0 -7 -4 -4 -10 3 -5
-1 -10 -9 -10 -8 0 -18 5 -22 12 -5 7 -11 5 -21 -7 -7 -11 -13 -13 -13 -7 0 7
-4 12 -10 12 -5 0 -7 -7 -4 -15 4 -9 0 -15 -10 -15 -9 0 -16 6 -16 14 0 7 -6
19 -14 25 -10 9 -15 8 -20 -4 -3 -8 -1 -15 4 -15 6 0 10 -4 10 -10 0 -20 -18
-9 -38 22 -20 31 -20 31 -19 6 1 -15 6 -24 11 -20 5 3 6 0 2 -6 -11 -18 -22
-14 -41 14 -12 19 -13 29 -5 38 6 8 9 28 8 45 -2 34 -4 36 -13 21z"/>
<path d="M3585 2030 c4 -6 10 -8 15 -5 11 7 18 -51 8 -69 -5 -9 -15 -16 -22
-16 -8 0 -16 -9 -19 -21 -3 -12 -10 -18 -16 -14 -7 3 -11 -2 -11 -14 0 -12 5
-21 10 -21 6 0 10 -6 10 -13 0 -14 -39 -41 -48 -33 -3 3 1 6 8 6 7 0 10 3 7 6
-4 4 -13 1 -21 -5 -12 -10 -16 -7 -21 22 -4 21 -2 44 6 58 11 21 10 23 -3 11
-12 -10 -18 -9 -28 3 -7 8 -16 12 -21 9 -5 -3 -3 -11 4 -18 6 -8 15 -12 20 -9
4 2 7 -19 7 -46 0 -31 4 -51 11 -51 6 0 9 -6 6 -14 -3 -8 -1 -17 6 -20 8 -3 4
-11 -10 -22 -13 -9 -23 -21 -23 -26 0 -5 7 -2 16 7 20 20 32 11 14 -10 -8 -9
-9 -15 -2 -15 6 0 15 6 19 13 12 19 50 37 77 37 14 0 28 5 31 10 3 6 12 10 18
9 9 0 8 -2 -1 -6 -17 -7 -5 -23 19 -23 28 0 15 -17 -33 -41 -26 -13 -55 -19
-84 -18 -51 3 -64 -5 -35 -21 12 -6 21 -20 21 -30 0 -26 13 -25 25 2 10 21 37
38 34 21 -4 -23 2 -43 12 -38 6 4 8 10 5 13 -3 3 3 12 14 19 11 8 18 18 15 23
-3 5 11 14 30 20 19 6 46 26 61 43 14 18 23 27 20 20 -7 -13 28 -85 50 -104 8
-6 14 -20 14 -30 0 -10 3 -20 8 -23 16 -10 4 -78 -20 -103 -19 -20 -29 -24
-57 -19 -32 5 -33 4 -19 -11 12 -11 26 -14 52 -9 48 9 78 53 84 122 4 43 0 61
-23 103 -27 49 -45 65 -45 38 0 -7 7 -22 15 -34 10 -14 12 -24 5 -28 -5 -3
-10 0 -10 8 0 8 -9 24 -20 37 -11 13 -20 26 -20 30 0 14 39 55 40 43 0 -7 -4
-13 -9 -13 -5 0 -12 -8 -15 -17 -6 -16 -6 -16 12 0 10 9 24 17 30 17 8 0 10 9
6 24 -4 18 -1 27 14 35 26 14 35 14 27 1 -3 -5 1 -10 10 -10 11 0 15 -5 11
-16 -3 -8 -2 -12 4 -9 6 3 7 17 4 31 -6 23 -4 25 22 21 15 -2 30 -9 32 -15 5
-15 -3 -15 -31 -1 -20 9 -21 9 -4 -4 10 -8 14 -17 10 -19 -4 -3 -2 -3 6 -1 8
2 24 -3 37 -12 22 -14 23 -14 17 2 -3 10 -3 15 1 12 4 -4 8 -16 11 -28 2 -11
7 -27 12 -34 4 -6 8 -16 9 -22 6 -38 49 -157 70 -192 20 -35 30 -43 54 -43 17
0 30 5 30 11 0 6 -6 9 -14 6 -21 -8 -63 28 -75 66 -5 17 -17 70 -26 117 -20
99 -33 128 -75 163 -62 53 -131 45 -214 -23 -26 -22 -53 -40 -60 -40 -7 0 -6
3 2 9 10 6 4 12 -19 21 l-32 14 62 21 c53 17 61 23 48 33 -18 15 -11 51 14 72
16 13 16 17 3 29 -13 11 -15 11 -12 0 1 -8 -6 -26 -16 -41 -12 -18 -15 -35
-10 -50 6 -20 5 -21 -10 -9 -13 11 -16 11 -17 0 -1 -8 -1 -17 0 -21 0 -5 -10
-8 -24 -8 -21 0 -25 5 -25 30 0 17 9 38 22 50 12 11 17 20 11 20 -14 0 -43
-28 -43 -40 0 -5 -6 -7 -12 -5 -9 4 -13 -5 -13 -24 0 -21 4 -27 15 -23 8 2 4
-4 -10 -14 -14 -10 -29 -19 -35 -19 -29 -1 -34 67 -7 87 10 7 24 22 30 33 6
11 12 14 12 8 0 -7 5 -13 10 -13 6 0 3 11 -5 24 -13 19 -14 29 -5 45 10 19 8
21 -20 21 -19 0 -29 -4 -25 -10z"/>
<path d="M1929 2004 c-1 -5 -1 -12 0 -16 0 -5 -7 -8 -16 -8 -17 -1 -17 -1 0
-11 9 -5 17 -21 17 -34 0 -19 -5 -25 -22 -25 -13 0 -36 -11 -53 -24 l-30 -24
-32 29 c-118 103 -386 35 -454 -116 -21 -45 -25 -126 -8 -158 26 -48 96 -76
115 -46 4 7 0 9 -14 5 -14 -5 -28 2 -50 23 -26 27 -30 36 -26 78 2 27 4 56 4
66 1 12 6 17 15 13 7 -2 20 5 28 18 9 13 29 29 46 36 17 7 31 19 31 27 0 10 8
13 29 10 16 -3 44 -2 62 2 19 4 44 3 56 -2 27 -12 64 10 41 24 -19 13 -26 11
-30 -8 -3 -15 -4 -15 -20 1 -24 23 -23 40 1 27 23 -13 35 -3 19 16 -14 17 -6
25 16 17 11 -4 15 -13 10 -26 -4 -15 -2 -19 7 -16 8 3 23 1 34 -5 16 -8 18 -7
8 4 -18 19 -16 29 5 22 17 -6 42 -31 42 -43 0 -4 -13 -7 -29 -6 -16 1 -27 5
-24 10 3 5 0 7 -8 4 -23 -8 -16 -28 15 -46 16 -9 42 -30 57 -47 22 -23 28 -26
29 -13 0 9 4 19 9 22 5 4 7 -4 3 -16 -3 -13 -11 -26 -17 -30 -7 -4 -16 -29
-20 -55 -10 -73 -39 -131 -69 -139 -14 -3 -31 -2 -38 2 -9 6 -9 3 1 -10 35
-42 94 18 125 127 l17 58 22 -27 c12 -14 34 -40 50 -57 15 -16 27 -34 27 -40
0 -5 11 -7 25 -5 13 3 22 2 20 -2 -14 -22 135 -89 198 -90 l29 0 -26 31 -26
31 22 28 c25 29 42 30 33 0 -3 -10 0 -29 6 -44 9 -20 9 -29 0 -40 -7 -8 -10
-20 -6 -25 3 -6 -17 -34 -45 -62 -38 -38 -43 -46 -20 -33 16 10 41 28 54 41
26 24 63 32 50 11 -5 -8 -2 -9 11 -5 9 4 24 2 32 -5 22 -18 50 -20 50 -3 0 10
-5 11 -18 4 -14 -7 -21 -5 -31 11 -7 11 -23 20 -35 20 -16 0 -23 6 -23 20 0
13 7 20 20 20 11 0 20 -7 20 -15 0 -8 5 -15 10 -15 7 0 7 6 0 19 -18 35 -13
54 14 49 18 -4 23 -1 19 9 -3 8 -14 13 -24 10 -11 -3 -17 -2 -14 3 3 4 -2 11
-11 14 -13 5 -15 1 -12 -19 3 -14 2 -25 -2 -25 -9 0 -20 25 -20 43 0 15 56 41
69 33 5 -3 12 1 15 10 3 8 10 13 15 9 5 -3 12 -1 16 5 3 5 -1 10 -9 10 -8 0
-18 -4 -21 -10 -3 -5 -11 -10 -16 -10 -6 0 -7 6 -3 13 6 9 4 9 -8 -1 -11 -9
-18 -10 -23 -2 -11 17 -25 11 -25 -12 0 -17 -3 -19 -12 -10 -9 9 -9 15 0 24 7
7 12 21 12 33 0 11 4 16 8 10 9 -12 72 -15 72 -4 0 5 -6 10 -12 10 -7 1 -20 2
-28 3 -16 1 -16 6 -2 74 7 33 6 42 -4 42 -19 0 -55 21 -71 40 -10 13 -13 12
-21 -10 -5 -13 -8 -43 -7 -65 2 -22 -2 -46 -7 -53 -8 -9 -7 -11 7 -6 15 6 17
3 13 -19 -3 -15 -1 -27 4 -27 5 0 7 -4 4 -9 -4 -5 0 -12 6 -15 7 -3 2 -3 -11
0 -14 4 -21 2 -17 -4 3 -5 -3 -19 -13 -31 -29 -33 -36 -7 -10 31 16 22 19 33
11 36 -7 2 -10 8 -6 13 3 5 0 9 -6 9 -7 0 -10 6 -7 13 2 6 -3 17 -12 24 -11 9
-12 12 -3 13 7 0 10 5 6 11 -4 8 -9 7 -15 -2 -4 -7 -11 -10 -15 -6 -4 3 -1 14
6 23 11 13 11 17 1 24 -9 5 -10 10 -3 14 6 4 9 13 5 21 -6 18 8 19 27 3 8 -7
6 -3 -5 10 -11 14 -22 19 -28 13 -14 -14 -43 21 -40 49 1 14 0 17 -3 8 -8 -26
-24 -22 -24 6 0 13 -7 29 -15 36 -8 7 -12 16 -9 21 3 5 -2 6 -11 3 -14 -6 -13
-9 4 -26 25 -23 28 -68 5 -68 -13 0 -14 -3 -5 -13 6 -8 8 -17 4 -20 -3 -4 -1
-7 6 -7 7 0 9 -5 5 -11 -6 -11 -29 20 -34 46 -1 6 -6 15 -11 21 -4 6 -11 32
-13 58 -4 44 -14 73 -17 50z"/>
<path d="M3364 1811 c16 -17 16 -19 0 -25 -15 -6 -15 -8 -1 -24 11 -12 13 -22
7 -32 -8 -13 -10 -12 -10 3 0 20 -13 22 -42 6 l-21 -11 23 -13 c13 -7 24 -22
25 -33 1 -12 -2 -19 -7 -16 -5 4 -7 13 -3 23 5 13 4 13 -6 4 -21 -21 -19 -43
3 -43 14 0 19 -6 16 -21 -4 -29 -40 -42 -65 -24 -17 13 -17 14 5 35 28 26 28
27 -6 32 -18 2 -29 0 -29 -8 0 -7 7 -10 16 -6 13 4 12 1 -3 -16 -19 -22 -19
-22 3 -41 14 -12 18 -22 11 -26 -5 -3 -17 1 -26 10 -17 16 -95 18 -94 2 0 -4
-6 -23 -14 -42 -11 -26 -12 -35 -3 -35 7 0 6 -4 -3 -10 -12 -7 -12 -12 -2 -22
29 -29 -2 -129 -63 -196 l-44 -47 4 37 c2 21 0 36 -4 34 -10 -6 -46 23 -38 31
4 4 13 1 19 -5 16 -16 25 -15 32 4 4 9 2 13 -5 8 -6 -4 -15 0 -20 7 -7 11 -13
11 -38 -4 -16 -9 -37 -17 -48 -18 -13 -1 -11 -3 7 -8 17 -5 24 -14 23 -27 -1
-10 10 -34 24 -52 l25 -34 -25 -26 c-37 -39 -49 -77 -48 -162 0 -86 10 -124
45 -185 54 -92 150 -143 239 -128 61 10 111 80 83 118 -13 19 -14 18 -9 -6 7
-40 -39 -79 -93 -79 -23 0 -46 5 -49 10 -4 6 -16 8 -27 4 -14 -4 -18 -2 -14 5
4 6 -4 22 -18 35 -14 13 -26 27 -26 32 0 5 -12 19 -27 33 -17 14 -23 25 -16
28 8 3 9 13 2 35 -4 17 -6 34 -4 39 3 4 1 10 -4 14 -7 4 -7 15 0 32 7 18 6 28
-1 33 -5 3 -9 18 -8 32 1 15 5 25 9 22 4 -2 5 -14 2 -27 -3 -13 6 -4 20 20 14
24 37 53 51 67 26 24 35 43 14 30 -7 -4 -8 -3 -4 4 10 17 26 15 26 -2 0 -9 16
-17 43 -21 114 -17 176 -57 161 -101 -5 -15 -4 -16 5 -8 38 35 -20 93 -121
121 -32 9 -58 20 -58 25 0 4 5 8 11 8 5 0 8 4 5 9 -3 5 7 14 23 21 21 8 28 17
24 28 -4 9 -2 13 4 9 16 -10 64 39 57 58 -4 10 -2 15 7 13 7 -2 24 18 39 44
27 50 47 74 37 46 -4 -10 -2 -18 3 -18 6 0 10 -10 10 -22 0 -23 90 -118 112
-118 7 0 0 8 -15 19 -25 16 -72 75 -76 94 0 4 -1 8 -2 10 -1 1 -2 22 -4 47 -2
25 -1 39 2 33 2 -7 17 -13 31 -14 26 0 26 -1 5 -9 -13 -5 -23 -12 -23 -14 0
-6 63 14 74 25 5 4 15 5 22 2 8 -3 14 0 14 6 0 20 95 -29 129 -67 l34 -37 -19
34 c-41 72 -125 105 -209 82 -21 -6 -41 -8 -44 -6 -8 9 -5 77 5 83 5 4 9 16 9
27 0 12 6 19 14 17 11 -2 12 0 3 10 -11 14 -11 42 0 54 4 3 2 17 -3 31 -5 14
-7 29 -3 34 3 5 0 9 -6 9 -7 0 -10 6 -7 13 3 7 -8 22 -24 33 -16 10 -29 22
-29 27 0 4 -5 7 -12 7 -6 0 -4 -8 6 -19z"/>
<path d="M2389 1565 c-1 -3 -2 -11 -3 -17 -1 -8 -15 -13 -33 -13 -24 0 -29 -3
-21 -12 6 -7 14 -11 18 -8 4 2 15 -4 25 -15 17 -18 16 -19 -9 -26 l-26 -6 20
-18 c12 -10 30 -24 42 -32 29 -19 17 -57 -17 -53 -20 2 -23 -1 -15 -15 5 -10
6 -21 2 -25 -4 -5 -2 -5 4 -2 6 3 21 -1 33 -9 22 -16 22 -16 -36 -45 -71 -36
-122 -38 -150 -6 -28 30 -36 57 -22 73 8 10 8 14 0 14 -16 0 -25 -49 -15 -79
6 -16 26 -35 54 -49 59 -30 123 -26 181 12 37 25 42 26 58 12 11 -10 26 -13
41 -9 21 6 22 5 9 -9 -7 -9 -18 -13 -24 -10 -5 3 -1 -5 10 -18 11 -13 14 -20
8 -16 -7 4 -13 2 -13 -4 0 -6 7 -13 15 -16 8 -4 15 -10 15 -16 0 -5 -4 -7 -9
-4 -5 4 -7 -2 -4 -12 4 -18 -35 -78 -45 -68 -3 3 -10 2 -16 -3 -6 -5 -49 -21
-96 -35 -99 -30 -147 -57 -159 -89 -9 -24 -4 -47 10 -47 4 0 6 7 3 15 -9 23
22 62 58 74 18 5 71 18 118 27 91 17 163 51 181 86 36 67 28 127 -27 195 l-34
41 17 39 c13 29 18 34 21 19 3 -14 6 -16 12 -6 12 20 71 16 86 -5 12 -16 14
-16 14 -3 0 9 -9 20 -20 23 -11 3 -20 13 -20 21 0 13 -4 12 -30 -1 -27 -14
-30 -14 -30 0 0 10 5 13 12 9 7 -4 8 -3 4 5 -4 6 -12 9 -17 6 -14 -9 -23 23
-11 38 14 17 -2 42 -22 34 -9 -4 -28 5 -48 23 -17 16 -33 28 -35 26 -2 -1 4
-22 12 -46 17 -48 20 -94 5 -85 -6 3 -7 -1 -4 -9 3 -9 10 -16 15 -16 5 0 9 -4
9 -9 0 -5 -8 -7 -18 -4 -22 5 -52 53 -52 81 0 24 16 38 23 20 3 -7 6 0 6 16 1
28 0 28 -18 12 -16 -15 -19 -15 -24 -2 -4 10 2 20 13 26 28 15 25 30 -5 30
-14 0 -26 -2 -26 -5z"/>
<path d="M2585 1490 c3 -5 15 -10 26 -10 10 0 24 -9 31 -20 7 -11 19 -20 26
-20 8 0 12 -6 8 -15 -4 -12 -2 -13 14 -3 21 13 70 -2 70 -22 0 -6 -4 -9 -9 -6
-5 3 -15 -2 -22 -12 -13 -15 -12 -16 3 -4 15 12 17 11 15 -7 0 -11 -5 -17 -10
-14 -10 6 -61 -26 -53 -34 3 -3 12 0 20 6 27 23 49 9 51 -31 2 -31 0 -38 -15
-38 -22 0 -35 -16 -21 -24 5 -4 12 -2 16 4 12 20 27 10 23 -15 -3 -13 -2 -22
3 -20 4 3 11 0 15 -6 5 -8 1 -10 -12 -7 -10 3 -26 7 -34 9 -8 2 -21 10 -28 17
-7 6 -22 12 -33 12 -11 0 -22 7 -25 15 -4 8 -12 15 -19 15 -32 0 -28 63 3 68
32 5 27 17 -7 17 -16 0 -27 -4 -24 -10 2 -5 -3 -1 -12 10 -17 19 -17 19 -11
-9 11 -45 48 -119 74 -146 l24 -25 -17 28 c-17 26 -17 27 3 27 12 0 30 -10 42
-22 14 -16 20 -18 21 -7 1 8 4 3 8 -11 10 -32 -8 -44 -33 -22 -11 9 -16 11
-12 5 9 -16 1 -16 -25 -3 -10 6 -19 7 -19 3 0 -18 17 -28 45 -28 25 0 30 -4
33 -27 2 -20 -1 -28 -12 -28 -23 0 -28 18 -9 29 10 6 13 11 7 11 -29 0 -33
-26 -10 -61 23 -34 26 -40 26 -60 0 -5 5 -7 10 -4 16 10 50 -5 50 -21 0 -8 5
-14 11 -14 6 0 9 6 6 14 -3 8 -1 17 6 19 7 2 4 3 -5 2 -10 -2 -21 1 -24 6 -3
5 -17 9 -31 9 -40 0 -22 9 30 16 51 5 51 5 61 -53 4 -26 2 -33 -10 -33 -14 0
-14 -3 -4 -15 7 -8 9 -15 4 -15 -5 0 0 -7 10 -15 11 -8 14 -15 7 -15 -7 0 -9
-4 -6 -10 3 -6 1 -10 -5 -10 -6 0 -9 -4 -5 -9 8 -15 -11 -22 -40 -15 -26 6
-34 29 -12 37 9 4 9 8 -2 15 -9 7 -10 11 -2 15 7 3 7 4 -1 3 -7 -2 -12 -11
-12 -20 1 -9 -4 -16 -12 -16 -16 0 -19 26 -4 35 5 3 7 11 4 19 -7 18 27 17 50
-3 18 -15 18 -15 7 7 -7 14 -21 22 -37 22 -14 0 -23 4 -20 9 4 5 -2 8 -11 7
-36 -6 -58 -302 -29 -396 21 -69 60 -151 95 -198 l31 -42 22 20 c22 21 41 19
20 -2 -7 -7 -12 -24 -12 -39 0 -15 -7 -32 -15 -39 -12 -10 -15 -10 -15 0 0 8
-3 10 -6 7 -4 -4 -1 -13 5 -21 9 -11 9 -16 0 -22 -8 -5 -9 -3 -4 7 8 12 6 12
-8 1 -9 -8 -16 -17 -15 -20 4 -13 -24 -55 -51 -78 -14 -12 -23 -25 -19 -29 10
-11 84 62 119 118 19 29 36 54 39 57 3 3 5 10 5 15 1 6 11 41 23 79 14 45 22
93 22 141 0 83 -31 278 -65 411 -13 50 -21 101 -18 114 4 14 2 21 -3 17 -6 -3
-10 5 -10 19 0 16 6 24 17 24 10 0 21 5 24 11 4 6 1 10 -6 8 -26 -3 -39 1 -39
12 0 8 6 7 18 -2 15 -13 16 -12 4 3 -18 23 -5 41 24 35 13 -2 24 0 24 4 0 5
-13 9 -30 9 -16 0 -30 -5 -30 -11 0 -5 -5 -7 -12 -3 -6 4 -8 3 -4 -4 3 -6 3
-13 -2 -16 -4 -2 -9 9 -10 25 -2 24 1 30 15 29 31 -4 44 0 39 9 -3 4 -18 7
-33 5 -24 -4 -25 -3 -8 5 19 9 19 10 -2 10 -13 1 -23 5 -23 10 0 15 29 33 45
27 8 -3 15 -2 15 3 0 5 -9 11 -21 14 -32 8 -22 51 13 55 22 3 26 0 21 -17 -3
-12 -13 -21 -22 -22 -11 0 -10 -3 5 -9 30 -12 37 -26 20 -43 -12 -12 -9 -14
22 -12 30 2 37 7 38 24 1 11 -3 18 -8 15 -4 -3 -6 -10 -3 -15 4 -5 0 -9 -7 -9
-7 0 -19 9 -26 20 -7 12 -8 20 -2 20 5 0 10 8 10 18 0 15 -2 15 -11 2 -8 -12
-10 -12 -8 5 3 39 -1 53 -17 59 -8 3 -12 2 -9 -3 3 -5 1 -12 -5 -16 -11 -7
-13 9 -4 43 4 13 15 22 28 23 17 1 17 2 4 6 -10 2 -18 13 -18 23 0 14 -18 30
-34 30 -2 0 -8 -33 -15 -72 -20 -123 -23 -130 -32 -78 -4 25 -8 71 -8 103 -1
31 -5 57 -11 57 -10 0 -14 -14 -11 -39 2 -7 -2 -10 -8 -6 -6 3 -11 1 -11 -4 0
-6 -15 -11 -32 -10 -26 0 -29 2 -14 8 19 7 19 8 -2 13 -12 4 -20 2 -16 -3 10
-17 -8 -9 -38 16 -29 25 -65 35 -53 15z m199 -669 c3 -5 15 -7 25 -4 24 6 41
-35 20 -48 -12 -7 -12 -9 0 -9 8 0 19 7 26 17 15 20 35 9 35 -20 0 -20 0 -20
-15 -1 -8 10 -15 15 -14 9 3 -14 -13 -49 -25 -57 -6 -4 2 -8 18 -8 21 0 27 4
22 15 -3 8 -1 15 3 15 16 0 21 -31 6 -36 -8 -4 -15 -10 -15 -15 0 -4 7 -6 15
-3 10 4 15 0 15 -15 0 -12 -5 -21 -11 -21 -5 0 -7 5 -4 10 4 6 -5 10 -22 9
-17 -1 -21 -3 -10 -6 9 -2 17 -9 17 -14 0 -5 7 -9 15 -9 8 0 15 -7 15 -15 0
-11 -7 -14 -27 -10 -16 3 -22 2 -15 -1 6 -3 9 -11 5 -17 -3 -7 -3 -9 2 -5 11
10 47 -11 39 -24 -4 -7 -9 -6 -15 3 -4 7 -11 11 -14 8 -9 -9 6 -40 16 -33 5 3
9 -2 9 -10 0 -8 -6 -13 -12 -11 -14 6 -17 -38 -4 -67 4 -9 6 -27 4 -39 -3 -21
-4 -22 -19 -6 -16 15 -17 15 -22 -3 -6 -23 -27 -27 -27 -6 0 8 -14 28 -31 45
-33 33 -29 42 5 14 12 -10 8 -3 -8 14 -15 17 -25 36 -22 42 4 6 2 11 -3 11 -6
0 -11 8 -11 18 0 13 2 14 9 3 6 -9 8 -2 6 20 -2 19 -3 40 -4 47 -1 7 -6 10
-11 7 -7 -4 -9 2 -4 19 5 21 3 25 -10 20 -9 -3 -16 -1 -16 5 0 6 7 11 15 11 8
0 15 7 15 15 0 9 -6 12 -16 8 -11 -4 -15 -2 -13 6 3 7 8 12 12 12 4 -1 14 4
21 11 18 17 -3 32 -21 16 -10 -8 -13 -6 -13 6 0 9 5 16 11 16 17 0 40 28 29
35 -5 3 -10 1 -10 -4 0 -6 -7 -11 -15 -11 -22 0 -18 15 8 33 26 19 34 20 41 8z"/>
</g>
</svg>
