<?xml version="1.0" standalone="no"?>
<!DOCTYPE svg PUBLIC "-//W3C//DTD SVG 20010904//EN"
 "http://www.w3.org/TR/2001/REC-SVG-20010904/DTD/svg10.dtd">
<svg version="1.0" xmlns="http://www.w3.org/2000/svg"
 width="422.000000pt" height="393.000000pt" viewBox="0 0 422.000000 393.000000"
 preserveAspectRatio="xMidYMid meet">

<g transform="translate(0.000000,393.000000) scale(0.100000,-0.100000)"
fill="#000000" stroke="none">
<path d="M2093 3893 c-54 -51 -105 -133 -134 -218 -19 -56 -24 -89 -23 -170 1
-105 29 -289 64 -414 12 -41 18 -86 15 -99 -4 -15 -2 -21 5 -17 17 11 11 -7
-7 -21 -17 -12 -16 -13 5 -9 12 2 20 0 17 -6 -4 -5 -15 -9 -26 -9 -10 0 -19
-4 -19 -10 0 -5 9 -10 20 -10 11 0 20 -5 20 -11 0 -5 -4 -8 -9 -5 -5 3 -8 -2
-7 -12 1 -12 -6 -17 -26 -17 -16 1 -28 -3 -28 -7 0 -15 58 -8 64 7 5 15 28 22
24 8 -1 -5 2 -23 6 -40 11 -46 -1 -75 -27 -71 -12 2 -22 9 -22 17 0 18 -73 21
-80 4 -2 -7 0 -13 6 -13 6 0 8 -4 4 -9 -3 -5 0 -13 6 -17 8 -4 9 -3 5 4 -4 7
-1 12 8 12 20 0 20 -14 1 -30 -21 -17 -48 -8 -50 18 -1 12 -12 33 -25 47 l-24
25 22 28 c57 70 73 189 38 290 -25 73 -88 149 -143 174 -67 30 -157 22 -190
-16 -23 -27 -31 -80 -14 -90 5 -4 7 3 4 14 -3 13 5 30 26 51 30 29 35 31 79
25 26 -4 53 -7 60 -8 6 -1 12 -5 12 -9 0 -4 12 -21 28 -38 55 -61 72 -80 72
-86 0 -4 -4 -3 -10 0 -12 8 -13 11 4 -52 8 -28 12 -54 10 -56 -3 -2 -7 -22 -9
-43 -6 -44 -25 -77 -66 -116 -16 -15 -29 -32 -29 -39 0 -8 -5 -7 -12 3 -7 9
-39 21 -70 27 -97 17 -147 55 -131 98 4 14 3 15 -6 7 -21 -19 -8 -57 27 -81
18 -12 63 -32 100 -44 37 -12 60 -25 52 -27 -8 -3 -21 -13 -28 -24 -7 -10 -20
-18 -28 -18 -8 0 -14 -4 -14 -10 0 -12 2 -12 36 0 24 10 26 9 14 -5 -7 -9 -23
-15 -34 -14 -31 4 -66 -22 -66 -48 0 -13 -5 -22 -12 -20 -16 3 -47 -54 -31
-60 7 -2 10 -12 7 -21 -4 -13 -3 -13 6 2 10 14 10 20 0 26 -8 5 -7 11 5 24 20
20 39 20 55 1 7 -8 17 -15 23 -15 6 0 1 9 -12 21 -12 12 -20 23 -18 25 2 2 30
6 61 9 48 4 55 3 44 -9 -7 -7 -23 -12 -35 -10 -17 3 -21 0 -17 -11 3 -8 11
-12 16 -9 6 4 14 0 19 -7 6 -10 9 -11 9 -1 0 6 9 12 20 12 12 0 20 7 20 16 0
21 58 94 75 94 8 0 12 -9 11 -25 -2 -13 1 -22 5 -19 15 9 10 -8 -8 -29 -10
-11 -12 -17 -5 -13 6 4 19 0 27 -8 14 -13 13 -16 -6 -27 -18 -9 -19 -13 -8
-21 10 -7 6 -8 -13 -4 -16 4 -28 2 -28 -4 0 -5 5 -10 12 -10 6 0 8 -3 5 -6 -4
-4 -12 -2 -20 4 -10 8 -13 7 -13 -7 0 -11 6 -17 13 -14 22 8 15 -4 -12 -21
-16 -10 -24 -12 -23 -5 2 7 -15 19 -37 28 -22 8 -43 20 -47 25 -5 8 -8 7 -8 0
0 -15 -50 -25 -50 -10 0 8 -2 8 -8 0 -8 -14 -108 -45 -116 -37 -3 4 -6 23 -6
44 0 40 -40 97 -84 121 -12 7 -4 -8 22 -37 23 -26 39 -51 36 -56 -3 -5 0 -9 5
-9 14 0 10 -52 -5 -67 -9 -9 -14 -9 -24 0 -10 9 -11 9 -6 -1 8 -13 -19 -13
-41 1 -7 5 -13 5 -13 2 0 -10 -63 36 -88 64 -17 19 -20 21 -13 6 22 -46 78
-87 125 -92 45 -5 59 -16 34 -26 -10 -4 -9 -8 2 -16 8 -6 11 -11 5 -11 -5 0
-16 -12 -22 -28 -12 -26 -12 -27 5 -6 9 11 24 31 33 44 18 28 39 20 39 -16 0
-13 4 -24 9 -24 5 0 8 11 5 24 -3 17 1 25 16 29 12 3 23 -1 28 -10 7 -12 10
-12 21 1 8 9 10 16 5 16 -4 0 1 6 12 14 10 8 15 18 11 22 -4 5 -12 2 -16 -5
-5 -7 -14 -10 -20 -7 -6 4 -11 2 -11 -5 0 -10 -3 -10 -12 -1 -16 16 -4 25 37
26 19 1 35 4 35 9 0 4 4 7 10 7 5 0 2 -13 -8 -29 -14 -25 -14 -31 -2 -46 7 -9
22 -14 32 -12 11 3 23 -2 30 -13 13 -20 58 -14 66 9 3 8 0 11 -6 7 -5 -3 -13
2 -16 11 -4 9 -1 20 6 24 10 7 10 11 0 21 -6 6 -12 17 -12 23 0 6 3 7 8 0 27
-38 42 -39 82 -6 22 18 46 31 52 30 28 -3 49 1 44 10 -4 5 0 12 6 14 7 3 3 6
-9 6 -12 1 -24 5 -27 10 -8 12 4 41 16 41 5 0 6 -5 3 -10 -4 -6 5 -5 19 2 14
6 26 14 26 18 0 4 9 10 19 13 16 4 19 0 17 -22 -2 -14 -7 -34 -11 -44 -10 -23
2 -35 18 -17 10 10 9 11 -2 5 -9 -5 -12 -3 -9 6 3 8 12 13 22 11 20 -4 22 26
2 34 -8 3 -12 12 -9 20 3 8 10 11 16 7 6 -4 7 -1 2 7 -6 10 -4 12 11 6 15 -6
16 -5 7 5 -10 9 -15 10 -27 0 -9 -7 -17 -8 -20 -2 -3 5 0 12 6 15 11 5 11 7 0
12 -6 3 -10 10 -7 15 4 5 19 -1 36 -13 29 -22 38 -51 19 -63 -5 -3 -10 -19
-10 -35 0 -16 -6 -35 -14 -43 -13 -12 -12 -16 9 -25 22 -10 25 -9 32 16 3 15
7 45 7 67 1 43 17 65 28 37 4 -9 7 -41 7 -69 1 -54 8 -61 45 -47 13 5 12 9 -6
23 -20 16 -18 48 2 36 5 -3 12 0 16 6 4 7 3 9 -3 6 -6 -4 -13 0 -17 8 -7 19 4
19 34 -2 14 -9 19 -10 13 -3 -10 11 -9 17 4 32 17 19 5 26 -14 7 -17 -17 -46
-6 -50 19 -1 13 0 21 4 19 5 -3 17 -1 28 4 l20 9 -20 -1 c-34 -2 -41 1 -25 11
13 8 12 11 -5 24 -11 9 -16 16 -12 16 4 0 3 9 -3 20 -7 14 -7 20 0 20 5 0 10
-4 10 -10 0 -5 7 -10 15 -10 13 0 21 25 16 53 -1 9 7 9 48 -3 40 -11 44 -9 35
14 -5 12 -10 14 -20 6 -9 -8 -18 -8 -33 0 -23 12 -29 40 -8 40 6 1 1 10 -12
21 -13 11 -26 17 -30 14 -3 -3 -1 -9 5 -13 6 -4 11 -21 12 -39 1 -30 0 -31
-18 -15 -13 10 -16 20 -10 27 6 8 1 11 -18 11 -22 -1 -28 4 -30 24 -2 14 -7
34 -12 45 -16 37 -18 76 -4 82 8 3 11 9 8 14 -3 5 -1 9 4 9 19 0 23 -34 6 -47
-17 -12 -17 -13 2 -14 18 0 18 -1 -1 -10 -19 -9 -19 -9 2 -5 13 2 29 -4 39
-15 19 -21 40 -26 28 -7 -5 8 -2 9 10 5 9 -4 15 -3 12 2 -3 5 -19 11 -36 14
-21 5 -30 12 -30 27 0 22 29 27 48 8 14 -14 18 -6 31 89 15 100 13 249 -3 304
-17 57 -80 181 -99 197 -12 10 -14 7 -13 -16 1 -15 6 -26 13 -25 7 2 10 -4 7
-12 -4 -8 -1 -15 5 -15 6 0 11 -7 11 -16 0 -8 4 -13 8 -10 5 3 8 -8 7 -24 -1
-17 2 -30 7 -30 4 0 8 -8 7 -17 0 -11 -3 -13 -6 -5 -2 6 -9 12 -15 12 -7 0 -6
-5 1 -14 6 -7 9 -22 5 -32 -5 -18 -5 -18 10 0 14 17 16 17 16 4 0 -9 -4 -20
-10 -23 -5 -3 -10 -11 -10 -16 0 -6 4 -8 9 -4 5 3 12 1 16 -5 3 -5 2 -10 -4
-10 -6 0 -10 -15 -9 -34 1 -24 5 -33 15 -29 7 3 13 -2 13 -11 0 -9 -7 -16 -15
-16 -8 0 -15 -7 -15 -16 0 -14 3 -14 15 -4 12 10 15 10 15 -4 0 -9 -5 -16 -11
-16 -6 0 -17 -7 -26 -15 -14 -14 -13 -15 11 -9 32 8 34 -8 3 -29 -14 -9 -35
-13 -51 -10 -20 4 -31 1 -38 -11 -11 -20 -34 -21 -42 0 -8 22 3 37 24 31 12
-3 17 0 14 7 -3 7 -15 12 -27 12 -12 -1 -23 6 -25 15 -2 12 7 19 35 24 23 5
31 10 21 12 -19 5 -25 29 -8 35 5 2 6 14 3 28 -7 25 -7 25 -13 -5 -4 -18 -11
-29 -20 -27 -11 3 -11 0 0 -12 10 -13 10 -16 -4 -16 -19 0 -22 36 -3 43 7 3 5
6 -5 6 -10 1 -18 8 -18 16 0 13 4 14 22 4 18 -10 20 -9 15 6 -4 9 -7 19 -7 21
0 2 -7 4 -15 4 -8 0 -15 7 -15 16 0 10 6 13 18 10 12 -4 19 -1 19 8 0 8 -6 12
-15 9 -15 -6 -34 16 -25 30 3 5 9 3 14 -4 4 -7 12 -10 16 -5 4 4 0 13 -10 20
-20 15 -23 38 -4 31 13 -6 18 48 5 61 -5 4 -8 12 -8 18 0 6 4 5 9 -3 6 -9 11
-10 15 -2 4 6 0 14 -8 17 -17 7 -22 34 -6 34 5 0 14 -8 19 -17 9 -16 10 -16
11 -1 0 9 5 18 12 20 6 2 13 14 15 27 2 18 0 22 -13 17 -8 -3 -18 -6 -21 -6
-3 0 0 -6 6 -14 8 -10 9 -16 1 -21 -5 -3 -10 1 -10 10 0 9 -5 13 -11 9 -8 -5
-8 -1 0 14 6 11 11 30 11 41 0 12 5 21 10 21 6 0 10 7 10 15 0 8 4 15 9 15 5
0 14 14 20 31 7 21 15 28 23 23 10 -6 10 -4 0 8 -11 14 -10 17 5 22 19 7 58
54 51 62 -3 2 -23 -13 -45 -33z m57 -513 c0 -5 -2 -10 -4 -10 -3 0 -8 5 -11
10 -3 6 -1 10 4 10 6 0 11 -4 11 -10z m-305 -160 c3 -5 -3 -10 -15 -10 -12 0
-18 5 -15 10 3 6 10 10 15 10 5 0 12 -4 15 -10z m297 -32 c-15 -15 -26 -4 -18
18 5 13 9 15 18 6 9 -9 9 -15 0 -24z m-54 10 c7 -7 12 -9 12 -5 0 4 9 -2 21
-14 13 -13 18 -27 14 -37 -3 -9 -6 -19 -5 -21 1 -2 -5 -8 -14 -13 -11 -6 -21
-4 -32 6 -18 19 -59 22 -48 4 4 -6 3 -8 -4 -4 -6 3 -10 15 -9 26 1 20 9 25 20
14 10 -10 87 -11 87 -2 0 5 -4 6 -10 3 -5 -3 -10 -2 -10 4 0 5 -15 8 -34 7
-19 -2 -40 1 -48 5 -10 7 -9 9 5 9 9 0 17 7 17 15 0 18 21 20 38 3z m-223 -8
c3 -6 -1 -7 -9 -4 -18 7 -21 14 -7 14 6 0 13 -4 16 -10z m23 -38 c2 -7 -3 -12
-12 -12 -9 0 -16 7 -16 16 0 17 22 14 28 -4z m-6 -67 c-8 -15 -10 -13 -14 14
-4 28 -3 30 10 18 10 -11 11 -20 4 -32z m38 -16 c0 -6 -4 -7 -10 -4 -5 3 -10
11 -10 16 0 6 5 7 10 4 6 -3 10 -11 10 -16z m-20 -19 c0 -5 -4 -10 -10 -10 -5
0 -10 5 -10 10 0 6 5 10 10 10 6 0 10 -4 10 -10z m1 -40 c0 10 2 11 6 3 7 -18
1 -27 -20 -28 -11 -1 -16 3 -13 12 3 7 -1 13 -9 13 -9 0 -12 6 -8 16 5 14 9
13 24 -7 13 -17 19 -20 20 -9z m-17 -55 c-4 -8 -8 -15 -10 -15 -2 0 -4 7 -4
15 0 8 4 15 10 15 5 0 7 -7 4 -15z m36 6 c0 -12 -20 -25 -27 -18 -7 7 6 27 18
27 5 0 9 -4 9 -9z m-55 -41 c-3 -5 2 -10 12 -10 17 -1 17 -1 0 -11 -10 -6 -21
-8 -24 -5 -6 6 4 36 12 36 4 0 3 -4 0 -10z m229 -12 c-4 -6 -2 -8 3 -5 12 8
46 -27 36 -36 -12 -13 -42 -7 -51 9 -11 20 -4 56 9 48 5 -3 6 -10 3 -16z
m-259 -8 c3 -5 1 -10 -4 -10 -6 0 -11 5 -11 10 0 6 2 10 4 10 3 0 8 -4 11 -10z
m25 -31 c0 -5 -12 -9 -26 -9 -14 0 -23 4 -20 8 7 11 46 12 46 1z m-59 -34 c5
4 9 2 9 -4 0 -14 -29 -41 -43 -41 -7 0 -5 5 4 10 10 6 15 20 13 37 -2 16 -1
20 2 10 3 -9 10 -15 15 -12z m-71 -45 c0 -5 -4 -10 -10 -10 -5 0 -10 5 -10 10
0 6 5 10 10 10 6 0 10 -4 10 -10z m24 -42 c-4 -5 -19 -8 -35 -6 -16 3 -29 1
-29 -4 0 -4 -7 -8 -16 -8 -8 0 -13 -3 -10 -8 2 -4 -11 -8 -29 -8 -42 -1 -36
20 6 23 17 1 37 8 45 14 8 6 14 8 14 5 0 -4 8 -3 17 2 20 12 46 4 37 -10z
m126 -3 c0 -8 -4 -15 -10 -15 -5 0 -10 7 -10 15 0 8 5 15 10 15 6 0 10 -7 10
-15z m0 -35 c0 -5 -4 -10 -10 -10 -5 0 -10 5 -10 10 0 6 5 10 10 10 6 0 10 -4
10 -10z m45 -10 c-3 -5 -11 -10 -16 -10 -6 0 -7 5 -4 10 3 6 11 10 16 10 6 0
7 -4 4 -10z m182 -32 c-3 -8 -6 -5 -6 6 -1 11 2 17 5 13 3 -3 4 -12 1 -19z
m-422 -110 c4 4 2 -3 -4 -15 -13 -25 -19 -27 -40 -14 -8 5 -11 16 -8 25 5 13
11 15 26 7 10 -6 22 -7 26 -3z m-175 -7 c0 -6 -4 -13 -10 -16 -5 -3 -10 1 -10
9 0 9 5 16 10 16 6 0 10 -4 10 -9z"/>
<path d="M2085 3130 c3 -5 11 -10 16 -10 6 0 7 5 4 10 -3 6 -11 10 -16 10 -6
0 -7 -4 -4 -10z"/>
<path d="M1640 2550 c0 -5 5 -10 11 -10 5 0 7 5 4 10 -3 6 -8 10 -11 10 -2 0
-4 -4 -4 -10z"/>
<path d="M2040 3260 c6 -11 13 -20 15 -20 2 0 3 9 2 20 -1 11 -7 20 -14 20
-11 0 -11 -5 -3 -20z"/>
<path d="M2645 3123 c0 -39 -47 -67 -152 -87 -161 -32 -213 -69 -220 -158 -4
-47 -1 -58 29 -101 18 -27 38 -56 43 -65 14 -25 49 -57 68 -65 24 -9 46 -59
52 -119 7 -60 -5 -89 -28 -70 -20 17 -50 129 -42 159 5 22 3 24 -25 20 -17 -3
-28 -1 -24 4 3 5 12 9 20 9 20 0 17 13 -6 28 -17 10 -20 9 -26 -13 -7 -29 -24
-34 -24 -7 -1 16 -1 16 -11 0 -13 -24 -54 -23 -79 2 -17 17 -20 17 -20 4 0 -9
9 -18 20 -21 11 -3 20 -12 20 -19 0 -13 4 -13 27 0 25 13 28 12 40 -11 18 -36
16 -50 -8 -56 -37 -10 -118 40 -104 63 4 7 -2 6 -14 -2 -20 -12 -20 -13 -1
-20 10 -4 28 -16 39 -27 27 -27 82 -55 79 -40 -2 6 3 14 11 17 9 3 11 0 6 -8
-5 -8 -1 -11 11 -8 11 2 18 10 16 16 -1 7 2 12 8 12 5 0 10 -9 10 -20 0 -11 5
-20 11 -20 5 0 8 -4 5 -8 -3 -5 8 -22 24 -37 17 -16 30 -34 30 -41 0 -21 31
-25 56 -5 13 10 20 22 16 26 -4 4 5 0 21 -10 23 -15 26 -15 21 -2 -3 9 -20 21
-37 27 -31 11 -31 12 -12 26 11 8 28 13 37 11 11 -3 15 0 11 9 -3 8 -13 14
-22 14 -28 0 -42 20 -25 37 18 18 18 29 0 36 -11 4 -13 1 -9 -11 3 -9 -5 -2
-17 17 -24 38 -20 61 10 61 11 0 20 5 20 11 0 6 10 8 23 5 22 -6 22 -6 -1 6
-17 8 -28 9 -41 1 -12 -7 -27 -7 -51 1 -29 9 -35 16 -36 41 0 24 4 30 23 31
29 2 31 -22 2 -29 -21 -6 -18 -27 4 -27 7 0 6 4 -3 10 -12 8 -10 10 9 10 16 0
22 -4 17 -15 -4 -10 1 -15 14 -15 23 0 27 15 5 24 -8 3 -15 10 -15 16 0 6 5 8
10 5 6 -3 10 -2 10 4 0 14 82 51 113 51 59 0 107 -52 90 -97 -4 -11 -3 -14 5
-9 15 9 16 61 2 87 -30 55 -149 68 -223 24 -43 -25 -47 -25 -70 -10 -20 13
-26 13 -30 3 -4 -8 -6 -7 -6 5 -1 9 4 17 11 17 6 0 3 10 -8 22 -10 12 -13 18
-6 14 6 -4 12 -2 12 4 0 6 -7 13 -15 16 -8 4 -15 10 -15 16 0 5 4 7 9 4 5 -3
8 11 7 32 -1 26 3 36 13 34 7 -1 23 3 35 11 11 7 55 24 96 37 100 31 146 55
166 86 15 22 15 27 3 40 -13 12 -15 11 -14 -13z m-325 -210 c-11 -17 -11 -17
-6 0 3 10 6 24 7 30 0 9 2 9 5 0 3 -7 0 -20 -6 -30z m20 -85 c0 -13 -23 -5
-28 10 -2 7 2 10 12 6 9 -3 16 -11 16 -16z m45 -48 c-3 -5 -12 -10 -18 -10 -7
0 -6 4 3 10 19 12 23 12 15 0z m105 0 c0 -5 -4 -10 -10 -10 -5 0 -10 5 -10 10
0 6 5 10 10 10 6 0 10 -4 10 -10z m-129 -170 c9 13 10 13 6 0 -2 -8 -10 -15
-17 -15 -7 0 -15 7 -17 15 -4 13 -3 13 6 0 10 -13 12 -13 22 0z"/>
<path d="M2108 3073 c7 -3 16 -2 19 1 4 3 -2 6 -13 5 -11 0 -14 -3 -6 -6z"/>
<path d="M2088 3009 c-10 -5 -18 -17 -18 -25 0 -8 5 -12 10 -9 6 4 7 11 4 17
-5 7 -1 9 9 5 11 -4 17 -1 17 8 0 17 0 17 -22 4z"/>
<path d="M2146 3002 c-3 -5 1 -9 9 -9 8 0 12 4 9 9 -3 4 -7 8 -9 8 -2 0 -6 -4
-9 -8z"/>
<path d="M2165 2971 c-3 -6 1 -14 10 -17 11 -5 13 -10 5 -19 -7 -8 -6 -12 4
-12 9 0 13 8 10 20 -5 27 -20 42 -29 28z"/>
<path d="M2191 2867 c2 -1 13 -9 24 -17 19 -14 19 -14 6 3 -7 9 -18 17 -24 17
-6 0 -8 -1 -6 -3z"/>
<path d="M2165 2830 c10 -11 30 -20 45 -20 16 0 27 -5 26 -12 0 -7 3 -14 8
-15 5 -1 13 -7 17 -15 14 -21 11 7 -3 34 -10 18 -20 23 -46 22 -21 -1 -36 4
-39 12 -3 8 -10 14 -16 14 -5 0 -2 -9 8 -20z"/>
<path d="M1963 2833 c-18 -6 -16 -20 2 -20 8 0 12 4 9 9 -8 13 2 10 40 -13
l36 -21 0 21 c0 12 -6 21 -12 22 -7 0 -24 2 -38 3 -14 2 -31 1 -37 -1z"/>
<path d="M2173 2748 c0 -13 1 -17 4 -9 3 8 8 9 12 3 3 -5 17 -12 31 -16 24 -6
24 -6 -2 9 -16 9 -28 20 -28 25 0 21 -16 9 -17 -12z"/>
<path d="M2269 2750 c-7 -31 -4 -50 8 -50 8 0 11 -4 8 -10 -3 -5 -1 -10 5 -10
7 0 9 8 4 23 -7 25 -23 54 -25 47z"/>
<path d="M2225 2700 c-3 -6 1 -7 9 -4 18 7 21 14 7 14 -6 0 -13 -4 -16 -10z"/>
<path d="M2240 2680 c0 -5 5 -10 10 -10 6 0 10 5 10 10 0 6 -4 10 -10 10 -5 0
-10 -4 -10 -10z"/>
<path d="M1820 2670 c-9 -6 -10 -10 -3 -10 6 0 15 5 18 10 8 12 4 12 -15 0z"/>
<path d="M2611 2664 c0 -11 3 -14 6 -6 3 7 2 16 -1 19 -3 4 -6 -2 -5 -13z"/>
<path d="M3035 2652 c-20 -32 -83 -78 -102 -74 -7 2 -13 -1 -13 -5 0 -5 -9 -9
-20 -10 -13 -1 -18 2 -13 10 4 7 0 6 -10 -2 -14 -11 -17 -11 -17 0 0 11 -2 11
-10 -1 -8 -13 -10 -12 -10 4 0 13 -3 16 -12 9 -9 -7 -30 -5 -66 5 l-53 15 23
25 c23 25 23 25 1 13 -12 -6 -25 -16 -28 -21 -9 -14 -52 -12 -58 3 -4 10 -6
10 -6 0 -1 -7 -8 -13 -16 -13 -8 0 -15 -4 -15 -9 0 -5 9 -7 20 -4 11 3 26 3
35 -1 12 -4 13 -10 3 -31 -12 -26 -43 -34 -51 -12 -4 13 -2 -9 4 -33 3 -10 -4
-15 -21 -15 -17 0 -26 -5 -26 -16 0 -14 5 -15 24 -8 13 5 21 5 18 1 -2 -4 4
-14 15 -20 18 -12 19 -10 13 14 -5 20 -4 25 5 19 8 -4 11 -21 9 -41 -2 -19 1
-35 7 -38 6 -2 6 -8 -2 -16 -9 -10 -13 -8 -18 12 -5 20 -12 25 -35 24 -22 -1
-26 -4 -18 -14 6 -7 13 -10 16 -7 7 6 32 -15 32 -27 0 -5 -9 -12 -19 -16 -18
-7 -17 -8 5 -25 l25 -19 -7 26 c-4 15 -2 26 4 26 16 0 20 -22 9 -53 -7 -22
-12 -25 -23 -16 -15 12 -19 6 -27 -43 -3 -19 0 -28 9 -28 7 0 18 -8 24 -17 11
-17 11 -17 6 0 -3 10 0 17 8 17 9 0 13 -8 10 -22 -4 -16 -1 -14 9 7 13 29 13
30 -10 33 -12 2 -23 8 -23 13 0 12 48 34 57 26 8 -8 6 -71 -3 -101 -5 -17 -4
-19 7 -9 15 15 20 123 6 140 -5 7 -7 21 -5 31 3 10 -2 24 -10 32 -10 9 -11 15
-4 18 12 4 4 33 -12 44 -8 5 -7 14 2 28 7 11 8 20 3 20 -11 0 -9 12 7 61 l12
35 68 -23 c111 -37 187 -29 238 29 26 29 58 78 51 78 -3 0 -13 -13 -22 -28z"/>
<path d="M1940 2655 c-7 -9 -8 -15 -2 -15 5 0 12 7 16 15 3 8 4 15 2 15 -2 0
-9 -7 -16 -15z"/>
<path d="M2635 2660 c3 -5 8 -10 11 -10 2 0 4 5 4 10 0 6 -5 10 -11 10 -5 0
-7 -4 -4 -10z"/>
<path d="M2471 2645 c14 -14 21 -15 35 -6 11 7 13 10 4 8 -8 -2 -24 0 -35 6
-19 9 -19 8 -4 -8z"/>
<path d="M2570 2650 c-13 -8 -12 -10 3 -10 9 0 17 5 17 10 0 12 -1 12 -20 0z"/>
<path d="M2555 2620 c3 -5 15 -10 26 -10 11 0 17 5 14 10 -3 6 -15 10 -26 10
-11 0 -17 -4 -14 -10z"/>
<path d="M2280 2616 c0 -2 8 -10 18 -17 15 -13 16 -12 3 4 -13 16 -21 21 -21
13z"/>
<path d="M2780 2600 c0 -4 9 -10 20 -13 11 -3 20 -2 20 3 0 4 -9 10 -20 13
-11 3 -20 2 -20 -3z"/>
<path d="M1500 2591 c0 -5 9 -7 20 -4 11 3 20 7 20 9 0 2 -9 4 -20 4 -11 0
-20 -4 -20 -9z"/>
<path d="M1164 2576 c-77 -34 -86 -179 -16 -259 23 -26 24 -49 2 -42 -20 6
-37 -21 -17 -28 9 -3 8 -8 -2 -18 -9 -9 -11 -9 -7 -1 5 7 1 12 -9 12 -10 0
-13 5 -9 12 4 7 3 8 -5 4 -8 -5 -9 -12 -2 -20 6 -7 6 -17 1 -26 -8 -13 -10
-12 -10 3 0 9 -5 17 -11 17 -5 0 -7 5 -4 10 3 6 2 10 -3 10 -6 0 -13 -7 -16
-16 -5 -12 -10 -14 -20 -5 -7 6 -16 8 -19 4 -4 -3 -7 -1 -7 6 0 7 -4 10 -9 7
-5 -4 -12 0 -14 6 -4 9 -6 8 -6 -2 -1 -9 5 -22 12 -30 6 -8 2 -6 -11 5 -12 10
-21 23 -19 29 2 6 -3 27 -13 46 -9 19 -25 64 -34 100 -33 123 -87 185 -125
145 -9 -10 -10 -15 -3 -10 22 12 56 -3 74 -32 9 -15 25 -75 37 -133 24 -118
51 -168 104 -193 62 -30 118 -17 187 41 33 29 35 29 67 14 38 -18 43 -32 11
-33 l-23 0 23 -9 c38 -16 22 -90 -20 -90 -12 0 -19 -3 -15 -6 12 -13 55 6 60
27 3 12 10 18 16 14 7 -4 11 4 12 19 3 47 4 51 23 54 41 8 49 -56 11 -86 -14
-11 -25 -25 -25 -31 0 -6 -8 -8 -17 -5 -14 5 -15 4 -4 -4 8 -6 12 -21 9 -41
-4 -28 -2 -31 21 -30 19 0 21 2 10 7 -14 6 -14 10 -1 42 9 19 17 41 18 48 4
21 25 42 36 36 5 -4 2 8 -7 26 -19 36 -19 35 15 44 21 6 22 5 8 -4 -10 -6 -18
-15 -18 -20 0 -6 8 -3 19 6 11 10 16 24 14 35 -4 13 0 19 13 20 11 0 14 3 8 5
-8 3 -10 22 -7 52 6 54 7 57 28 48 14 -5 13 -9 -6 -35 -12 -16 -18 -34 -14
-40 8 -14 26 -4 24 12 -3 28 3 36 31 42 22 5 32 14 36 33 3 15 7 33 10 40 2 6
-1 12 -6 12 -12 0 -23 -37 -15 -50 4 -6 -4 -6 -19 1 -29 14 -41 36 -27 53 7 8
4 12 -9 12 -10 0 -16 -4 -14 -8 8 -12 -6 -48 -17 -48 -12 0 -40 26 -39 35 1 4
-1 9 -4 13 -3 3 -6 -4 -6 -15 0 -11 -6 -25 -12 -30 -18 -14 -59 -23 -52 -12 3
5 12 9 20 9 8 0 14 4 14 8 0 18 -32 8 -47 -14 -8 -13 -29 -28 -46 -33 -18 -6
-37 -21 -42 -33 -6 -12 -17 -24 -25 -26 -13 -5 -13 -3 -1 11 11 14 8 23 -27
67 -49 62 -62 121 -38 169 17 32 53 48 83 37 15 -5 15 -4 -1 9 -23 18 -23 18
-62 1z m-7 -203 c-4 -3 -2 -12 4 -20 9 -9 8 -13 0 -13 -6 0 -11 2 -11 4 0 2
-3 11 -6 20 -4 10 -1 16 7 16 7 0 9 -3 6 -7z m279 -45 c1 -12 -4 -18 -17 -18
-10 0 -19 -4 -19 -8 0 -4 -18 -13 -39 -18 -32 -9 -43 -8 -62 7 l-23 17 34 20
c43 26 122 26 126 0z m-246 -9 c0 -5 5 -7 11 -4 6 4 5 -2 -2 -13 -12 -19 -14
-19 -25 -4 -13 17 -10 32 7 32 5 0 9 -5 9 -11z m205 -49 c3 -5 1 -10 -4 -10
-6 0 -11 5 -11 10 0 6 2 10 4 10 3 0 8 -4 11 -10z m19 -23 c-7 -19 -41 -18
-49 0 -3 11 0 11 15 3 16 -9 22 -7 26 5 4 9 8 14 10 12 3 -2 2 -11 -2 -20z
m-114 -2 c0 -8 -7 -15 -16 -15 -14 0 -14 3 -4 15 7 8 14 15 16 15 2 0 4 -7 4
-15z m-239 -48 c-8 -8 -11 -7 -11 4 0 20 13 34 18 19 3 -7 -1 -17 -7 -23z
m-26 13 c3 -5 -1 -10 -9 -10 -9 0 -16 5 -16 10 0 6 4 10 9 10 6 0 13 -4 16
-10z m285 -24 c0 -11 -19 -15 -25 -6 -3 5 1 10 9 10 9 0 16 -2 16 -4z m27
-110 c-7 -14 -13 -23 -15 -21 -7 6 9 45 18 45 4 0 3 -11 -3 -24z"/>
<path d="M1831 2559 c-20 -27 -21 -29 -3 -29 17 0 52 28 52 42 0 3 -6 8 -14
11 -7 3 -23 -7 -35 -24z"/>
<path d="M2575 2560 c3 -6 1 -10 -4 -10 -6 0 -11 -4 -11 -9 0 -5 9 -7 20 -4
24 6 26 19 4 27 -8 3 -12 2 -9 -4z"/>
<path d="M2690 2544 c0 -4 11 -17 25 -30 31 -28 31 -38 3 -64 -12 -11 -16 -20
-9 -20 7 0 19 7 28 15 8 9 18 14 20 11 9 -8 -8 -27 -33 -36 -13 -5 -24 -14
-24 -19 0 -6 8 -7 17 -4 13 5 15 2 10 -11 -4 -11 -3 -15 4 -11 6 4 8 13 5 20
-5 15 27 30 43 21 5 -3 11 -15 14 -26 3 -11 1 -18 -3 -15 -5 3 -11 1 -15 -5
-3 -5 -15 -10 -26 -10 -14 0 -18 -4 -12 -12 4 -7 8 -17 8 -23 0 -5 15 -9 33
-7 21 2 32 -1 33 -10 0 -7 4 -4 9 7 7 17 9 17 9 3 1 -20 16 -24 26 -8 9 15 71
12 111 -5 86 -36 145 -113 78 -101 -14 3 -22 1 -19 -5 4 -5 -3 -9 -14 -9 -11
0 -23 5 -27 12 -5 8 -2 9 10 5 11 -4 15 -3 11 4 -4 6 -13 8 -20 5 -7 -2 -18 1
-25 7 -7 7 -10 8 -8 2 3 -5 -1 -16 -10 -24 -13 -13 -14 -12 -9 11 5 19 1 30
-15 44 -15 14 -22 16 -25 7 -8 -24 -25 -13 -21 12 3 14 1 28 -3 31 -8 4 -14
-25 -10 -48 3 -18 -17 -6 -37 22 -22 29 -55 40 -66 21 -3 -4 11 -19 31 -32 40
-26 59 -57 28 -45 -14 5 -16 4 -7 -7 7 -8 8 -18 4 -22 -4 -5 0 -6 9 -2 13 4
18 -2 22 -26 8 -51 13 -66 22 -74 4 -5 5 -2 0 6 -6 11 -4 13 11 7 16 -6 16 -4
-3 14 -25 22 -30 64 -11 76 6 4 14 2 16 -4 2 -7 8 -10 13 -6 5 3 9 2 8 -3 -1
-4 -1 -19 0 -33 2 -25 2 -25 11 -2 13 30 15 28 16 -13 1 -40 1 -40 32 -50 22
-6 22 -6 -3 19 -24 24 -35 53 -16 41 5 -3 13 0 17 6 4 8 3 9 -4 5 -7 -4 -12
-2 -12 3 0 6 5 11 11 11 6 0 8 7 5 16 -4 10 -1 14 6 11 7 -2 13 -16 12 -30 -1
-14 4 -25 9 -24 12 2 28 -60 20 -78 -2 -7 3 -15 13 -19 15 -6 15 -4 3 10 -12
15 -12 17 1 12 8 -2 16 -15 18 -27 3 -18 6 -20 18 -10 10 8 18 9 27 0 8 -6 17
-8 20 -4 4 3 7 -3 7 -15 0 -17 -6 -22 -26 -22 -16 0 -23 4 -18 11 5 8 -3 10
-24 7 -27 -4 -30 -2 -19 10 10 13 9 14 -10 4 -32 -17 -36 -15 -31 16 3 22 0
28 -14 28 -20 0 -24 -16 -8 -32 14 -14 -30 -16 -47 -2 -15 12 -18 42 -4 33 5
-3 13 0 17 6 4 7 3 9 -4 5 -5 -3 -12 0 -15 6 -2 7 -8 1 -12 -14 -6 -24 -13
-28 -41 -28 -38 0 -43 11 -29 55 6 18 4 17 -14 -4 -12 -12 -18 -28 -14 -34 3
-5 1 -7 -4 -4 -6 4 -8 19 -5 34 2 16 2 26 -1 23 -3 -3 -7 -19 -10 -35 -3 -22
-9 -30 -23 -30 -23 0 -32 48 -13 71 7 9 8 14 1 14 -6 0 -14 -9 -17 -20 -4 -11
-10 -18 -15 -15 -5 3 -12 0 -16 -6 -4 -7 -3 -9 3 -6 6 4 13 0 16 -7 3 -8 2
-16 -3 -18 -5 -2 -3 -11 5 -21 8 -12 31 -19 66 -23 78 -7 233 -35 242 -44 15
-13 -137 -20 -223 -10 -100 11 -100 11 -104 -72 0 -20 3 -34 8 -31 4 3 6 21 3
39 -4 20 -2 34 5 34 6 0 9 -18 7 -44 -2 -24 -2 -43 0 -41 2 3 13 -1 25 -7 21
-11 21 -10 3 10 -11 12 -17 31 -15 49 3 25 7 28 41 28 26 1 36 -3 33 -12 -3
-7 -1 -15 3 -18 5 -2 11 4 14 16 4 14 -1 22 -16 28 -13 5 12 6 58 3 85 -5 97
-8 76 -21 -10 -7 -10 -9 2 -14 8 -3 20 0 27 6 9 9 11 9 7 1 -4 -7 2 -23 14
-35 17 -21 18 -21 8 -3 -19 33 -5 54 35 54 28 0 35 -4 40 -25 4 -16 11 -22 21
-19 8 4 12 10 9 15 -3 5 -10 7 -15 4 -13 -9 -11 19 3 33 15 15 62 16 53 2 -4
-6 -11 -8 -16 -5 -5 4 -5 -5 1 -20 8 -20 6 -27 -5 -31 -7 -3 -17 -19 -20 -36
-5 -23 -9 -27 -16 -17 -7 11 -9 10 -10 -3 -2 -27 -4 -32 -12 -45 -6 -9 -3 -11
7 -7 9 3 16 10 16 15 0 5 6 8 13 7 7 -2 11 6 9 19 -4 29 15 63 35 63 13 0 14
2 2 17 -12 14 -12 16 1 11 35 -13 80 28 51 46 -5 4 -7 -2 -4 -13 3 -12 -2 -20
-16 -24 -17 -4 -21 -1 -21 20 0 13 4 22 9 19 5 -4 11 -1 13 5 5 14 38 0 38
-17 0 -8 4 -14 9 -14 5 0 7 8 4 18 -5 22 19 45 40 36 17 -6 31 -44 16 -44 -5
0 -9 8 -10 18 0 11 -2 12 -6 4 -3 -7 3 -22 12 -32 10 -11 15 -26 12 -34 -4 -9
0 -13 11 -11 9 2 20 4 24 4 3 1 4 9 2 19 -7 27 11 48 29 34 11 -9 13 -8 12 6
-2 31 -15 44 -31 31 -7 -6 -12 -15 -9 -19 3 -5 1 -11 -5 -15 -5 -3 -10 -18
-11 -33 0 -24 -1 -25 -8 -7 -5 11 -8 35 -7 54 1 31 5 35 44 46 39 12 42 12 42
-7 0 -11 4 -16 11 -13 6 4 8 14 5 22 -3 8 -1 11 4 8 17 -10 11 -32 -12 -47
-17 -12 -19 -18 -10 -34 11 -18 11 -18 12 4 0 13 4 20 10 17 6 -4 7 -12 3 -18
-4 -7 0 -6 10 2 18 14 23 26 8 16 -5 -3 -12 -1 -15 4 -9 15 14 25 27 12 9 -9
8 -16 -1 -31 -14 -23 -5 -25 22 -5 11 8 14 15 8 15 -7 0 -12 9 -12 20 0 11 -6
19 -12 17 -7 -1 -13 6 -13 16 0 9 5 17 10 16 6 -1 9 -6 7 -12 -2 -7 9 0 25 16
16 15 34 27 41 27 12 0 13 -3 16 -39 0 -11 5 -23 9 -28 5 -4 8 -3 7 2 -5 21 1
29 10 15 8 -12 10 -12 10 -1 0 8 -7 19 -17 26 -20 15 -9 35 20 35 19 0 19 -1
4 -12 -16 -12 -15 -13 9 -15 15 0 30 -7 35 -15 6 -9 9 -3 9 17 0 22 -3 26 -10
15 -5 -8 -12 -11 -15 -8 -10 10 4 28 21 28 8 0 14 -7 14 -15 0 -8 7 -15 15
-15 8 0 15 -8 15 -17 0 -11 7 -4 18 17 23 41 43 51 37 17 -3 -16 0 -24 10 -24
7 0 14 3 13 6 -2 25 5 41 18 41 12 0 14 -3 6 -13 -16 -18 -1 -39 16 -21 7 7
12 17 12 21 -1 5 7 10 16 12 12 2 15 -2 11 -13 -5 -12 0 -16 23 -16 17 0 30 4
30 9 0 4 12 6 26 3 19 -3 24 -9 21 -23 -5 -18 -4 -18 24 -2 24 14 31 15 38 5
4 -7 12 -12 17 -11 5 1 18 1 29 0 14 -1 16 -4 7 -9 -8 -6 -2 -9 18 -9 17 0 36
-6 43 -13 9 -10 9 -11 0 -6 -9 5 -11 2 -7 -8 3 -8 12 -12 19 -10 8 3 34 -13
59 -36 55 -51 62 -39 9 15 -33 34 -134 106 -158 112 -5 1 -41 11 -80 23 -41
12 -99 20 -140 20 -82 0 -289 -32 -395 -61 -41 -11 -90 -21 -107 -21 -18 0
-33 -5 -33 -11 0 -6 -7 -2 -16 9 -11 13 -14 14 -11 3 3 -9 -1 -16 -9 -16 -8 0
-14 8 -14 18 0 10 -4 20 -9 23 -5 4 -7 -3 -4 -14 3 -12 0 -20 -6 -20 -7 0 -9
6 -5 13 5 9 4 9 -6 0 -11 -10 -17 -10 -31 3 -17 15 -18 15 -16 -4 0 -11 4 -19
8 -16 4 2 15 1 25 -3 16 -6 16 -7 -2 -14 -38 -15 -54 -10 -54 16 0 19 -5 25
-17 23 -15 -2 -18 4 -18 37 0 34 -3 40 -22 41 -12 1 -20 -3 -17 -8 3 -4 10 -5
16 -2 7 5 9 -2 6 -20 -3 -15 -1 -26 6 -26 6 0 4 -5 -4 -10 -10 -6 -17 -4 -24
8 -5 9 -13 19 -17 22 -5 3 -10 17 -11 30 -2 20 2 25 19 25 12 0 34 12 50 27
l29 28 34 -29 c46 -37 90 -51 160 -51 107 0 218 50 274 123 42 55 54 152 25
208 -12 25 -76 52 -95 41 -13 -7 -10 -10 14 -15 52 -10 86 -93 59 -141 -6 -12
-10 -24 -9 -28 1 -5 -3 -8 -9 -8 -6 0 -20 -11 -31 -25 -11 -14 -26 -25 -34
-25 -8 0 -24 -11 -36 -25 -17 -20 -24 -22 -41 -14 -13 8 -22 8 -26 1 -3 -6
-23 -9 -44 -8 -42 4 -43 3 -21 -19 14 -13 14 -19 4 -28 -10 -9 -11 -9 -6 1 8
14 -12 16 -33 3 -11 -7 -10 -11 5 -20 17 -9 17 -10 2 -11 -25 0 -34 21 -15 35
19 14 22 40 7 50 -5 3 -10 1 -10 -5 0 -13 -46 12 -96 53 -39 33 -40 39 -17
138 18 80 50 125 84 116 10 -3 19 -1 19 4 0 5 -13 9 -29 9 -44 0 -75 -45 -101
-149 l-12 -44 -63 68 c-35 37 -68 64 -74 60 -6 -3 -11 1 -11 10 0 20 -73 52
-160 71 -68 14 -140 18 -140 8z m104 -30 c9 -8 16 -25 16 -36 0 -17 -4 -19
-27 -13 -37 9 -44 23 -25 46 20 23 17 23 36 3z m81 -28 c-5 -17 -4 -18 5 -6 9
12 10 8 6 -19 -5 -29 -4 -32 10 -20 10 8 13 21 9 36 -3 13 -1 23 5 23 8 0 15
-46 11 -72 0 -5 5 -8 12 -8 8 0 7 -4 -3 -10 -10 -6 -11 -10 -2 -10 17 0 15
-37 -3 -44 -19 -7 -30 16 -22 45 4 16 3 18 -8 9 -9 -8 -15 -8 -20 0 -11 17
-23 11 -18 -9 5 -18 -9 -33 -33 -37 -21 -3 -2 47 23 60 24 12 24 14 8 30 -21
21 -13 68 10 59 10 -3 14 -13 10 -27z m88 -18 c6 -8 7 -23 3 -33 -9 -24 -36
-1 -36 32 0 27 17 27 33 1z m-141 -44 c-15 -19 -18 -20 -24 -6 -10 25 -9 34 2
27 6 -3 13 1 16 10 5 13 9 14 15 4 4 -7 0 -22 -9 -35z m201 -9 c-3 -8 0 -15 7
-15 6 0 8 -4 5 -10 -11 -17 -22 -11 -27 15 -5 26 0 38 13 29 4 -2 6 -11 2 -19z
m-25 -18 c-1 -12 1 -28 5 -34 5 -7 4 -21 -2 -30 -9 -16 -11 -13 -17 15 -3 17
-10 32 -15 32 -13 0 -11 24 3 38 16 16 30 4 26 -21z m76 -12 c3 -8 1 -15 -4
-15 -6 0 -10 7 -10 15 0 8 2 15 4 15 2 0 6 -7 10 -15z m-27 -24 c1 -14 -3 -18
-13 -14 -15 6 -18 16 -7 26 11 12 19 8 20 -12z m67 -26 c3 -8 1 -15 -4 -15 -6
0 -10 7 -10 15 0 8 2 15 4 15 2 0 6 -7 10 -15z m-56 -29 c-1 -14 -6 -22 -10
-20 -5 3 -6 10 -3 15 4 5 1 9 -4 9 -6 0 -11 5 -11 10 0 6 7 10 15 10 10 0 14
-9 13 -24z m32 14 c0 -5 -2 -10 -4 -10 -3 0 -8 5 -11 10 -3 6 -1 10 4 10 6 0
11 -4 11 -10z m46 -30 c8 0 14 -7 14 -15 0 -12 -3 -12 -20 2 -11 10 -20 22
-19 28 0 5 3 4 6 -2 2 -7 11 -13 19 -13z m-43 -10 c3 -11 1 -18 -4 -14 -5 3
-9 12 -9 20 0 20 7 17 13 -6z m34 -36 c-3 -3 -12 -4 -19 -1 -8 3 -5 6 6 6 11
1 17 -2 13 -5z m43 -41 c0 -22 -2 -25 -10 -13 -13 20 -13 40 0 40 6 0 10 -12
10 -27z m350 13 c0 -8 -6 -16 -14 -19 -10 -4 -12 0 -9 14 6 22 23 26 23 5z
m-281 -23 c7 7 12 8 11 2 -5 -21 1 -29 10 -15 7 11 12 12 20 4 9 -9 4 -13 -17
-19 -27 -6 -27 -7 -9 -21 24 -17 16 -18 -21 -2 -47 21 -74 65 -29 48 16 -6 27
-5 35 3z m167 -30 c-13 -24 -15 -25 -16 -7 0 11 5 25 12 32 19 19 21 6 4 -25z
m-341 13 c-11 -8 -24 -12 -28 -9 -11 7 12 23 32 23 11 0 9 -4 -4 -14z m-50 -6
c3 -5 2 -10 -4 -10 -5 0 -13 5 -16 10 -3 6 -2 10 4 10 5 0 13 -4 16 -10z m465
6 c0 -2 -11 -6 -25 -8 -13 -3 -22 -1 -19 3 5 9 44 13 44 5z m-105 -46 c-3 -5
-14 -10 -23 -9 -14 0 -13 2 3 9 27 11 27 11 20 0z m315 -70 c0 -5 -9 -10 -21
-10 -11 0 -17 5 -14 10 3 6 13 10 21 10 8 0 14 -4 14 -10z m177 4 c-3 -3 -12
-4 -19 -1 -8 3 -5 6 6 6 11 1 17 -2 13 -5z"/>
<path d="M2780 2490 c0 -5 5 -10 11 -10 5 0 7 5 4 10 -3 6 -8 10 -11 10 -2 0
-4 -4 -4 -10z"/>
<path d="M3205 2170 c3 -5 8 -10 11 -10 2 0 4 5 4 10 0 6 -5 10 -11 10 -5 0
-7 -4 -4 -10z"/>
<path d="M1370 2510 c-13 -9 -13 -10 0 -10 8 0 22 5 30 10 13 9 13 10 0 10 -8
0 -22 -5 -30 -10z"/>
<path d="M1775 2466 c-40 -42 -59 -74 -37 -64 68 33 81 43 86 71 3 17 4 32 1
35 -2 3 -25 -16 -50 -42z"/>
<path d="M2139 2497 c-18 -13 -33 -87 -18 -87 5 0 22 18 37 39 15 22 36 44 47
50 17 8 15 10 -15 10 -19 0 -42 -5 -51 -12z"/>
<path d="M1376 2477 c3 -10 9 -15 12 -12 3 3 0 11 -7 18 -10 9 -11 8 -5 -6z"/>
<path d="M1560 2481 c0 -6 5 -13 10 -16 6 -3 10 1 10 9 0 9 -4 16 -10 16 -5 0
-10 -4 -10 -9z"/>
<path d="M1287 2474 c-4 -4 -7 -12 -7 -18 0 -6 4 -5 9 3 8 13 12 13 27 0 15
-12 17 -12 12 1 -5 17 -30 25 -41 14z"/>
<path d="M1450 2460 c0 -5 5 -10 11 -10 5 0 7 5 4 10 -3 6 -8 10 -11 10 -2 0
-4 -4 -4 -10z"/>
<path d="M1690 2445 c0 -8 4 -15 9 -15 5 0 11 7 15 15 3 9 0 15 -9 15 -8 0
-15 -7 -15 -15z"/>
<path d="M1236 2413 c-6 -14 -5 -15 5 -6 7 7 10 15 7 18 -3 3 -9 -2 -12 -12z"/>
<path d="M1590 2421 c0 -6 4 -13 10 -16 6 -3 7 1 4 9 -7 18 -14 21 -14 7z"/>
<path d="M2534 2399 c-3 -6 -15 -9 -25 -6 -11 3 -19 1 -19 -4 0 -15 36 -10 50
6 7 8 10 15 7 15 -3 0 -9 -5 -13 -11z"/>
<path d="M1238 2387 c-7 -8 -20 -11 -28 -9 -13 5 -13 3 0 -13 9 -11 10 -16 3
-11 -7 4 -13 3 -13 -2 0 -6 7 -12 15 -16 10 -3 15 1 15 14 0 28 18 34 22 8 3
-21 4 -21 9 5 7 32 -4 43 -23 24z"/>
<path d="M1277 2375 c-4 -24 -3 -25 14 -9 10 9 16 21 13 25 -10 16 -22 9 -27
-16z"/>
<path d="M2249 2388 c-1 -7 -1 -16 0 -20 0 -5 -6 -8 -14 -8 -18 0 -20 -30 -2
-52 11 -15 15 -12 39 22 26 37 26 39 7 45 -10 4 -17 11 -14 16 4 5 1 9 -4 9
-6 0 -12 -6 -12 -12z"/>
<path d="M2575 2370 c3 -5 8 -10 11 -10 2 0 4 5 4 10 0 6 -5 10 -11 10 -5 0
-7 -4 -4 -10z"/>
<path d="M1601 2353 c-14 -3 -41 -16 -60 -30 l-36 -25 40 6 c22 4 55 2 73 -3
30 -9 34 -8 43 15 15 42 4 49 -60 37z"/>
<path d="M1904 2335 c3 -9 6 -23 6 -31 0 -9 11 -14 30 -14 23 0 30 5 30 19 0
22 -4 26 -44 35 -24 6 -27 4 -22 -9z"/>
<path d="M1998 2303 c7 -3 16 -2 19 1 4 3 -2 6 -13 5 -11 0 -14 -3 -6 -6z"/>
<path d="M2085 2250 c3 -5 8 -10 11 -10 2 0 4 5 4 10 0 6 -5 10 -11 10 -5 0
-7 -4 -4 -10z"/>
<path d="M1825 2224 c-44 -23 -49 -31 -27 -43 20 -11 24 -8 56 47 9 15 7 15
-29 -4z"/>
<path d="M2020 2233 c-22 -8 -50 -34 -50 -47 0 -6 7 0 16 12 8 12 23 22 32 22
9 0 24 5 32 10 13 9 13 10 0 9 -8 0 -22 -3 -30 -6z"/>
<path d="M1606 2215 c4 -8 1 -15 -4 -15 -6 0 -14 -17 -17 -37 -4 -21 -9 -45
-11 -53 -2 -9 12 -23 38 -38 23 -12 39 -19 35 -15 -4 4 7 21 24 39 l32 33 -27
7 c-31 7 -56 39 -56 71 0 13 -4 23 -10 23 -5 0 -7 -7 -4 -15z"/>
<path d="M2193 2219 c-10 -10 -6 -18 17 -41 38 -36 48 -74 26 -96 -16 -16 -18
-15 -34 6 -16 21 -152 72 -192 72 -8 0 -25 -17 -37 -38 l-21 -38 48 24 49 24
46 -32 c41 -28 45 -29 35 -10 -6 12 -9 24 -6 27 9 9 74 -37 96 -66 17 -25 18
-35 10 -85 -5 -31 -12 -61 -15 -66 -15 -25 -25 -5 -25 48 0 63 -18 92 -55 92
-11 0 -39 7 -62 16 -24 9 -45 15 -47 13 -2 -2 -6 -18 -9 -35 -5 -28 -4 -31 13
-27 11 3 20 0 20 -6 0 -6 -9 -11 -20 -11 -31 0 -23 -28 10 -35 16 -4 32 -11
35 -16 8 -12 -7 -12 -39 1 -24 9 -26 7 -27 -18 0 -24 -1 -24 -8 -7 -31 76 -31
88 -9 112 27 29 22 34 -24 20 -32 -10 -37 -15 -40 -50 -3 -34 1 -43 37 -76 22
-20 56 -43 75 -50 76 -28 77 -30 23 -30 -71 -1 -94 10 -127 59 -17 27 -31 39
-37 33 -13 -13 0 -44 44 -113 51 -79 53 -80 102 -80 35 0 45 -4 50 -21 l7 -21
24 23 c35 32 17 44 -69 44 -56 0 -72 3 -75 15 -2 12 13 18 64 27 36 6 90 24
120 38 31 15 58 24 61 21 4 -3 1 -17 -5 -32 -7 -14 -8 -23 -3 -20 4 3 14 20
22 38 7 18 20 39 29 48 12 12 16 34 16 84 -1 61 1 66 19 64 11 -2 25 -14 32
-28 l13 -25 0 26 c0 22 -8 31 -45 48 -28 13 -45 28 -45 39 0 35 -21 92 -35 92
-7 0 -15 7 -17 16 -2 12 -6 13 -15 3z m-112 -186 c19 -11 29 -26 29 -40 0 -13
-1 -23 -3 -23 -2 0 -18 18 -36 40 -35 44 -33 48 10 23z m69 -101 c-10 -39 -12
-40 -61 -47 -28 -4 -52 -5 -55 -3 -2 3 19 19 46 36 34 21 55 42 63 64 10 28
12 30 15 11 2 -12 -2 -39 -8 -61z"/>
<path d="M2760 2226 c0 -2 7 -6 15 -10 8 -3 15 -1 15 4 0 6 -7 10 -15 10 -8 0
-15 -2 -15 -4z"/>
<path d="M2740 2215 c0 -2 14 -13 30 -25 17 -12 30 -17 30 -11 0 5 -13 16 -30
25 -16 8 -30 13 -30 11z"/>
<path d="M1200 2175 c-14 -8 -19 -14 -12 -15 6 0 12 -10 12 -23 0 -29 -19 -54
-45 -60 -18 -4 -17 -5 3 -6 18 -1 22 -5 17 -20 -3 -11 -1 -22 4 -26 7 -3 8 0
5 10 -5 12 -2 14 12 8 18 -7 18 -6 0 12 -12 12 -14 21 -7 23 6 2 14 21 17 42
4 22 11 38 16 37 6 -1 12 6 13 16 4 20 -2 21 -35 2z"/>
<path d="M1890 2155 c-34 -25 -48 -31 -58 -23 -11 9 -12 6 -7 -14 4 -15 1 -36
-5 -48 -9 -18 -9 -24 0 -30 7 -4 14 -22 15 -40 2 -18 10 -39 19 -48 15 -15 16
-13 16 28 0 64 13 103 51 150 44 55 27 69 -31 25z"/>
<path d="M2661 2183 c-1 -6 4 -15 9 -18 6 -4 8 -10 6 -13 -2 -4 6 -12 18 -18
18 -8 23 -8 23 3 0 7 -6 13 -12 13 -7 0 -20 10 -28 23 -9 12 -16 17 -16 10z"/>
<path d="M2743 2169 c9 -5 17 -16 17 -23 0 -8 9 -16 20 -19 19 -5 19 -4 -3 23
-12 16 -29 29 -37 29 -12 0 -11 -2 3 -10z"/>
<path d="M1124 2149 c-15 -8 -19 -18 -16 -38 2 -17 -3 -34 -13 -44 -9 -9 -13
-21 -10 -27 3 -5 0 -10 -8 -10 -10 0 -13 -8 -9 -26 3 -19 1 -25 -7 -20 -6 4
-11 2 -11 -4 0 -7 -12 -9 -29 -7 -20 3 -31 0 -35 -9 -6 -16 -46 -19 -46 -3 0
5 6 7 13 4 6 -4 3 1 -7 9 -18 14 -15 21 7 17 5 -1 6 3 2 9 -9 14 7 13 30 -3
17 -11 23 -10 41 9 12 13 20 25 17 27 -2 3 0 22 6 43 12 43 11 47 -13 38 -11
-4 -13 -10 -7 -18 13 -16 2 -56 -15 -56 -8 0 -14 -4 -14 -10 0 -5 8 -6 18 -3
14 6 15 4 4 -9 -7 -9 -21 -14 -32 -11 -22 6 -26 18 -10 28 6 3 10 11 10 16 0
6 -11 -2 -24 -18 -21 -25 -25 -26 -42 -13 -18 14 -18 14 -4 -4 14 -18 13 -19
-4 -13 -10 4 -25 2 -32 -4 -7 -6 -17 -8 -22 -5 -5 3 -8 -5 -7 -17 4 -32 4 -33
20 -11 15 19 15 19 9 -1 -5 -16 -4 -17 4 -5 6 8 9 17 6 21 -2 4 0 10 5 14 12
7 34 -31 27 -44 -3 -5 -18 -11 -33 -14 -16 -3 -36 -9 -45 -12 -14 -6 -16 -2
-13 22 2 15 4 38 4 51 1 13 5 21 9 18 4 -2 8 3 9 13 1 16 -13 20 -90 32 -51 8
-132 14 -182 13 -76 -1 -102 -6 -170 -33 -80 -32 -185 -96 -185 -112 0 -5 10
-9 23 -9 16 0 18 3 8 9 -10 7 -5 11 17 16 18 3 30 10 29 15 -1 4 3 9 8 9 6 1
21 9 34 17 12 9 32 14 42 11 10 -3 19 -1 19 5 0 10 17 8 53 -7 14 -6 16 -4 10
11 -5 14 -3 16 11 11 10 -4 15 -3 11 3 -8 14 18 13 32 -1 6 -6 17 -8 23 -4 9
6 9 10 -1 16 -11 7 -11 9 -1 9 7 0 15 -7 18 -15 4 -8 10 -15 15 -15 4 0 6 7 3
15 -9 22 22 19 32 -2 4 -10 6 -21 6 -25 -1 -5 2 -8 8 -8 5 0 10 9 10 20 0 11
-5 20 -11 20 -5 0 -8 4 -4 10 9 15 30 1 43 -28 l12 -27 -5 27 c-5 25 -3 27 31
25 19 -2 39 -9 44 -17 7 -10 10 -11 10 -2 0 16 31 15 54 -1 15 -11 17 -17 7
-35 -6 -12 -19 -22 -28 -22 -12 0 -14 7 -9 30 3 18 1 30 -5 30 -6 0 -7 -4 -4
-10 3 -5 -1 -10 -9 -10 -9 0 -16 -4 -16 -10 0 -5 5 -10 10 -10 6 0 10 -6 10
-14 0 -8 7 -16 15 -20 22 -8 18 -29 -5 -23 -10 3 -21 0 -24 -7 -2 -6 -5 -3 -5
7 -1 9 -8 17 -16 17 -16 0 -20 21 -8 34 18 17 3 46 -22 46 -5 0 -4 -4 4 -9 12
-8 13 -14 3 -36 -7 -14 -16 -24 -21 -21 -5 3 -12 -2 -15 -11 -6 -15 -8 -15
-16 -3 -6 8 -10 10 -10 4 0 -6 7 -17 15 -24 21 -18 19 -40 -5 -40 -11 0 -20 6
-20 13 0 6 -11 17 -25 23 -18 9 -24 9 -22 0 1 -6 10 -14 20 -18 10 -4 15 -12
12 -18 -10 -16 -43 -11 -48 8 -4 13 -5 11 -6 -5 -1 -26 -16 -31 -25 -8 -3 8
-1 15 4 15 6 0 10 7 10 15 0 8 -5 15 -10 15 -6 0 -9 -3 -8 -7 4 -13 -26 -53
-40 -53 -10 0 -10 5 -2 20 10 19 9 20 -14 14 -17 -4 -26 -2 -26 6 0 7 -5 6
-15 -4 -8 -8 -15 -19 -15 -25 0 -6 -7 -11 -16 -11 -11 0 -14 5 -10 16 4 10 1
14 -6 11 -7 -2 -26 0 -41 4 -25 7 -27 6 -17 -7 11 -12 9 -14 -11 -10 -13 3
-28 5 -33 5 -4 1 -5 8 -2 17 5 12 2 15 -11 9 -37 -15 -53 -17 -53 -6 0 5 -6 8
-14 5 -7 -3 -16 1 -19 9 -3 8 -17 12 -36 11 -17 -1 -34 2 -37 7 -3 5 0 9 7 9
20 0 1 14 -24 17 -12 2 -36 20 -54 41 -17 20 -35 34 -39 29 -12 -11 64 -85
126 -121 140 -83 279 -96 522 -51 73 13 149 29 168 35 54 17 140 28 140 18 0
-5 5 -6 10 -3 6 4 7 11 4 17 -4 6 -1 9 7 6 8 -3 14 -14 13 -26 0 -12 3 -19 8
-16 4 3 8 12 8 20 0 8 5 14 11 14 5 0 7 -5 3 -12 -4 -7 -3 -8 4 -4 7 4 18 4
25 -1 16 -11 57 -11 57 0 0 4 4 6 9 3 5 -3 8 -22 7 -42 -1 -19 3 -39 9 -43 15
-12 42 -9 42 5 0 7 -8 11 -18 9 -13 -3 -18 3 -17 23 0 15 -7 41 -16 57 -15 27
-15 30 0 33 9 2 21 -1 27 -7 6 -6 20 -11 30 -11 17 0 18 -2 6 -17 -13 -15 -11
-15 13 1 25 17 27 16 33 -3 3 -12 3 -25 0 -31 -9 -15 4 -12 21 4 11 11 11 16
1 20 -6 3 2 4 18 3 27 -2 30 -6 30 -34 0 -17 3 -29 7 -26 5 2 8 15 8 29 0 27
9 30 29 12 11 -10 13 -10 7 0 -9 16 26 16 42 0 9 -9 12 -7 12 10 0 26 5 24
-125 47 -118 21 -107 33 30 34 62 1 85 4 75 11 -8 5 -37 10 -65 10 -55 1 -73
11 -94 53 -8 15 -19 27 -24 27 -5 0 -4 -7 3 -14 6 -8 10 -25 8 -38 -3 -19 -9
-23 -45 -23 -23 0 -45 -4 -49 -8 -11 -11 -56 -8 -49 3 4 6 11 8 16 5 5 -4 6 3
1 17 -7 17 -3 31 14 56 14 20 24 28 27 20 3 -7 6 1 6 19 1 17 7 34 14 36 8 4
7 5 -3 6 -8 0 -24 -5 -36 -10z m-301 -210 c-4 -15 -8 -17 -14 -8 -8 14 -3 29
11 29 4 0 6 -9 3 -21z m-97 -9 c8 0 14 -9 14 -20 0 -15 -7 -20 -26 -20 -21 0
-25 4 -21 20 3 11 0 20 -6 20 -7 0 -5 5 3 10 10 6 16 6 18 0 2 -6 10 -10 18
-10z m375 10 c10 -6 19 -16 19 -23 0 -7 -4 -6 -10 3 -6 10 -10 11 -10 3 0 -19
-25 -16 -41 4 -10 11 -10 14 -1 9 6 -4 12 -2 12 3 0 14 6 14 31 1z m-621 -70
c0 -5 -7 -10 -16 -10 -8 0 -12 5 -9 10 3 6 10 10 16 10 5 0 9 -4 9 -10z"/>
<path d="M1251 2144 c0 -11 3 -14 6 -6 3 7 2 16 -1 19 -3 4 -6 -2 -5 -13z"/>
<path d="M2511 2146 c-6 -8 -32 -19 -56 -25 -25 -6 -45 -15 -45 -20 0 -5 28 0
63 10 97 30 94 29 77 39 -20 13 -26 12 -39 -4z"/>
<path d="M1220 2131 c0 -6 4 -13 10 -16 6 -3 7 1 4 9 -7 18 -14 21 -14 7z"/>
<path d="M2670 2126 c0 -2 7 -7 16 -10 8 -3 12 -2 9 4 -6 10 -25 14 -25 6z"/>
<path d="M2981 2114 c0 -11 3 -14 6 -6 3 7 2 16 -1 19 -3 4 -6 -2 -5 -13z"/>
<path d="M1072 2108 c-7 -7 -11 -21 -11 -32 1 -21 1 -21 6 -1 3 11 10 26 15
33 13 15 6 16 -10 0z"/>
<path d="M1470 2112 c0 -5 -12 -26 -26 -47 -23 -34 -24 -41 -13 -68 l13 -30
13 39 c7 21 24 48 37 59 l24 20 -24 18 c-13 10 -24 14 -24 9z"/>
<path d="M1390 2094 c8 -10 15 -20 16 -22 1 -2 4 1 7 5 3 5 -4 15 -16 23 -21
12 -21 12 -7 -6z"/>
<path d="M3100 2096 c0 -2 8 -10 18 -17 15 -13 16 -12 3 4 -13 16 -21 21 -21
13z"/>
<path d="M962 2081 c-6 -4 -7 -12 -3 -20 6 -10 10 -9 15 4 3 9 10 14 15 10 5
-3 12 -2 15 3 6 10 -26 13 -42 3z"/>
<path d="M3140 2070 c0 -5 5 -10 10 -10 6 0 10 5 10 10 0 6 -4 10 -10 10 -5 0
-10 -4 -10 -10z"/>
<path d="M1261 2054 c0 -11 3 -14 6 -6 3 7 2 16 -1 19 -3 4 -6 -2 -5 -13z"/>
<path d="M925 2051 c-6 -11 13 -26 22 -17 4 3 1 6 -6 6 -7 0 -9 5 -6 10 3 6 4
10 1 10 -3 0 -7 -4 -11 -9z"/>
<path d="M1125 2051 c-3 -6 4 -15 15 -21 20 -11 21 -10 10 9 -12 23 -16 25
-25 12z"/>
<path d="M890 2035 c0 -8 2 -15 4 -15 2 0 6 7 10 15 3 8 1 15 -4 15 -6 0 -10
-7 -10 -15z"/>
<path d="M1640 2030 c0 -5 5 -30 12 -54 8 -32 9 -51 1 -68 -10 -22 -9 -23 36
-20 43 2 47 0 68 -32 11 -19 28 -59 37 -89 15 -52 40 -87 53 -74 3 4 -2 18
-11 31 -23 36 -13 53 32 48 l37 -3 -35 28 c-63 51 -78 72 -88 130 -5 31 -7 65
-5 77 5 21 5 21 -10 1 -25 -34 -29 -62 -12 -79 15 -15 14 -16 -13 -16 -36 0
-44 10 -66 78 -10 28 -22 52 -27 52 -5 0 -9 -4 -9 -10z"/>
<path d="M3505 2020 c-4 -6 -11 -8 -16 -5 -5 4 -9 1 -9 -4 0 -6 5 -11 11 -11
7 0 9 -12 5 -34 -4 -20 -2 -37 4 -41 15 -9 12 -25 -5 -25 -8 0 -15 7 -15 15 0
8 -4 15 -10 15 -5 0 -10 -7 -10 -15 0 -16 -12 -20 -24 -7 -13 13 -73 9 -73 -5
0 -7 3 -13 6 -13 3 0 49 -7 101 -15 123 -19 208 -19 283 1 108 28 268 124 231
138 -24 9 -41 7 -25 -3 10 -7 8 -10 -10 -16 -13 -4 -34 -16 -46 -27 -12 -12
-27 -17 -34 -13 -8 5 -10 4 -5 -3 7 -11 -11 -17 -41 -13 -7 1 -13 -3 -13 -9 0
-5 -4 -10 -10 -10 -5 0 -10 6 -10 13 0 6 -11 12 -25 12 -30 0 -29 1 -9 -19 14
-15 14 -16 0 -16 -9 0 -16 5 -16 10 0 6 -5 10 -11 10 -5 0 -7 -4 -4 -10 3 -5
-1 -10 -9 -10 -8 0 -18 5 -22 12 -5 7 -11 5 -21 -7 -7 -11 -13 -13 -13 -7 0 7
-4 12 -10 12 -5 0 -7 -7 -4 -15 4 -9 0 -15 -10 -15 -9 0 -16 6 -16 14 0 7 -6
19 -14 25 -10 9 -15 8 -20 -4 -3 -8 -1 -15 4 -15 6 0 10 -4 10 -10 0 -20 -18
-9 -38 22 -20 31 -20 31 -19 6 1 -15 6 -24 11 -20 5 3 6 0 2 -6 -11 -18 -22
-14 -41 14 -12 19 -13 29 -5 38 6 8 9 28 8 45 -2 34 -4 36 -13 21z"/>
<path d="M3596 2003 c-6 -14 -5 -15 5 -6 7 7 10 15 7 18 -3 3 -9 -2 -12 -12z"/>
<path d="M800 1995 c-7 -9 -8 -15 -2 -15 5 0 12 7 16 15 3 8 4 15 2 15 -2 0
-9 -7 -16 -15z"/>
<path d="M3252 1929 c3 -8 -2 -20 -11 -27 -9 -8 -10 -11 -3 -7 8 4 12 -1 12
-15 0 -12 -4 -19 -9 -15 -5 3 -12 1 -15 -3 -3 -5 4 -9 16 -8 18 1 22 8 24 39
1 20 -3 40 -9 44 -5 3 -7 0 -5 -8z"/>
<path d="M2865 1920 c4 -6 10 -8 15 -5 11 7 18 -51 8 -69 -5 -9 -15 -16 -22
-16 -8 0 -16 -9 -19 -21 -3 -12 -10 -18 -16 -14 -7 3 -11 -2 -11 -14 0 -12 5
-21 10 -21 6 0 10 -6 10 -13 0 -14 -39 -41 -48 -33 -3 3 1 6 8 6 7 0 10 3 7 6
-4 4 -13 1 -21 -5 -12 -10 -16 -7 -21 22 -4 21 -2 44 6 58 11 21 10 23 -3 11
-12 -10 -18 -9 -28 3 -7 8 -16 12 -21 9 -5 -3 -3 -11 4 -18 6 -8 15 -12 20 -9
4 2 7 -19 7 -46 0 -31 4 -51 11 -51 6 0 9 -6 6 -14 -3 -8 -1 -17 6 -20 8 -3 4
-11 -10 -22 -13 -9 -23 -21 -23 -26 0 -5 7 -2 16 7 20 20 32 11 14 -10 -8 -9
-9 -15 -2 -15 6 0 15 6 19 14 11 19 47 36 77 36 14 0 28 5 31 10 3 6 12 10 18
10 8 0 7 -3 -2 -9 -11 -7 -11 -9 0 -13 8 -3 19 2 26 11 10 14 12 13 10 -7 -2
-38 -53 -67 -120 -69 -67 -2 -78 -7 -48 -23 12 -6 21 -20 21 -30 0 -26 13 -25
25 2 10 21 37 38 34 21 -4 -23 2 -43 12 -38 6 4 8 10 5 13 -3 3 3 12 14 19 11
8 18 18 15 23 -3 5 11 14 30 20 19 6 46 26 61 43 14 18 23 27 20 20 -7 -12 29
-89 46 -99 5 -3 14 -18 20 -32 35 -88 -10 -167 -85 -149 -21 6 -21 6 -3 -8 58
-44 135 28 136 126 0 36 -45 139 -61 139 -14 0 -11 -23 6 -47 10 -14 12 -24 5
-28 -5 -3 -10 0 -10 8 0 8 -9 24 -20 37 -11 13 -20 26 -20 30 0 14 39 55 40
43 0 -7 -4 -13 -9 -13 -5 0 -12 -8 -15 -17 -6 -16 -6 -16 12 0 10 9 24 17 30
17 8 0 10 9 6 24 -4 18 -1 27 14 35 26 14 35 14 27 1 -3 -5 0 -10 9 -10 8 0
17 -6 20 -12 3 -7 3 0 -1 15 -5 26 -3 28 23 24 15 -2 30 -9 32 -15 5 -15 -3
-15 -31 -1 -20 9 -21 9 -4 -4 10 -8 14 -17 10 -19 -4 -3 -2 -3 6 -1 8 2 24 -3
37 -12 22 -14 23 -14 17 2 -3 10 -3 15 1 12 4 -4 8 -16 11 -28 2 -11 7 -27 12
-34 4 -6 8 -16 9 -22 5 -35 48 -154 66 -187 24 -41 61 -59 81 -38 9 10 8 12
-5 7 -23 -8 -65 27 -77 66 -5 17 -19 75 -31 128 -25 113 -58 162 -121 179 -53
15 -95 2 -159 -49 -28 -22 -57 -41 -63 -41 -8 0 -7 3 1 9 10 6 4 12 -19 22
l-33 13 30 13 c26 11 26 12 7 13 -19 0 -23 6 -23 30 0 17 9 38 22 50 12 11 17
20 11 20 -14 0 -43 -28 -43 -40 0 -5 -6 -7 -12 -5 -9 4 -13 -5 -13 -24 0 -21
4 -27 15 -23 8 2 4 -4 -10 -14 -14 -10 -29 -19 -35 -19 -29 -1 -34 67 -7 87
10 7 24 22 30 33 6 11 12 14 12 8 0 -7 5 -13 10 -13 6 0 3 11 -5 24 -13 19
-14 29 -5 45 10 19 8 21 -20 21 -19 0 -29 -4 -25 -10z m-10 -220 c-3 -5 -1
-10 4 -10 6 0 11 5 11 10 0 6 8 10 18 10 14 0 14 -2 3 -9 -11 -7 -10 -10 5
-14 10 -2 4 -4 -14 -4 -19 0 -38 -6 -43 -14 -5 -8 -9 -10 -9 -6 0 11 20 47 26
47 3 0 2 -4 -1 -10z m101 -3 c4 -7 4 -9 -1 -5 -4 4 -14 3 -20 -2 -9 -7 -14 -7
-18 3 -6 16 30 20 39 4z m-136 -12 c0 -8 -4 -15 -10 -15 -5 0 -7 7 -4 15 4 8
8 15 10 15 2 0 4 -7 4 -15z m63 -120 c-3 -9 -8 -14 -10 -11 -3 3 -2 9 2 15 9
16 15 13 8 -4z"/>
<path d="M1166 1903 c-6 -14 -5 -15 5 -6 7 7 10 15 7 18 -3 3 -9 -2 -12 -12z"/>
<path d="M2670 1900 c0 -5 5 -10 11 -10 5 0 7 5 4 10 -3 6 -8 10 -11 10 -2 0
-4 -4 -4 -10z"/>
<path d="M3195 1900 c-19 -8 -19 -9 3 -9 12 -1 22 4 22 9 0 6 -1 10 -2 9 -2 0
-12 -4 -23 -9z"/>
<path d="M1209 1894 c-1 -5 -1 -12 0 -16 0 -5 -7 -8 -16 -8 -17 -1 -17 -1 0
-11 9 -5 17 -21 17 -34 0 -19 -5 -25 -22 -25 -12 0 -34 -12 -50 -27 l-28 -27
-22 21 c-50 45 -89 58 -178 58 -70 -1 -95 -5 -140 -26 -113 -52 -170 -130
-170 -231 0 -44 4 -54 34 -84 34 -34 78 -45 92 -23 4 7 0 9 -13 5 -14 -5 -30
2 -51 22 -27 25 -30 33 -26 78 1 27 4 57 4 67 1 9 7 17 14 17 7 0 21 9 30 19
10 11 31 25 47 31 16 7 29 18 29 25 0 9 13 13 38 13 20 0 53 1 74 2 31 3 34 5
22 17 -21 21 -18 36 5 24 23 -13 35 -3 19 16 -14 17 -6 25 16 17 11 -4 15 -13
10 -26 -4 -15 -2 -19 7 -16 8 3 23 1 34 -5 16 -8 18 -7 8 4 -18 19 -16 29 5
22 17 -6 42 -31 42 -43 0 -4 -13 -7 -29 -6 -16 1 -27 5 -24 10 3 5 0 7 -8 4
-23 -8 -16 -28 16 -46 16 -9 42 -30 57 -47 21 -22 28 -25 28 -13 0 9 4 19 9
22 13 9 0 -37 -15 -49 -6 -5 -17 -40 -24 -78 -14 -76 -54 -133 -86 -120 -12 4
-15 3 -10 -5 11 -18 41 -15 58 6 23 25 48 78 64 134 l15 49 22 -27 c67 -81 96
-107 111 -101 9 4 15 2 13 -4 -1 -6 9 -18 23 -27 23 -16 24 -16 12 0 -8 9 -10
23 -6 29 4 8 3 9 -4 5 -17 -10 -15 9 3 24 12 10 16 8 25 -15 6 -15 8 -36 5
-46 -4 -11 -2 -19 3 -19 6 0 9 18 8 39 -1 43 20 66 50 54 12 -4 15 -3 10 5 -4
8 0 12 11 12 14 0 15 2 4 9 -10 6 -10 10 -1 16 15 9 32 -8 25 -26 -3 -8 -23
-21 -45 -31 -36 -15 -39 -20 -38 -51 1 -40 18 -51 94 -63 l48 -7 -27 32 -27
33 22 28 c25 29 42 30 33 0 -3 -10 0 -29 6 -44 9 -20 9 -29 0 -40 -7 -8 -10
-20 -6 -25 3 -6 -17 -34 -45 -62 -38 -38 -43 -46 -20 -33 16 10 41 28 54 41
26 24 63 32 50 11 -5 -8 -2 -9 11 -5 9 4 24 2 32 -5 22 -18 50 -20 50 -3 0 10
-5 11 -18 4 -14 -7 -21 -5 -31 11 -7 11 -23 20 -35 20 -16 0 -23 6 -23 20 0
13 7 20 20 20 11 0 20 -7 20 -15 0 -8 5 -15 10 -15 7 0 7 6 0 19 -18 35 -13
54 14 49 18 -4 23 -1 19 9 -3 8 -14 13 -24 10 -11 -3 -17 -2 -14 3 3 4 -2 11
-11 14 -13 5 -15 1 -12 -19 3 -14 2 -25 -2 -25 -9 0 -20 25 -20 43 0 15 56 41
69 33 5 -3 12 1 15 10 3 8 10 13 15 9 5 -3 12 -1 16 5 3 5 -1 10 -9 10 -8 0
-18 -4 -21 -10 -3 -5 -11 -10 -16 -10 -6 0 -7 6 -3 13 6 9 4 9 -8 -1 -11 -9
-18 -10 -23 -2 -11 17 -25 11 -25 -12 0 -17 -3 -19 -12 -10 -9 9 -9 15 0 24 7
7 12 21 12 33 0 11 4 16 8 10 9 -12 72 -15 72 -4 0 5 -6 10 -12 10 -7 1 -20 2
-28 3 -16 1 -16 6 -2 74 7 31 6 42 -3 42 -8 0 -10 -9 -7 -26 6 -34 -14 -46
-49 -29 -49 26 -47 68 3 58 22 -4 29 -3 24 5 -4 7 -12 12 -18 12 -6 0 -17 8
-24 18 -12 16 -13 15 -22 -8 -5 -13 -8 -43 -7 -65 2 -22 -2 -46 -7 -53 -8 -9
-7 -11 7 -6 15 6 17 3 13 -19 -3 -15 -1 -27 4 -27 5 0 7 -4 4 -9 -4 -5 0 -12
6 -15 7 -3 2 -3 -11 0 -14 4 -21 2 -17 -4 3 -5 -3 -19 -13 -31 -29 -33 -36 -7
-10 31 16 22 19 33 11 36 -7 2 -10 8 -6 13 3 5 0 9 -6 9 -7 0 -10 6 -7 13 2 6
-3 17 -12 24 -11 9 -12 12 -3 13 7 0 10 5 6 11 -4 8 -9 7 -15 -2 -4 -7 -11
-10 -15 -6 -4 3 -1 14 6 23 11 13 11 17 1 24 -9 5 -10 10 -3 14 6 4 9 13 5 21
-6 18 8 19 27 3 8 -7 6 -3 -5 10 -11 14 -22 19 -28 13 -14 -14 -43 21 -40 49
1 14 0 17 -3 8 -8 -26 -24 -22 -24 6 0 13 -7 29 -15 36 -8 7 -12 16 -9 21 3 5
-2 6 -11 3 -14 -6 -13 -9 4 -26 25 -23 28 -68 5 -68 -13 0 -14 -3 -5 -13 6 -8
8 -17 4 -20 -3 -4 -1 -7 6 -7 7 0 9 -5 5 -11 -6 -11 -29 20 -34 46 -1 6 -6 15
-11 21 -4 6 -11 32 -13 58 -4 44 -14 73 -17 50z m-324 -84 c3 -6 -1 -7 -9 -4
-10 4 -16 1 -16 -7 0 -7 -3 -10 -6 -6 -7 7 4 27 16 27 5 0 12 -4 15 -10z m-32
-44 c7 4 9 4 5 0 -3 -4 -10 -8 -15 -8 -4 0 -14 -5 -21 -11 -11 -9 -13 -7 -10
9 4 25 22 38 26 19 2 -9 9 -12 15 -9z m327 -7 c-13 -6 -28 -15 -32 -22 -6 -9
-8 -9 -8 0 0 14 29 33 50 32 8 0 4 -5 -10 -10z m55 2 c3 -5 1 -12 -5 -16 -13
-8 -13 -25 1 -25 5 0 7 5 4 10 -11 18 3 11 33 -17 57 -53 62 -56 68 -39 10 26
24 7 20 -27 -4 -40 -19 -43 -83 -19 -48 18 -123 69 -123 84 0 4 16 15 35 24
19 9 32 20 29 25 -3 5 -1 9 5 9 5 0 12 -4 16 -9z m-165 -27 c0 -8 4 -13 9 -9
5 3 12 2 15 -3 2 -4 -5 -9 -17 -10 -17 -1 -22 4 -22 22 0 13 3 22 8 19 4 -2 7
-11 7 -19z m-354 -3 c-4 -5 0 -12 6 -14 8 -3 6 -6 -4 -6 -18 -1 -24 10 -11 22
9 10 15 8 9 -2z m324 -5 c0 -3 -4 -8 -10 -11 -5 -3 -10 -1 -10 4 0 6 5 11 10
11 6 0 10 -2 10 -4z m288 -31 c-3 -3 -9 2 -12 12 -6 14 -5 15 5 6 7 -7 10 -15
7 -18z m-185 -35 c3 -11 1 -18 -4 -14 -5 3 -9 12 -9 20 0 20 7 17 13 -6z m44
-30 c1 -11 -2 -20 -5 -20 -4 0 -8 9 -9 20 -1 11 2 20 5 20 4 0 8 -9 9 -20z
m-33 -16 c3 -8 2 -12 -4 -9 -6 3 -10 10 -10 16 0 14 7 11 14 -7z m-30 -10 c3
-8 2 -12 -4 -9 -6 3 -10 10 -10 16 0 14 7 11 14 -7z m120 -16 c9 -21 15 -27
15 -15 1 10 5 16 10 13 4 -3 6 -17 4 -30 -5 -26 -29 -53 -39 -43 -7 7 -15 107
-9 107 3 0 11 -15 19 -32z m-49 -19 c-5 -14 -3 -19 4 -15 6 4 13 -4 17 -18 8
-33 -1 -59 -11 -31 -4 11 -11 30 -17 42 -6 11 -7 26 -4 32 12 18 18 12 11 -10z
m131 -16 c-2 -17 -10 -29 -21 -31 -10 -2 -15 0 -11 6 3 6 2 13 -3 17 -16 9 -1
35 19 35 14 0 18 -6 16 -27z m-156 -5 c0 -19 -2 -20 -10 -8 -13 19 -13 30 0
30 6 0 10 -10 10 -22z m320 7 c0 -8 -4 -15 -10 -15 -5 0 -10 7 -10 15 0 8 5
15 10 15 6 0 10 -7 10 -15z m-111 -117 c-5 -10 -16 -15 -24 -12 -20 8 -29 42
-15 59 10 12 15 11 30 -8 13 -15 15 -27 9 -39z m98 20 c-3 -8 -6 -5 -6 6 -1
11 2 17 5 13 3 -3 4 -12 1 -19z m-72 -38 c3 -5 1 -10 -4 -10 -6 0 -11 5 -11
10 0 6 2 10 4 10 3 0 8 -4 11 -10z"/>
<path d="M1437 1878 c-11 -41 -7 -85 8 -98 21 -18 33 -3 37 43 1 27 -4 43 -19
58 l-20 21 -6 -24z"/>
<path d="M2871 1873 c-1 -12 -7 -24 -13 -26 -10 -4 -10 -6 0 -6 15 -1 26 23
19 41 -3 7 -6 3 -6 -9z"/>
<path d="M3042 1879 c1 -8 -6 -26 -16 -41 -12 -18 -15 -35 -10 -50 6 -20 5
-21 -8 -10 -13 10 -17 10 -21 -2 -8 -20 8 -29 33 -21 21 7 26 20 11 29 -13 9
-1 49 20 66 16 13 16 17 3 29 -13 11 -15 11 -12 0z"/>
<path d="M1070 1871 c0 -6 4 -13 10 -16 6 -3 7 1 4 9 -7 18 -14 21 -14 7z"/>
<path d="M2790 1868 c0 -9 -6 -19 -12 -21 -10 -4 -10 -6 0 -6 14 -1 28 26 18
36 -3 4 -6 -1 -6 -9z"/>
<path d="M3180 1866 c0 -8 -3 -21 -6 -30 -4 -10 -1 -16 8 -16 10 0 15 10 14
30 -1 29 -16 44 -16 16z"/>
<path d="M1105 1861 c-3 -5 -2 -12 3 -15 5 -3 9 1 9 9 0 17 -3 19 -12 6z"/>
<path d="M2640 1866 c0 -2 7 -9 15 -16 13 -11 14 -10 9 4 -5 14 -24 23 -24 12z"/>
<path d="M2810 1863 c0 -6 8 -17 18 -24 16 -13 16 -13 2 6 -8 11 -16 22 -17
24 -2 2 -3 0 -3 -6z"/>
<path d="M3161 1861 c-1 -8 -9 -24 -18 -35 -16 -20 -16 -20 6 0 13 12 21 28
18 35 -4 11 -6 11 -6 0z"/>
<path d="M1328 1828 c-9 -5 -6 -8 10 -8 16 0 27 -10 38 -32 l15 -33 -6 30 c-4
17 -11 32 -16 33 -5 2 -7 7 -5 11 7 10 -20 10 -36 -1z"/>
<path d="M1390 1829 c0 -5 5 -7 10 -4 6 3 10 8 10 11 0 2 -4 4 -10 4 -5 0 -10
-5 -10 -11z"/>
<path d="M2986 1832 c-2 -4 -1 -14 4 -22 7 -11 9 -9 7 8 -1 24 -3 26 -11 14z"/>
<path d="M1500 1808 c0 -18 17 -40 57 -76 32 -29 61 -52 65 -52 4 0 8 -4 8
-10 0 -5 -12 -10 -26 -10 -19 0 -25 -4 -21 -14 3 -8 9 -30 12 -50 8 -40 35
-58 35 -23 0 12 8 33 17 47 12 17 13 25 5 28 -7 2 -12 12 -12 22 0 10 -5 41
-11 68 -11 48 -13 50 -51 55 -22 3 -48 13 -59 23 -18 16 -19 16 -19 -8z"/>
<path d="M2670 1815 c-6 -8 -10 -19 -8 -24 1 -6 8 1 15 14 13 28 11 31 -7 10z"/>
<path d="M1240 1811 c0 -6 4 -13 10 -16 6 -3 7 1 4 9 -7 18 -14 21 -14 7z"/>
<path d="M2280 1806 c0 -2 9 -6 20 -9 11 -3 18 -1 14 4 -5 9 -34 13 -34 5z"/>
<path d="M2643 1781 c1 -14 9 -26 17 -28 10 -3 11 -2 4 4 -7 4 -14 17 -17 28
-5 16 -5 15 -4 -4z"/>
<path d="M2965 1790 c-3 -5 -1 -10 4 -10 6 0 11 5 11 10 0 6 -2 10 -4 10 -3 0
-8 -4 -11 -10z"/>
<path d="M2180 1775 c-11 -13 -8 -15 19 -15 36 0 39 5 12 19 -14 8 -22 7 -31
-4z"/>
<path d="M1010 1771 c0 -6 4 -13 10 -16 6 -3 7 1 4 9 -7 18 -14 21 -14 7z"/>
<path d="M920 1750 c0 -23 13 -26 29 -6 9 11 8 15 -5 20 -23 9 -24 8 -24 -14z"/>
<path d="M2714 1738 c-12 -14 -13 -18 -3 -10 9 6 19 9 22 5 4 -3 7 1 7 10 0
22 -3 21 -26 -5z"/>
<path d="M2644 1701 c16 -17 16 -19 0 -25 -15 -6 -15 -8 -1 -24 11 -12 13 -22
7 -32 -8 -13 -10 -12 -10 3 0 20 -13 22 -42 6 l-21 -11 23 -13 c13 -7 24 -22
25 -34 1 -16 -1 -18 -12 -10 -8 7 -13 8 -13 1 0 -6 -12 -7 -33 -2 -24 5 -34 4
-34 -5 0 -8 7 -11 16 -7 13 4 12 1 -3 -16 -19 -22 -19 -22 3 -41 14 -12 18
-22 11 -26 -5 -3 -17 1 -26 10 -17 16 -95 18 -94 2 0 -4 -6 -23 -14 -42 -11
-26 -12 -35 -3 -35 7 0 6 -4 -3 -10 -12 -7 -12 -12 -2 -22 32 -32 -7 -146 -71
-207 l-36 -34 4 37 c1 20 0 34 -4 32 -10 -6 -46 23 -38 31 4 4 13 1 19 -5 16
-16 25 -15 32 4 4 9 2 13 -5 8 -6 -4 -15 0 -20 7 -7 11 -13 11 -38 -4 -16 -9
-37 -17 -48 -18 -13 -1 -11 -3 7 -8 17 -5 24 -14 23 -28 -1 -11 9 -31 22 -43
29 -27 31 -42 8 -61 -53 -45 -71 -201 -34 -299 48 -126 136 -186 264 -181 42
2 87 51 86 93 -1 22 -3 26 -6 11 -2 -12 -16 -33 -31 -48 -24 -24 -32 -26 -77
-21 -27 3 -58 6 -69 6 -10 1 -16 4 -12 7 5 5 -24 44 -76 102 -13 15 -18 26
-11 28 8 3 7 17 -2 51 -8 30 -9 56 -3 72 5 15 5 26 -2 30 -5 3 -9 18 -8 32 1
15 5 25 9 22 4 -2 5 -14 2 -27 -3 -13 6 -4 20 20 14 24 37 53 51 67 26 24 35
43 14 30 -7 -4 -8 -3 -4 4 10 16 26 15 26 -2 0 -8 16 -16 43 -20 112 -17 176
-58 161 -102 -5 -15 -4 -16 5 -8 38 35 -20 93 -121 121 -32 9 -58 20 -58 25 0
4 5 8 11 8 5 0 8 4 5 9 -3 5 7 14 23 21 21 8 28 17 24 28 -4 9 -2 13 4 9 16
-10 64 39 57 58 -4 10 -2 15 7 13 7 -2 24 18 39 44 27 50 47 74 37 46 -4 -10
-2 -18 3 -18 6 0 10 -9 10 -20 0 -22 53 -86 84 -101 l21 -10 -21 18 c-21 18
-71 86 -66 91 1 1 2 3 1 5 -1 1 -2 22 -4 47 -2 25 -1 39 2 33 2 -7 17 -13 31
-14 26 0 26 -1 5 -9 -13 -5 -23 -12 -23 -14 0 -6 63 14 74 25 5 4 15 5 22 2 8
-3 14 0 14 6 0 14 89 -24 119 -52 l24 -22 -18 28 c-33 51 -101 73 -180 58 -27
-5 -52 -7 -54 -5 -8 8 -4 76 5 82 5 4 9 16 9 27 0 12 6 19 14 17 11 -2 12 0 3
10 -11 14 -11 42 0 54 4 3 2 17 -3 31 -5 14 -7 29 -3 34 3 5 0 9 -6 9 -7 0
-10 6 -7 13 3 7 -8 22 -24 33 -16 10 -29 22 -29 27 0 4 -5 7 -12 7 -6 0 -4 -8
6 -19z m26 -162 c0 -16 5 -29 10 -29 13 0 12 -18 -3 -54 -12 -28 -13 -28 -15
20 -1 27 -4 62 -8 78 -4 19 -3 26 5 22 6 -4 11 -20 11 -37z m27 -1 c-3 -8 -6
-5 -6 6 -1 11 2 17 5 13 3 -3 4 -12 1 -19z m-69 -21 c-4 -27 -41 -40 -65 -22
-17 13 -17 14 2 32 26 25 67 19 63 -10z m-114 -43 c20 -8 21 -33 1 -40 -18 -7
-45 12 -45 32 0 15 18 18 44 8z m105 -49 c-16 -16 -22 -18 -39 -8 -10 7 -22 9
-25 4 -3 -5 1 -11 7 -14 9 -3 5 -12 -11 -28 -20 -19 -23 -20 -18 -5 4 10 2 24
-3 32 -9 9 -6 16 12 25 69 37 70 38 84 26 10 -10 9 -16 -7 -32z m-109 -25 c11
-6 17 -17 14 -24 -8 -21 17 -31 31 -13 13 18 42 22 63 9 23 -15 -22 -46 -54
-38 -24 6 -26 5 -14 -9 15 -18 12 -23 -16 -28 -10 -2 -28 -8 -38 -12 -14 -6
-23 -3 -33 11 -13 17 -12 19 14 25 15 3 35 1 43 -5 12 -8 13 -7 3 3 -6 7 -9
19 -7 26 3 7 -6 15 -20 19 -17 4 -26 13 -26 26 0 22 12 25 40 10z m146 -38
c-11 -10 -15 4 -8 28 l7 25 3 -23 c2 -13 1 -26 -2 -30z m-46 -52 c0 -5 -4 -10
-10 -10 -5 0 -10 5 -10 10 0 6 5 10 10 10 6 0 10 -4 10 -10z m-10 -28 c0 -14
-23 -32 -41 -32 -24 0 -35 20 -18 31 18 11 59 12 59 1z m-82 -28 c12 -8 20
-20 17 -25 -4 -5 -2 -9 4 -9 6 0 8 -6 6 -12 -6 -15 -55 -21 -55 -7 0 5 8 9 18
10 14 0 14 2 -3 8 -11 5 -25 4 -32 -1 -13 -10 -33 -3 -33 13 0 5 12 9 26 9 19
0 25 4 20 15 -7 19 4 19 32 -1z m-48 -69 c-7 -9 -15 -13 -18 -10 -3 3 -11 0
-19 -6 -9 -9 -13 -8 -13 0 0 10 13 15 33 12 4 0 7 4 7 9 0 6 5 10 11 10 8 0 7
-5 -1 -15z m-170 -28 c0 -20 0 -20 -14 -2 -8 11 -12 23 -9 28 8 13 23 -3 23
-26z m97 1 c-3 -8 -6 -5 -6 6 -1 11 2 17 5 13 3 -3 4 -12 1 -19z m43 -18 c0
-5 -5 -10 -11 -10 -5 0 -7 5 -4 10 3 6 8 10 11 10 2 0 4 -4 4 -10z m-72 -37
c1 -24 0 -25 -9 -10 -5 9 -7 22 -4 27 9 15 10 13 13 -17z m-32 -40 c-11 -11
-48 -14 -41 -3 3 5 16 10 27 10 12 0 18 -3 14 -7z m-36 -43 c0 -11 -5 -20 -11
-20 -5 0 -7 5 -3 12 5 8 1 9 -12 5 -18 -7 -18 -7 0 8 25 19 26 19 26 -5z m-24
-57 c-3 -4 -6 -1 -6 6 0 7 -4 9 -10 6 -11 -7 -14 8 -3 19 4 3 11 -1 16 -9 5
-9 6 -19 3 -22z m-21 -11 c-3 -3 -11 0 -18 7 -9 10 -8 11 6 5 10 -3 15 -9 12
-12z m9 -20 c2 -4 -4 -9 -15 -9 -10 -1 -19 2 -19 8 0 11 27 12 34 1z m23 -27
c0 -8 -4 -12 -9 -9 -5 3 -6 10 -3 15 9 13 12 11 12 -6z m-45 -40 c3 -13 1 -22
-3 -19 -9 5 -13 44 -5 44 2 0 6 -11 8 -25z m33 15 c3 -5 -1 -10 -9 -10 -9 0
-16 5 -16 10 0 6 4 10 9 10 6 0 13 -4 16 -10z m7 -45 c-2 -14 -8 -23 -12 -20
-10 6 -1 45 10 45 4 0 5 -11 2 -25z m6 -64 c3 -8 -1 -12 -9 -9 -7 2 -15 10
-17 17 -3 8 1 12 9 9 7 -2 15 -10 17 -17z m38 -51 c8 0 14 -5 14 -11 0 -19
-35 -4 -37 16 -2 11 0 14 3 8 3 -7 12 -13 20 -13z"/>
<path d="M2580 1510 c0 -5 5 -10 11 -10 5 0 7 5 4 10 -3 6 -8 10 -11 10 -2 0
-4 -4 -4 -10z"/>
<path d="M2490 1380 c0 -5 5 -10 11 -10 5 0 7 5 4 10 -3 6 -8 10 -11 10 -2 0
-4 -4 -4 -10z"/>
<path d="M2575 1350 c-3 -5 -1 -10 4 -10 6 0 11 5 11 10 0 6 -2 10 -4 10 -3 0
-8 -4 -11 -10z"/>
<path d="M3100 1699 c0 -5 5 -7 10 -4 6 3 10 8 10 11 0 2 -4 4 -10 4 -5 0 -10
-5 -10 -11z"/>
<path d="M3119 1683 c-13 -16 -12 -17 4 -4 16 13 21 21 13 21 -2 0 -10 -8 -17
-17z"/>
<path d="M1879 1658 c-2 -21 3 -63 7 -67 2 -3 10 4 17 14 11 15 24 17 77 13
53 -4 67 -9 86 -31 13 -15 32 -27 44 -27 25 0 27 17 3 24 -10 3 -27 19 -38 36
-13 19 -26 28 -35 24 -8 -3 -43 -8 -77 -11 -53 -5 -63 -3 -63 10 0 19 -20 33
-21 15z"/>
<path d="M2993 1590 c-9 -30 -11 -32 -12 -10 -1 20 -3 22 -11 10 -5 -8 -10
-11 -10 -6 0 5 -9 1 -20 -9 -21 -19 -27 -45 -11 -45 5 0 11 10 13 23 3 22 24
22 22 0 -3 -20 10 -16 40 12 15 14 23 25 17 25 -5 0 -11 8 -13 18 -2 11 -7 5
-15 -18z"/>
<path d="M2560 1579 c0 -5 5 -7 10 -4 6 3 10 8 10 11 0 2 -4 4 -10 4 -5 0 -10
-5 -10 -11z"/>
<path d="M1869 1522 l-25 -38 33 -17 c19 -9 41 -17 49 -17 13 0 13 3 0 22 -9
12 -16 32 -16 43 0 43 -16 46 -41 7z"/>
<path d="M2317 1510 c5 -20 15 -25 26 -13 8 7 -11 33 -23 33 -5 0 -6 -9 -3
-20z"/>
<path d="M2745 1510 c3 -5 8 -10 11 -10 2 0 4 5 4 10 0 6 -5 10 -11 10 -5 0
-7 -4 -4 -10z"/>
<path d="M2950 1499 c0 -6 -7 -8 -16 -5 -13 5 -14 4 -6 -7 7 -8 11 -16 9 -18
-1 -2 4 2 11 10 12 15 16 31 7 31 -3 0 -5 -5 -5 -11z"/>
<path d="M1613 1473 c0 -7 11 -13 24 -13 13 0 23 4 23 9 0 5 -10 11 -23 13
-15 3 -24 0 -24 -9z"/>
<path d="M2720 1486 c0 -2 7 -7 16 -10 8 -3 12 -2 9 4 -6 10 -25 14 -25 6z"/>
<path d="M2800 1475 c-7 -8 -15 -13 -19 -11 -4 3 -7 -4 -7 -15 0 -10 5 -19 11
-20 5 0 1 -4 -10 -9 -19 -8 -19 -9 4 -9 17 -1 22 3 17 15 -4 9 1 27 9 40 17
27 14 32 -5 9z"/>
<path d="M2836 1465 c4 -8 11 -15 16 -15 6 0 5 6 -2 15 -7 8 -14 15 -16 15 -2
0 -1 -7 2 -15z"/>
<path d="M2906 1465 c4 -8 8 -15 10 -15 2 0 4 7 4 15 0 8 -4 15 -10 15 -5 0
-7 -7 -4 -15z"/>
<path d="M1795 1460 c-16 -7 -17 -9 -3 -9 9 -1 20 4 23 9 7 11 7 11 -20 0z"/>
<path d="M1430 1450 c0 -5 5 -10 11 -10 5 0 7 5 4 10 -3 6 -8 10 -11 10 -2 0
-4 -4 -4 -10z"/>
<path d="M1669 1455 c-1 -3 -2 -11 -3 -17 -1 -8 -15 -13 -33 -13 -24 0 -29 -3
-21 -12 6 -7 14 -11 18 -8 4 2 15 -4 25 -15 17 -18 16 -19 -9 -26 l-26 -6 20
-18 c12 -10 30 -24 42 -32 29 -19 17 -57 -17 -53 -20 2 -23 -1 -15 -15 5 -10
6 -21 2 -25 -4 -5 -2 -5 4 -2 6 3 21 -1 33 -9 22 -16 22 -16 -36 -45 -90 -45
-149 -36 -173 26 -8 20 -7 32 2 44 12 14 11 14 -4 2 -36 -28 -18 -90 33 -117
58 -30 109 -28 174 6 52 27 60 29 74 16 11 -10 26 -13 41 -9 21 6 22 5 9 -9
-7 -9 -18 -13 -24 -10 -5 3 -1 -5 10 -18 11 -13 14 -20 8 -16 -7 4 -13 2 -13
-4 0 -6 7 -13 15 -16 8 -4 15 -10 15 -16 0 -5 -4 -7 -9 -4 -5 4 -7 -2 -4 -12
4 -17 -31 -73 -45 -70 -4 1 -19 -4 -34 -10 -15 -6 -59 -21 -97 -33 -39 -11
-86 -31 -103 -43 -33 -22 -48 -60 -30 -78 6 -6 8 -1 5 15 -7 36 34 63 125 82
152 33 177 43 216 85 30 34 36 47 36 86 0 49 -8 70 -50 124 -28 36 -47 75 -31
66 4 -3 14 7 21 22 12 23 14 24 18 8 3 -14 6 -16 12 -6 12 20 71 16 86 -5 12
-16 14 -16 14 -3 0 9 -9 20 -20 23 -11 3 -20 13 -20 21 0 13 -4 12 -30 -1 -27
-14 -30 -14 -30 0 0 10 5 13 12 9 7 -4 8 -3 4 5 -4 6 -12 9 -17 6 -14 -9 -23
23 -11 38 14 17 -2 42 -22 34 -9 -4 -28 5 -48 23 -17 16 -33 28 -35 26 -2 -1
4 -22 12 -46 17 -48 20 -94 5 -85 -6 3 -7 -1 -4 -9 3 -9 10 -16 15 -16 5 0 9
-4 9 -9 0 -5 -8 -7 -18 -4 -22 5 -52 53 -52 81 0 24 16 38 23 20 3 -7 6 0 6
16 1 28 0 28 -18 12 -14 -13 -21 -14 -27 -5 -4 7 1 19 14 30 12 9 22 20 22 23
0 7 -49 8 -51 1z m137 -99 c1 -14 -7 -33 -19 -43 -20 -18 -20 -18 -6 7 7 14
12 33 10 43 -1 9 1 17 6 17 4 0 9 -11 9 -24z m-128 -32 c-4 -3 -12 5 -18 18
-12 22 -12 22 6 6 10 -10 15 -20 12 -24z m132 -39 c0 -8 -4 -15 -9 -15 -13 0
-22 16 -14 24 11 11 23 6 23 -9z m-62 -76 c-7 -5 -22 -8 -33 -8 -16 1 -16 2 5
9 18 6 20 9 8 10 -10 1 -22 4 -28 5 -5 1 -14 3 -20 4 -5 0 -10 5 -10 10 0 5
10 7 22 3 16 -4 19 -2 13 8 -5 8 6 3 24 -9 25 -18 30 -26 19 -32z m12 -30 c0
-6 -4 -7 -10 -4 -5 3 -10 2 -10 -2 0 -11 -69 -37 -77 -29 -4 3 1 6 9 6 8 0 27
11 42 25 26 24 46 26 46 4z m30 -23 c0 -2 -7 -7 -16 -10 -8 -3 -12 -2 -9 4 6
10 25 14 25 6z m50 -68 c0 -13 -23 -5 -28 10 -2 7 2 10 12 6 9 -3 16 -11 16
-16z m5 -28 c3 -5 1 -10 -4 -10 -6 0 -11 5 -11 10 0 6 2 10 4 10 3 0 8 -4 11
-10z m-8 -61 c-15 -24 -20 -18 -11 16 4 18 9 23 14 14 5 -7 3 -20 -3 -30z
m-27 -29 c0 -5 -5 -10 -11 -10 -5 0 -7 5 -4 10 3 6 8 10 11 10 2 0 4 -4 4 -10z"/>
<path d="M2366 1423 c-36 -35 -38 -36 -33 -13 6 24 5 24 -8 5 -8 -11 -19 -25
-25 -32 -7 -8 -6 -14 1 -18 6 -5 3 -12 -8 -22 -10 -8 -11 -11 -3 -7 9 4 12 3
7 -2 -9 -9 -11 -10 -44 -13 -16 -2 -15 -3 2 -11 18 -8 17 -9 -7 -9 -27 -1 -58
-24 -58 -44 0 -6 6 -4 13 5 14 19 63 36 53 19 -5 -7 -1 -9 8 -5 9 3 16 1 16
-5 0 -6 7 -8 15 -5 8 4 13 10 10 15 -3 4 4 6 15 4 11 -2 20 1 20 6 0 6 4 8 9
5 5 -3 15 1 22 10 11 14 10 18 -6 31 -19 14 -18 15 13 11 18 -3 35 -1 38 4 3
4 -4 8 -16 8 -12 0 -18 4 -15 10 4 6 -1 7 -12 4 -11 -4 -5 6 15 24 29 28 43
62 24 62 -4 0 -25 -17 -46 -37z m-2 -113 c-6 -6 -15 -5 -24 1 -13 9 -12 10 3
5 9 -3 17 0 17 6 0 6 3 8 7 5 4 -4 2 -12 -3 -17z"/>
<path d="M2698 1426 c-4 -19 -1 -24 14 -23 21 2 24 20 4 36 -11 9 -15 6 -18
-13z"/>
<path d="M2816 1436 c7 -18 23 -20 44 -5 12 9 12 10 -4 5 -10 -4 -25 -1 -32 5
-12 10 -13 9 -8 -5z"/>
<path d="M1942 1420 c-30 -16 -32 -19 -15 -27 12 -7 29 -4 52 7 32 16 33 18
15 27 -14 8 -27 6 -52 -7z"/>
<path d="M1578 1393 c-10 -2 -18 -8 -18 -13 0 -4 9 -6 20 -3 11 3 20 9 20 14
0 5 -1 8 -2 8 -2 -1 -11 -3 -20 -6z"/>
<path d="M1286 1380 c-31 -10 -82 -53 -98 -85 -7 -14 -2 -12 16 8 15 15 37 34
50 42 25 17 106 26 121 14 6 -4 26 -4 45 0 l35 8 -53 11 c-60 14 -75 14 -116
2z"/>
<path d="M1865 1380 c3 -5 15 -10 26 -10 10 0 24 -9 31 -20 7 -11 19 -20 26
-20 8 0 12 -6 8 -15 -4 -12 -2 -13 14 -3 21 13 70 -2 70 -22 0 -6 -4 -9 -9 -6
-5 3 -15 -2 -22 -12 -13 -15 -12 -16 3 -4 15 12 17 11 15 -7 0 -11 -5 -17 -10
-14 -10 6 -61 -26 -53 -34 3 -3 12 0 20 6 27 23 49 9 51 -31 2 -31 0 -38 -15
-38 -22 0 -35 -16 -21 -24 5 -4 12 -2 16 4 12 20 27 10 23 -15 -3 -13 -2 -22
3 -20 4 3 11 0 15 -6 5 -8 1 -10 -12 -7 -10 3 -26 7 -34 9 -8 2 -21 10 -28 17
-7 6 -22 12 -33 12 -11 0 -22 7 -25 15 -4 8 -12 15 -20 15 -8 0 -14 5 -14 12
0 6 -3 8 -7 5 -8 -9 16 -55 46 -87 l23 -25 -17 28 c-17 26 -17 27 3 27 12 0
30 -10 42 -22 14 -16 20 -18 21 -7 1 8 4 3 8 -11 10 -32 -8 -44 -33 -22 -11 9
-16 11 -12 5 9 -16 1 -16 -24 -3 -15 8 -17 6 -13 -8 3 -12 14 -17 36 -17 27 0
32 -4 35 -27 2 -20 -1 -28 -12 -28 -23 0 -28 18 -9 29 10 6 13 11 7 11 -29 0
-33 -26 -10 -61 23 -34 26 -40 26 -60 0 -5 5 -7 10 -4 16 10 50 -5 50 -21 0
-8 5 -14 11 -14 6 0 9 6 6 14 -3 8 -1 17 6 19 7 2 4 3 -5 2 -10 -2 -21 1 -24
6 -3 5 -17 9 -31 9 -40 0 -22 9 30 16 51 5 51 5 61 -53 4 -26 2 -33 -10 -33
-14 0 -14 -3 -4 -15 7 -8 9 -15 4 -15 -5 0 0 -7 10 -15 11 -8 14 -15 7 -15 -7
0 -9 -4 -6 -10 3 -6 1 -10 -5 -10 -6 0 -9 -4 -5 -9 8 -15 -11 -22 -40 -15 -26
6 -34 29 -12 37 9 4 9 8 -2 15 -9 7 -10 11 -2 15 7 3 7 4 -1 3 -7 -2 -12 -11
-12 -20 1 -9 -4 -16 -12 -16 -16 0 -19 26 -4 35 5 3 7 11 4 19 -7 18 27 17 50
-3 18 -15 18 -15 7 7 -7 14 -21 22 -37 22 -14 0 -23 4 -20 8 3 5 -2 9 -10 9
-8 0 -17 -10 -19 -21 -27 -121 -32 -292 -11 -371 16 -60 68 -166 104 -211 25
-31 26 -31 45 -13 22 20 39 17 19 -3 -7 -7 -12 -24 -12 -39 0 -15 -7 -32 -15
-39 -12 -10 -15 -10 -15 0 0 8 -3 10 -6 7 -4 -4 -1 -13 5 -21 9 -11 9 -16 0
-22 -8 -5 -9 -3 -4 7 8 12 6 12 -8 1 -9 -8 -16 -17 -15 -20 4 -13 -24 -55 -51
-78 -14 -12 -23 -25 -19 -29 11 -12 89 68 120 122 17 29 33 53 37 53 4 0 7 8
8 18 0 9 10 48 22 87 11 38 21 95 21 125 0 78 -36 298 -66 409 -14 53 -23 105
-19 118 3 14 2 22 -3 19 -4 -2 -8 6 -8 20 0 16 6 24 17 24 10 0 21 5 24 11 4
6 1 10 -6 8 -26 -3 -39 1 -39 12 0 8 6 7 18 -2 15 -13 16 -12 4 3 -18 23 -5
41 24 35 13 -2 24 0 24 4 0 5 -13 9 -30 9 -16 0 -30 -5 -30 -11 0 -5 -5 -7
-12 -3 -6 4 -8 3 -4 -4 3 -6 3 -13 -2 -16 -4 -2 -9 9 -10 25 -2 24 1 30 15 29
31 -4 44 0 39 9 -3 4 -18 7 -33 5 -24 -4 -25 -3 -8 5 19 9 19 10 -2 10 -13 1
-23 5 -23 10 0 15 29 33 45 27 8 -3 15 -2 15 3 0 5 -9 11 -21 14 -32 8 -22 51
13 55 22 3 26 0 21 -17 -3 -12 -13 -21 -22 -22 -11 0 -10 -3 5 -9 30 -12 37
-26 20 -42 -12 -12 -9 -14 20 -14 19 1 34 3 35 6 0 3 2 13 4 23 2 9 -1 15 -6
11 -5 -3 -7 -10 -4 -15 4 -5 0 -9 -7 -9 -7 0 -19 9 -26 20 -7 12 -8 20 -2 20
5 0 10 8 10 18 0 15 -2 15 -11 2 -8 -12 -10 -12 -8 5 3 39 -1 53 -17 59 -8 3
-12 2 -9 -3 3 -5 1 -12 -5 -16 -11 -7 -13 9 -4 43 4 13 15 22 28 23 17 1 17 2
4 6 -10 2 -18 13 -18 23 0 15 -28 38 -35 28 -1 -2 -7 -34 -14 -73 -7 -38 -15
-81 -18 -95 -6 -25 -6 -25 -13 5 -4 17 -8 63 -9 103 0 40 -5 72 -11 72 -10 0
-14 -14 -11 -39 2 -7 -2 -10 -8 -6 -6 3 -11 1 -11 -4 0 -6 -15 -11 -32 -10
-26 0 -29 2 -14 8 19 7 19 8 -2 13 -12 4 -20 2 -16 -3 10 -17 -8 -9 -38 16
-29 25 -65 35 -53 15z m182 -132 c-3 -8 -6 -5 -6 6 -1 11 2 17 5 13 3 -3 4
-12 1 -19z m19 -197 c-4 -5 -1 -11 5 -13 14 -5 0 -38 -17 -38 -7 0 -17 -8 -23
-17 -5 -10 -13 -15 -17 -11 -4 4 -1 14 6 23 8 10 9 15 1 15 -6 0 -11 5 -11 11
0 5 5 7 12 3 8 -5 9 0 6 14 -5 18 -2 22 19 22 13 0 22 -4 19 -9z m20 -73 c5
-7 2 -8 -7 -3 -11 6 -12 5 -1 -6 20 -21 14 -29 -15 -19 -27 10 -27 10 -8 -6
16 -13 16 -15 3 -11 -10 3 -20 2 -23 -3 -10 -16 -34 -11 -45 9 -8 17 -7 19 15
17 17 -2 26 3 30 15 7 21 40 26 51 7z m-56 -248 c0 -19 -11 -26 -23 -14 -8 8
3 34 14 34 5 0 9 -9 9 -20z m120 -5 c13 -16 6 -35 -15 -35 -15 0 -28 27 -19
41 8 13 20 11 34 -6z m-86 -14 c3 -5 15 -7 25 -4 24 6 41 -35 20 -48 -12 -7
-12 -9 0 -9 8 0 19 7 26 17 15 20 35 9 35 -20 0 -20 0 -20 -15 -1 -8 10 -15
15 -14 9 3 -14 -13 -49 -25 -57 -6 -4 2 -8 18 -8 21 0 27 4 22 15 -3 8 -1 15
3 15 16 0 21 -31 6 -36 -8 -4 -15 -10 -15 -15 0 -4 7 -6 15 -3 10 4 15 0 15
-15 0 -12 -5 -21 -11 -21 -5 0 -7 5 -4 10 4 6 -5 10 -22 9 -17 -1 -21 -3 -10
-6 9 -2 17 -9 17 -14 0 -5 7 -9 15 -9 8 0 15 -7 15 -15 0 -11 -7 -14 -27 -10
-16 3 -22 2 -15 -1 6 -3 9 -11 5 -17 -3 -7 -3 -9 2 -5 11 10 47 -11 39 -24 -4
-7 -9 -6 -15 3 -4 7 -11 11 -14 8 -9 -9 6 -40 16 -33 5 3 9 -2 9 -10 0 -8 -6
-13 -12 -11 -14 6 -17 -38 -4 -67 4 -9 6 -27 4 -39 -3 -21 -4 -22 -19 -6 -16
15 -17 15 -22 -3 -6 -23 -27 -27 -27 -6 0 8 -14 28 -31 45 -33 33 -29 42 5 14
12 -10 8 -3 -8 14 -15 17 -25 36 -22 42 4 6 2 11 -3 11 -6 0 -11 8 -11 18 0
13 2 14 9 3 6 -9 8 -2 6 20 -2 19 -3 40 -4 47 -1 7 -6 10 -11 7 -7 -4 -9 2 -4
19 5 21 3 25 -10 20 -9 -3 -16 -1 -16 5 0 6 7 11 15 11 8 0 15 7 15 15 0 9 -6
12 -16 8 -11 -4 -15 -2 -13 6 3 7 8 12 12 12 4 -1 14 4 21 11 18 17 -3 32 -21
16 -10 -8 -13 -6 -13 6 0 9 5 16 11 16 17 0 40 28 29 35 -5 3 -10 1 -10 -4 0
-6 -7 -11 -15 -11 -22 0 -18 15 8 33 26 19 34 20 41 8z m-24 -240 c0 -6 -4
-13 -10 -16 -5 -3 -10 1 -10 9 0 9 5 16 10 16 6 0 10 -4 10 -9z m100 -206 c0
-8 -7 -15 -15 -15 -13 0 -14 3 -3 15 16 18 18 18 18 0z"/>
<path d="M2215 1349 c-4 -6 -5 -12 -2 -15 2 -3 7 2 10 11 7 17 1 20 -8 4z"/>
<path d="M1418 1343 c7 -3 16 -2 19 1 4 3 -2 6 -13 5 -11 0 -14 -3 -6 -6z"/>
<path d="M2176 1297 c3 -10 9 -15 12 -12 3 3 0 11 -7 18 -10 9 -11 8 -5 -6z"/>
<path d="M1640 1291 c0 -5 11 -11 25 -13 20 -4 23 -3 14 8 -13 16 -39 19 -39
5z"/>
<path d="M1570 1279 c0 -5 5 -7 10 -4 6 3 10 1 10 -4 0 -6 7 -11 16 -11 14 0
14 2 0 15 -17 17 -36 20 -36 4z"/>
<path d="M2315 1260 c-3 -5 -2 -10 4 -10 5 0 13 5 16 10 3 6 2 10 -4 10 -5 0
-13 -4 -16 -10z"/>
<path d="M1890 1250 c0 -5 5 -10 10 -10 6 0 10 5 10 10 0 6 -4 10 -10 10 -5 0
-10 -4 -10 -10z"/>
<path d="M2230 1244 c-17 -9 -20 -14 -9 -14 9 0 22 7 29 15 15 18 13 18 -20
-1z"/>
<path d="M1856 1230 c8 -30 23 -58 25 -47 1 4 2 13 3 20 0 6 11 13 24 15 34 5
26 17 -10 16 -18 -1 -37 4 -41 10 -5 6 -5 0 -1 -14z"/>
<path d="M1900 1201 c0 -6 6 -8 14 -5 8 3 23 -3 34 -14 19 -19 66 -20 77 -2 3
5 -4 6 -16 3 -12 -4 -25 0 -30 8 -7 12 -9 12 -9 -1 0 -10 -3 -11 -8 -3 -10 16
-62 28 -62 14z"/>
<path d="M2106 1152 c-3 -5 1 -9 9 -9 8 0 12 4 9 9 -3 4 -7 8 -9 8 -2 0 -6 -4
-9 -8z"/>
<path d="M2180 1100 c-9 -6 -10 -10 -3 -10 6 0 15 5 18 10 8 12 4 12 -15 0z"/>
<path d="M2081 781 c-10 -7 -10 -10 -1 -16 6 -4 16 -3 22 3 13 13 -4 23 -21
13z"/>
</g>
</svg>
