<?xml version="1.0" standalone="no"?>
<!DOCTYPE svg PUBLIC "-//W3C//DTD SVG 20010904//EN"
 "http://www.w3.org/TR/2001/REC-SVG-20010904/DTD/svg10.dtd">
<svg version="1.0" xmlns="http://www.w3.org/2000/svg"
 width="479.000000pt" height="520.000000pt" viewBox="0 0 479.000000 520.000000"
 preserveAspectRatio="xMidYMid meet">

<g transform="translate(0.000000,520.000000) scale(0.100000,-0.100000)"
fill="#000000" stroke="none">
<path d="M2438 5191 c-15 -5 -53 -24 -84 -42 l-58 -33 24 -15 c51 -34 76 -61
99 -106 20 -41 23 -57 19 -124 -6 -89 -40 -172 -110 -266 -170 -230 -208 -283
-208 -289 0 -4 12 2 28 14 31 25 169 127 296 219 139 101 200 192 219 326 19
129 -14 246 -84 298 -30 22 -100 31 -141 18z"/>
<path d="M2010 5068 c-19 -13 -45 -45 -59 -71 l-24 -48 -1 -409 -1 -408 41 67
c60 95 143 212 267 374 128 168 151 212 151 287 2 115 -61 184 -194 214 -96
22 -141 20 -180 -6z"/>
<path d="M1438 5024 c-37 -8 -88 -23 -114 -34 -67 -29 -180 -110 -255 -183
-71 -69 -93 -118 -87 -192 3 -35 6 -40 31 -43 31 -4 87 44 87 75 1 35 36 83
105 143 72 62 193 130 232 130 26 0 48 -30 58 -77 4 -18 10 -33 13 -33 15 0
160 141 165 161 4 14 -2 29 -18 45 -21 20 -33 24 -87 23 -35 0 -93 -7 -130
-15z"/>
<path d="M1732 4958 c-36 -68 -141 -191 -217 -255 -244 -206 -600 -343 -791
-304 -31 6 -60 8 -65 5 -18 -11 -10 -91 13 -119 46 -59 122 -69 245 -31 257
80 368 99 533 93 160 -5 228 -25 320 -93 57 -42 59 -43 66 -21 14 45 7 409
-10 512 -13 79 -61 255 -69 255 -1 0 -12 -19 -25 -42z"/>
<path d="M2780 4949 c0 -26 -68 -161 -116 -230 -62 -89 -161 -185 -303 -292
-74 -56 -157 -122 -185 -147 -28 -25 -76 -66 -106 -91 -131 -110 -133 -241 -5
-311 55 -30 83 -34 132 -16 49 18 136 -12 186 -64 l39 -41 40 39 c100 97 227
311 283 477 61 183 104 610 67 675 -16 28 -32 29 -32 1z"/>
<path d="M1357 4786 c-53 -29 -106 -71 -121 -98 -24 -40 -20 -49 17 -33 18 7
71 21 117 30 47 10 91 22 98 27 16 14 15 53 -2 67 -24 20 -79 23 -109 7z"/>
<path d="M3034 4501 c-120 -57 -174 -123 -233 -288 -59 -164 -95 -230 -191
-343 -26 -30 -65 -80 -87 -110 -23 -30 -58 -73 -78 -95 -50 -55 -162 -283
-180 -370 -36 -165 -29 -320 16 -361 25 -22 96 -29 142 -12 83 28 256 199 329
325 34 59 66 223 79 408 13 185 32 299 68 416 50 163 134 305 229 388 32 29
52 53 48 60 -13 20 -80 12 -142 -18z"/>
<path d="M1334 4260 c-103 -11 -202 -36 -262 -65 -139 -67 -309 -103 -412 -86
-30 5 -57 7 -59 5 -8 -7 79 -113 121 -147 153 -125 357 -197 633 -223 233 -21
313 -32 380 -55 81 -26 183 -37 252 -28 31 4 99 27 150 50 l94 42 -53 17
c-151 46 -338 196 -447 356 -37 55 -57 74 -100 95 -75 38 -182 52 -297 39z"/>
<path d="M317 3970 c-14 -16 -31 -54 -37 -84 -9 -45 -17 -58 -43 -74 -47 -28
-136 -111 -151 -141 -8 -14 -17 -64 -21 -110 -4 -47 -18 -123 -30 -170 -13
-47 -22 -87 -21 -88 1 -2 43 6 92 17 123 27 206 25 336 -7 l109 -27 57 19
c134 44 293 143 504 312 26 21 46 39 44 40 -1 2 -49 16 -106 33 -117 35 -168
59 -225 104 -97 78 -270 166 -324 166 -12 0 -38 9 -58 20 -55 29 -96 26 -126
-10z"/>
<path d="M1330 3645 c-107 -21 -223 -72 -287 -126 -179 -150 -224 -184 -302
-220 -157 -73 -285 -88 -403 -48 -75 27 -173 22 -263 -12 l-60 -22 80 -16 c45
-9 101 -28 129 -45 90 -53 186 -162 236 -269 50 -105 160 -129 234 -50 56 59
136 180 160 243 57 144 213 293 401 385 139 67 242 99 391 122 112 16 116 18
86 30 -49 20 -198 43 -271 42 -36 0 -95 -7 -131 -14z"/>
<path d="M2151 3549 c-57 -35 -197 -88 -273 -105 -40 -8 -136 -19 -213 -24
-264 -16 -437 -84 -602 -234 -104 -96 -203 -252 -203 -323 0 -52 -35 -149 -79
-219 -23 -37 -41 -68 -39 -69 10 -11 111 21 159 49 131 78 266 90 417 35 129
-46 198 -60 327 -65 146 -7 224 5 341 52 120 47 264 158 264 202 0 12 -13 36
-30 55 -41 47 -51 80 -51 168 0 97 22 183 83 334 66 160 64 151 36 158 -45 13
-103 7 -137 -14z"/>
<path d="M2752 3154 c-7 -3 -19 -21 -26 -39 -8 -19 -63 -82 -121 -141 l-107
-106 19 -27 c10 -14 44 -39 75 -54 55 -28 59 -28 220 -28 191 1 289 -14 386
-59 36 -17 66 -29 67 -28 1 2 -10 55 -26 118 -42 171 -80 229 -179 280 -97 49
-275 97 -308 84z"/>
<path d="M4186 3105 c-23 -17 -56 -20 -56 -5 0 6 -13 1 -29 -11 -16 -12 -36
-19 -44 -16 -8 3 -24 -5 -35 -18 -13 -15 -27 -22 -40 -18 -14 3 -24 -2 -32
-16 -6 -12 -15 -19 -20 -16 -4 3 -18 -11 -29 -31 -12 -20 -34 -41 -50 -47 -25
-9 -29 -17 -35 -64 -8 -70 -31 -124 -55 -130 -14 -3 -21 -17 -26 -50 -3 -24
-16 -54 -27 -65 -18 -18 -19 -27 -13 -91 9 -85 36 -184 68 -246 l24 -46 -29
-45 c-37 -58 -89 -161 -138 -275 -38 -88 -100 -311 -100 -357 0 -16 -11 -4
-38 43 -21 35 -41 73 -45 83 -4 11 -40 71 -79 135 -237 385 -505 689 -793 898
-105 76 -108 77 -128 44 l-16 -28 57 -39 c67 -45 393 -368 474 -469 74 -93
154 -208 229 -330 35 -55 77 -120 96 -144 18 -24 33 -48 33 -53 0 -4 11 -26
25 -49 26 -40 96 -178 263 -519 111 -227 174 -411 227 -661 l16 -77 67 6 c37
2 68 5 68 6 1 0 -7 44 -18 96 -11 52 -42 154 -70 225 -27 72 -60 157 -73 190
-38 100 -181 399 -217 455 -20 31 -23 47 -22 140 2 133 21 221 80 366 41 103
133 286 154 308 4 4 11 -1 14 -12 8 -25 97 -86 151 -105 37 -13 82 -14 248 -4
15 1 27 5 27 9 0 4 32 17 72 29 53 16 82 32 110 60 21 20 38 43 38 49 0 6 15
17 34 25 18 8 36 24 39 35 3 12 15 24 26 27 13 3 21 13 21 28 0 14 9 26 25 33
14 6 25 20 25 30 0 10 11 25 25 32 14 7 25 20 25 28 0 8 9 29 20 48 12 18 17
35 11 38 -6 4 -6 18 -1 38 5 17 7 35 4 39 -3 5 -2 15 3 22 4 6 9 23 10 37 7
97 13 141 21 157 5 10 8 41 7 68 -2 28 3 64 10 81 12 30 12 31 -12 26 -17 -3
-29 1 -35 12 -5 9 -19 16 -31 16 -13 0 -27 4 -33 10 -5 5 -32 11 -59 14 -29 2
-53 10 -59 18 -7 12 -15 13 -39 4 -23 -8 -31 -8 -34 2 -3 6 -17 12 -33 12 -16
0 -30 7 -34 15 -5 13 -10 13 -42 -2 -34 -17 -37 -17 -49 0 -11 15 -17 16 -40
5 -20 -9 -31 -9 -46 0 -23 14 -20 15 -43 -3z"/>
<path d="M2263 2700 c-18 -16 -55 -37 -83 -47 l-51 -18 7 -40 c16 -97 115
-255 195 -310 62 -44 115 -57 244 -62 l120 -5 -75 50 c-89 60 -132 114 -191
243 -42 93 -98 187 -122 207 -9 7 -21 2 -44 -18z"/>
<path d="M2016 2591 c-21 -33 -175 -71 -291 -71 -55 0 -55 0 -49 -27 10 -43
84 -213 112 -258 83 -135 113 -174 229 -305 3 -3 -5 20 -17 50 -69 172 -72
289 -10 415 22 45 33 85 37 134 5 66 2 84 -11 62z"/>
</g>
</svg>
