<?xml version="1.0" standalone="no"?>
<!DOCTYPE svg PUBLIC "-//W3C//DTD SVG 20010904//EN"
 "http://www.w3.org/TR/2001/REC-SVG-20010904/DTD/svg10.dtd">
<svg version="1.0" xmlns="http://www.w3.org/2000/svg"
 width="676.000000pt" height="635.000000pt" viewBox="0 0 676.000000 635.000000"
 preserveAspectRatio="xMidYMid meet">
<metadata>
Created by potrace 1.16, written by Peter Selinger 2001-2019
</metadata>
<g transform="translate(0.000000,635.000000) scale(0.100000,-0.100000)"
fill="#000000" stroke="none">
<path d="M2131 5567 c-118 -343 -131 -391 -131 -498 0 -61 2 -69 19 -69 10 0
65 -5 121 -10 129 -14 246 -55 339 -121 l70 -49 19 53 c10 28 27 76 38 105 10
29 21 51 24 50 3 -2 42 -22 87 -45 l82 -43 11 57 c27 127 84 232 187 343 l56
61 -59 60 c-85 87 -139 119 -462 282 l-289 146 -112 -322z"/>
<path d="M4092 5715 c-172 -84 -331 -168 -355 -186 -56 -43 -117 -101 -117
-111 0 -5 29 -43 64 -86 110 -134 153 -222 177 -358 6 -38 13 -70 14 -72 2 -2
47 17 101 42 53 26 99 45 101 43 2 -2 14 -41 28 -87 14 -46 27 -85 29 -88 3
-2 18 5 35 17 100 72 262 120 404 121 l67 0 0 98 c0 60 -7 126 -19 172 -22 90
-204 650 -211 649 -3 0 -146 -69 -318 -154z"/>
<path d="M3250 5574 c-299 -334 -312 -350 -349 -424 -36 -71 -53 -123 -65
-197 -5 -32 -5 -32 106 -90 169 -87 271 -192 313 -321 9 -28 27 -113 39 -189
16 -104 25 -139 37 -141 12 -2 20 22 38 114 12 64 31 144 42 179 24 79 86 172
148 224 42 35 186 114 256 141 22 9 24 13 19 62 -14 132 -60 235 -161 360 -69
85 -324 388 -327 388 0 0 -44 -48 -96 -106z"/>
<path d="M1625 4943 c3 -32 10 -157 15 -278 6 -121 18 -254 26 -295 16 -77 68
-194 107 -242 l22 -28 115 36 c188 57 314 57 445 -1 28 -12 114 -70 193 -129
78 -58 145 -106 147 -106 2 0 -39 66 -92 147 -116 177 -139 226 -151 320 -14
97 -1 183 43 308 44 122 46 116 -55 180 -79 51 -159 82 -248 95 -55 8 -524 50
-561 50 -7 0 -9 -20 -6 -57z"/>
<path d="M2614 4903 c-15 -43 -40 -109 -55 -148 -60 -155 -79 -233 -79 -318 1
-122 25 -181 165 -394 66 -101 122 -183 125 -183 3 0 30 30 60 66 30 36 73 75
95 88 22 12 102 59 177 104 76 44 147 83 158 87 25 8 25 0 -4 171 -43 263
-101 338 -361 474 -66 35 -147 78 -181 96 -33 19 -63 34 -66 34 -3 0 -18 -35
-34 -77z"/>
<path d="M3846 4850 c-104 -49 -206 -101 -228 -116 -57 -40 -119 -113 -150
-177 -23 -46 -88 -306 -88 -350 0 -7 78 -58 174 -115 175 -103 212 -135 299
-255 14 -20 4 -33 210 250 79 108 113 178 127 268 16 97 3 156 -121 553 -6 17
-16 32 -22 31 -7 0 -97 -40 -201 -89z"/>
<path d="M4696 4924 c-131 -7 -262 -18 -290 -25 -98 -23 -256 -106 -256 -134
0 -7 16 -64 35 -125 80 -254 57 -365 -127 -616 -52 -71 -98 -135 -102 -143
-11 -17 -19 -22 144 85 151 98 192 120 267 139 113 30 200 19 373 -44 l85 -31
38 42 c47 52 112 184 126 258 9 47 19 153 47 490 3 36 7 77 9 93 4 27 4 27
-53 26 -31 -1 -165 -8 -296 -15z"/>
<path d="M1405 4589 c-33 -4 -204 -55 -380 -113 -269 -88 -320 -108 -318 -123
4 -34 285 -598 328 -658 24 -33 59 -75 78 -94 l36 -34 80 67 c137 114 244 166
382 184 l57 7 -44 95 c-25 52 -43 99 -40 105 2 6 39 22 83 35 43 12 81 25 86
27 4 2 -7 24 -24 49 -67 97 -104 215 -114 366 -6 77 -9 87 -28 92 -29 8 -107
6 -182 -5z"/>
<path d="M5047 4534 c-3 -21 -9 -70 -12 -109 -12 -136 -55 -251 -131 -356 -19
-26 -34 -49 -34 -51 0 -3 42 -20 93 -38 50 -18 96 -36 100 -40 5 -4 -10 -44
-33 -89 -23 -45 -41 -83 -39 -85 2 -2 33 -9 69 -16 94 -19 224 -89 308 -166
38 -35 75 -64 80 -64 15 0 93 78 138 140 40 53 344 637 344 659 0 6 -4 11 -10
11 -5 0 -135 44 -287 97 -346 120 -387 132 -494 140 l-87 6 -5 -39z"/>
<path d="M3200 4137 c-249 -143 -293 -172 -343 -230 l-50 -59 44 7 c62 9 150
-9 198 -41 l41 -26 215 0 215 0 41 26 c48 32 136 50 198 41 l44 -7 -40 49
c-56 66 -60 69 -223 165 -240 141 -229 139 -340 75z"/>
<path d="M2065 4143 c-39 -8 -422 -125 -433 -132 -8 -5 21 -77 86 -216 115
-248 163 -310 286 -370 94 -47 355 -104 371 -82 6 8 49 81 95 163 85 147 132
205 227 277 23 18 41 35 40 39 -5 16 -360 267 -406 287 -82 35 -195 50 -266
34z"/>
<path d="M4382 4075 c-76 -17 -118 -40 -324 -176 l-156 -104 64 -55 c36 -30
78 -75 93 -100 58 -92 173 -293 187 -325 12 -30 18 -34 42 -30 15 3 83 14 151
25 158 26 233 60 316 144 50 51 78 94 165 261 58 110 104 201 103 204 -1 3
-99 40 -217 83 -242 88 -309 99 -424 73z"/>
<path d="M2785 3801 c-22 -10 -74 -48 -115 -84 -68 -59 -85 -81 -177 -241
-134 -229 -134 -208 -3 -430 107 -183 131 -212 230 -286 75 -57 135 -75 212
-65 51 7 118 38 118 55 0 4 -30 15 -66 24 -123 31 -129 37 -168 181 -41 152
-45 185 -42 325 2 117 7 152 36 260 42 158 59 178 174 204 74 17 78 20 60 33
-60 47 -185 58 -259 24z"/>
<path d="M3615 3806 c-16 -8 -39 -21 -49 -29 -18 -13 -14 -16 60 -33 120 -28
134 -45 177 -219 31 -124 35 -155 36 -270 0 -117 -4 -144 -36 -265 -19 -74
-39 -143 -44 -152 -13 -24 -54 -44 -133 -64 -36 -9 -66 -20 -66 -24 0 -5 16
-18 35 -30 28 -17 53 -23 113 -24 96 -1 138 18 238 109 61 55 86 89 168 229
101 172 118 210 109 248 -3 13 -51 101 -107 197 -92 159 -108 180 -176 239
-41 36 -93 73 -115 83 -48 22 -165 25 -210 5z"/>
<path d="M1575 3780 c-66 -13 -156 -51 -216 -89 -56 -36 -469 -380 -469 -390
0 -15 428 -391 482 -423 77 -48 158 -78 224 -85 l52 -6 57 113 c66 127 136
211 223 264 67 40 129 59 272 81 145 22 150 23 150 40 0 8 -2 15 -3 15 -2 0
-69 14 -148 30 -176 38 -251 72 -336 155 -51 51 -71 82 -120 183 l-58 122 -35
-1 c-19 -1 -53 -5 -75 -9z"/>
<path d="M3045 3726 c-66 -18 -130 -38 -142 -45 -23 -12 -26 -20 -78 -214 -27
-101 -28 -175 -4 -254 11 -36 77 -100 111 -107 52 -12 143 -26 165 -26 l23 0
-31 56 c-54 95 -42 204 31 288 83 94 220 111 325 40 20 -14 39 -23 42 -21 2 3
-4 49 -13 102 -25 140 -62 186 -163 205 -84 16 -137 11 -266 -24z"/>
<path d="M3440 3719 c41 -43 54 -76 65 -170 4 -31 10 -61 14 -67 4 -6 40 -16
81 -23 97 -14 129 -28 173 -74 21 -21 37 -32 37 -25 0 13 -52 217 -71 278 -13
41 -27 48 -179 88 -164 44 -170 44 -120 -7z"/>
<path d="M4900 3609 c-78 -148 -145 -221 -253 -274 -70 -35 -92 -40 -314 -75
-50 -8 -73 -16 -73 -26 0 -7 10 -16 23 -19 12 -3 82 -18 155 -35 237 -52 332
-125 430 -331 l57 -121 60 5 c82 7 178 39 252 84 34 21 142 106 239 188 234
197 251 213 238 222 -6 5 -100 89 -208 188 -109 99 -227 199 -263 222 -69 45
-160 79 -233 89 l-45 5 -65 -122z"/>
<path d="M3252 3471 c-139 -35 -208 -216 -126 -334 36 -52 119 -97 178 -97 48
0 131 37 163 71 67 73 71 192 10 281 -40 60 -149 97 -225 79z"/>
<path d="M3518 3423 c-2 -10 5 -38 16 -63 57 -128 -6 -280 -139 -336 -51 -21
-137 -18 -196 7 -69 30 -75 21 -59 -80 11 -63 20 -89 44 -117 69 -84 180 -96
389 -40 70 19 134 39 141 46 36 29 92 251 89 353 -5 142 -53 206 -173 226 -36
6 -75 14 -87 16 -15 4 -23 0 -25 -12z"/>
<path d="M2178 3209 c-193 -30 -298 -90 -381 -217 -45 -69 -207 -374 -207
-390 0 -5 98 -45 218 -88 l217 -79 105 0 c98 0 110 2 175 33 39 18 145 83 237
144 l167 110 -69 59 c-45 39 -82 83 -108 127 -21 37 -69 118 -105 180 -37 62
-67 120 -67 128 0 18 -31 17 -182 -7z"/>
<path d="M4229 3168 c-6 -13 -53 -92 -102 -176 -83 -141 -98 -160 -174 -225
l-84 -71 30 -23 c82 -64 305 -224 343 -246 135 -79 249 -76 533 12 110 35 203
66 207 70 7 6 -50 133 -159 361 -47 97 -133 185 -223 227 -40 19 -117 42 -199
58 -74 15 -140 29 -147 32 -7 2 -18 -6 -25 -19z"/>
<path d="M2800 3155 c0 -23 74 -285 85 -302 9 -13 34 -27 57 -33 24 -6 84 -22
133 -36 50 -13 99 -24 109 -24 18 0 17 2 -6 28 -44 47 -57 75 -68 147 -18 120
-9 110 -102 124 -97 15 -139 32 -172 72 -23 27 -36 36 -36 24z"/>
<path d="M1094 2938 c-33 -35 -74 -83 -91 -108 -34 -50 -326 -630 -321 -636 6
-6 525 -184 613 -211 44 -13 121 -27 172 -30 l92 -6 5 34 c3 19 8 67 11 107
12 137 57 261 129 355 20 26 34 52 31 56 -3 5 -48 24 -100 42 -52 19 -95 38
-95 42 0 4 18 41 40 81 22 40 40 77 40 82 0 5 -29 15 -65 22 -116 22 -217 77
-328 179 -32 29 -62 53 -66 53 -4 0 -35 -28 -67 -62z"/>
<path d="M5395 2895 c-115 -104 -258 -178 -368 -191 -87 -10 -87 -11 -39 -111
23 -49 42 -93 42 -99 0 -6 -41 -23 -90 -38 l-90 -27 31 -45 c68 -99 104 -214
115 -366 l7 -98 91 0 c50 0 111 5 136 11 62 13 663 209 673 218 9 9 -24 81
-191 421 -85 173 -124 241 -169 295 -32 39 -68 71 -78 72 -12 2 -41 -16 -70
-42z"/>
<path d="M3047 2705 c-52 -37 -127 -52 -199 -41 l-40 7 31 -40 c51 -64 88 -92
262 -194 132 -77 173 -97 204 -97 31 0 72 20 204 97 167 97 209 128 262 195
l29 36 -39 -5 c-73 -10 -147 6 -203 43 -48 32 -55 34 -97 27 -51 -10 -277 -10
-331 0 -29 5 -43 0 -83 -28z"/>
<path d="M2687 2622 c-31 -43 -87 -120 -126 -172 -39 -52 -83 -119 -97 -148
-35 -74 -57 -184 -48 -247 5 -38 129 -472 138 -482 3 -4 408 187 430 202 53
37 130 125 156 180 27 53 90 305 90 353 0 11 -52 46 -158 107 -158 91 -210
132 -289 232 l-40 51 -56 -76z"/>
<path d="M3779 2592 c-49 -58 -78 -80 -222 -165 -91 -54 -179 -103 -196 -110
-17 -6 -31 -16 -31 -22 0 -5 11 -75 24 -153 19 -115 31 -159 60 -217 41 -82
120 -163 202 -206 332 -175 346 -181 355 -168 23 38 151 413 158 464 10 71 -1
164 -27 231 -18 46 -252 414 -262 413 -3 0 -30 -30 -61 -67z"/>
<path d="M2505 2548 c-183 -120 -229 -139 -355 -145 -104 -6 -146 3 -287 55
l-82 31 -40 -50 c-51 -64 -97 -162 -115 -242 -8 -34 -24 -174 -35 -312 -12
-137 -23 -263 -26 -279 l-5 -29 172 7 c339 14 438 23 524 50 87 28 204 96 204
120 0 8 -16 64 -35 125 -42 134 -51 214 -35 301 18 99 45 151 162 313 60 82
108 150 106 152 -2 1 -70 -42 -153 -97z"/>
<path d="M3963 2538 c30 -46 77 -118 105 -161 71 -109 96 -188 95 -307 -1 -86
-5 -107 -43 -213 l-43 -119 29 -28 c43 -43 141 -98 212 -120 59 -18 320 -48
575 -66 l99 -7 -6 54 c-3 30 -10 155 -16 279 -15 305 -31 379 -112 507 -30 48
-45 63 -57 58 -9 -4 -67 -22 -129 -41 -92 -28 -130 -34 -201 -34 -150 0 -223
31 -420 179 -64 48 -122 90 -129 95 -7 4 12 -30 41 -76z"/>
<path d="M3266 2302 c-2 -4 -16 -68 -31 -142 -52 -260 -126 -362 -341 -468
l-119 -58 3 -50 c4 -66 27 -145 64 -218 36 -71 53 -95 208 -277 63 -74 135
-160 160 -192 25 -31 48 -56 51 -57 14 -1 398 437 432 493 36 59 69 151 81
228 l6 35 -117 62 c-137 72 -196 119 -248 198 -49 73 -78 168 -101 321 -11 77
-22 124 -30 127 -8 3 -15 2 -18 -2z"/>
<path d="M2440 1688 c-71 -60 -248 -117 -365 -118 -107 -1 -105 1 -105 -104 0
-50 5 -111 10 -136 16 -71 214 -680 221 -680 4 0 153 71 331 159 290 142 330
165 391 221 37 34 67 66 67 71 0 5 -30 44 -66 87 -104 122 -160 240 -179 379
l-7 52 -95 -45 c-53 -24 -99 -44 -103 -44 -4 0 -20 41 -36 90 -15 50 -30 90
-33 90 -3 -1 -17 -10 -31 -22z"/>
<path d="M4031 1614 c-17 -47 -31 -88 -31 -92 0 -4 -4 -13 -9 -21 -7 -11 -25
-5 -93 32 l-84 46 -17 -72 c-24 -105 -85 -219 -166 -312 l-70 -80 33 -40 c18
-22 62 -62 97 -88 65 -49 666 -363 676 -353 3 3 57 155 120 338 l115 333 2
105 1 104 -116 12 c-164 16 -266 53 -376 135 l-51 38 -31 -85z"/>
</g>
</svg>
